<?xml version="1.0" encoding="UTF-8" standalone="no"?>
<!-- Created with Inkscape (http://www.inkscape.org/) -->

<svg
   xmlns:svg="http://www.w3.org/2000/svg"
   xmlns="http://www.w3.org/2000/svg"
   version="1.0"
   width="107"
   height="57"
   viewBox="0 0 107 57"
   id="Ebene_1"
   xml:space="preserve"
   style="overflow:visible"><defs
   id="defs3030" />
<polygon
   points="106,20 106,15 101,15 101,10 96,10 96,15 91,15 91,10 96,10 96,5 81,5 81,10 71,10 71,15 61,15 61,20 51,20 51,25 41,25 41,30 31,30 31,35 21,35 21,40 11,40 11,45 1,45 1,50 16,50 16,45 31,45 31,40 41,40 41,45 51,45 51,50 56,50 56,60 66,60 66,55 61,55 61,50 66,50 66,45 71,45 71,40 76,40 76,35 81,35 81,30 86,30 86,25 96,25 96,20 "
   transform="translate(0,-4)"
   id="polygon2949"
   style="stroke:#333333;stroke-width:2" />
<linearGradient
   x1="79.5"
   y1="29"
   x2="79.5"
   y2="2.8421709e-14"
   id="XMLID_4_"
   gradientUnits="userSpaceOnUse"
   gradientTransform="translate(0,-4)">
	<stop
   id="stop2952"
   style="stop-color:#76e500;stop-opacity:1"
   offset="0.0544747" />
	<stop
   id="stop2954"
   style="stop-color:#78e100;stop-opacity:1"
   offset="0.1105" />
	<stop
   id="stop2956"
   style="stop-color:#7bda00;stop-opacity:1"
   offset="0.23999999" />
	<stop
   id="stop2958"
   style="stop-color:#7dd504;stop-opacity:1"
   offset="0.4138" />
	<stop
   id="stop2960"
   style="stop-color:#7ed406;stop-opacity:1"
   offset="0.8132" />
</linearGradient>
<path
   d="m 114,-4 v 29 h 4 V -4 h -4 z M 101,6 h -5 v 5 H 91 V 6 h 5 V 1 H 81 V 6 H 71 v 5 H 61 v 5 H 51 v 5 H 41 v 4 h 45 v -4 h 10 v -5 h 10 v -5 h -5 V 6 z"
   id="path2962"
   style="fill:url(#XMLID_4_)" />
<linearGradient
   x1="116"
   y1="60"
   x2="116"
   y2="29.000488"
   id="XMLID_5_"
   gradientUnits="userSpaceOnUse"
   gradientTransform="translate(0,-4)">
	<stop
   id="stop2965"
   style="stop-color:#75cd10;stop-opacity:1"
   offset="0" />
	<stop
   id="stop2967"
   style="stop-color:#75cd10;stop-opacity:1"
   offset="0.2568" />
	<stop
   id="stop2969"
   style="stop-color:#74d110;stop-opacity:1"
   offset="0.2938" />
	<stop
   id="stop2971"
   style="stop-color:#6ed908;stop-opacity:1"
   offset="0.4145" />
	<stop
   id="stop2973"
   style="stop-color:#7bda00;stop-opacity:1"
   offset="0.537" />
	<stop
   id="stop2975"
   style="stop-color:#7dd504;stop-opacity:1"
   offset="0.68940002" />
	<stop
   id="stop2977"
   style="stop-color:#7ed406;stop-opacity:1"
   offset="0.92220002" />
</linearGradient>
<rect
   width="4"
   height="31"
   x="114"
   y="25"
   id="rect2979"
   style="fill:url(#XMLID_5_)" />
<rect
   width="5"
   height="5"
   x="91"
   y="6"
   id="rect2981"
   style="fill:none" />
<linearGradient
   x1="43.500488"
   y1="60"
   x2="43.500488"
   y2="29.000488"
   id="XMLID_6_"
   gradientUnits="userSpaceOnUse">
	<stop
   id="stop2984"
   style="stop-color:#75cd10;stop-opacity:1"
   offset="0" />
	<stop
   id="stop2986"
   style="stop-color:#75cd10;stop-opacity:1"
   offset="0.2568" />
	<stop
   id="stop2988"
   style="stop-color:#74d110;stop-opacity:1"
   offset="0.2938" />
	<stop
   id="stop2990"
   style="stop-color:#6ed908;stop-opacity:1"
   offset="0.4145" />
	<stop
   id="stop2992"
   style="stop-color:#7bda00;stop-opacity:1"
   offset="0.537" />
	<stop
   id="stop2994"
   style="stop-color:#7dd504;stop-opacity:1"
   offset="0.68940002" />
	<stop
   id="stop2996"
   style="stop-color:#7ed406;stop-opacity:1"
   offset="0.92220002" />
</linearGradient>
<polygon
   points="56,50 56,60 66,60 66,55 61,55 61,50 66,50 66,45 71,45 71,40 76,40 76,35 81,35 81,30 86,30 86,29 41,29 41,30 31,30 31,35 21,35 21,40 11,40 11,45 1,45 1,50 16,50 16,45 31,45 31,40 41,40 41,45 51,45 51,50 "
   transform="translate(0,-4)"
   id="polygon2998"
   style="fill:url(#XMLID_6_)" />
<polygon
   points="30,44 15,44 15,49 2,49 1,50 16,50 16,45 31,45 31,40 41,40 42,39 30,39 "
   transform="translate(0,-4)"
   id="polygon3000"
   style="opacity:0.37000002;fill:#666666;enable-background:new" />
<polygon
   points="41,40 42,39 42,44 41,45 "
   transform="translate(0,-4)"
   id="polygon3002"
   style="opacity:0.72000002;fill:#ffffff;enable-background:new" />
<polygon
   points="52,44 42,44 41,45 51,45 "
   transform="translate(0,-4)"
   id="polygon3004"
   style="opacity:0.37000002;fill:#666666;enable-background:new" />
<polygon
   points="56,60 66,60 66,55 65,56 65,59 57,59 "
   transform="translate(0,-4)"
   id="polygon3006"
   style="opacity:0.37000002;fill:#666666;enable-background:new" />
<polygon
   points="51,45 52,44 52,49 51,50 "
   transform="translate(0,-4)"
   id="polygon3008"
   style="opacity:0.72000002;fill:#ffffff;enable-background:new" />
<polygon
   points="86,30 81,30 81,35 76,35 76,40 71,40 71,45 66,45 66,50 61,50 61,55 60,56 60,49 65,49 65,44 70,44 70,39 75,39 75,34 80,34 80,29 85,29 85,24 95,24 95,19 105,19 105,16 106,15 106,20 96,20 96,25 86,25 "
   transform="translate(0,-4)"
   id="polygon3010"
   style="opacity:0.37000002;fill:#666666;enable-background:new" />
<polygon
   points="57,49 52,49 51,50 56,50 "
   transform="translate(0,-4)"
   id="polygon3012"
   style="opacity:0.37000002;fill:#666666;enable-background:new" />
<polygon
   points="56,50 57,49 57,59 56,60 "
   transform="translate(0,-4)"
   id="polygon3014"
   style="opacity:0.72000002;fill:#ffffff;enable-background:new" />
<polygon
   points="60,56 65,56 66,55 61,55 "
   transform="translate(0,-4)"
   id="polygon3016"
   style="opacity:0.72000002;fill:#ffffff;enable-background:new" />
<polygon
   points="100,16 105,16 106,15 101,15 "
   transform="translate(0,-4)"
   id="polygon3018"
   style="opacity:0.72000002;fill:#ffffff;enable-background:new" />
<polygon
   points="91,15 91,10 96,10 96,5 95,6 95,9 90,9 90,16 "
   transform="translate(0,-4)"
   id="polygon3020"
   style="opacity:0.37000002;fill:#666666;enable-background:new" />
<polygon
   points="100,11 100,16 101,15 101,10 "
   transform="translate(0,-4)"
   id="polygon3022"
   style="opacity:0.37000002;fill:#666666;enable-background:new" />
<polygon
   points="101,10 96,10 96,15 91,15 90,16 97,16 97,11 100,11 "
   transform="translate(0,-4)"
   id="polygon3024"
   style="opacity:0.72000002;fill:#ffffff;enable-background:new" />
<polygon
   points="12,46 12,41 22,41 22,36 32,36 32,31 42,31 42,26 52,26 52,21 62,21 62,16 72,16 72,11 82,11 82,6 95,6 96,5 81,5 81,10 71,10 71,15 61,15 61,20 51,20 51,25 41,25 41,30 31,30 31,35 21,35 21,40 11,40 11,45 1,45 1,50 2,49 2,46 "
   transform="translate(0,-4)"
   id="polygon3026"
   style="opacity:0.72000002;fill:#ffffff;enable-background:new" />
</svg>