<?xml version="1.0" encoding="UTF-8" standalone="no"?>
<!-- Created with Inkscape (http://www.inkscape.org/) -->

<svg
   xmlns:svg="http://www.w3.org/2000/svg"
   xmlns="http://www.w3.org/2000/svg"
   version="1.0"
   width="107"
   height="57"
   viewBox="0 0 107 57"
   id="Ebene_1"
   xml:space="preserve"
   style="overflow:visible"><defs
   id="defs138">
</defs>
<polygon
   points="36,10 36,15 46,15 46,20 56,20 56,25 66,25 66,30 76,30 76,35 86,35 86,40 96,40 96,45 106,45 106,50 91,50 91,45 76,45 76,40 66,40 66,45 56,45 56,50 51,50 51,60 41,60 41,55 46,55 46,50 41,50 41,45 36,45 36,40 31,40 31,35 26,35 26,30 21,30 21,25 11,25 11,20 1,20 1,15 6,15 6,10 11,10 11,15 16,15 16,10 11,10 11,5 26,5 26,10 "
   transform="translate(0,-4)"
   id="polygon3"
   style="stroke:#333333;stroke-width:2" />
<linearGradient
   x1="59.5"
   y1="29"
   x2="59.5"
   y2="2.8421709e-14"
   id="XMLID_4_"
   gradientUnits="userSpaceOnUse"
   gradientTransform="translate(0,-4)">
	<stop
   id="stop6"
   style="stop-color:#76e500;stop-opacity:1"
   offset="0.0544747" />
	<stop
   id="stop8"
   style="stop-color:#78e100;stop-opacity:1"
   offset="0.1105" />
	<stop
   id="stop10"
   style="stop-color:#7bda00;stop-opacity:1"
   offset="0.23999999" />
	<stop
   id="stop12"
   style="stop-color:#7dd504;stop-opacity:1"
   offset="0.4138" />
	<stop
   id="stop14"
   style="stop-color:#7ed406;stop-opacity:1"
   offset="0.8132" />
</linearGradient>
<path
   d="M 56,16 H 46 V 11 H 36 V 6 H 26 V 1 H 11 v 5 h 5 v 5 H 11 V 6 H 6 v 5 H 1 v 5 h 10 v 5 h 10 v 4 H 66 V 21 H 56 v -5 z m 58,-20 v 29 h 4 V -4 h -4 z"
   id="path16"
   style="fill:url(#XMLID_4_)" />
<linearGradient
   x1="-724.5"
   y1="60"
   x2="-724.5"
   y2="29.000488"
   id="XMLID_5_"
   gradientUnits="userSpaceOnUse"
   gradientTransform="matrix(-1,0,0,1,-661,0)">
	<stop
   id="stop19"
   style="stop-color:#75cd10;stop-opacity:1"
   offset="0" />
	<stop
   id="stop21"
   style="stop-color:#75cd10;stop-opacity:1"
   offset="0.2568" />
	<stop
   id="stop23"
   style="stop-color:#74d110;stop-opacity:1"
   offset="0.2938" />
	<stop
   id="stop25"
   style="stop-color:#6ed908;stop-opacity:1"
   offset="0.4145" />
	<stop
   id="stop27"
   style="stop-color:#7bda00;stop-opacity:1"
   offset="0.537" />
	<stop
   id="stop29"
   style="stop-color:#7dd504;stop-opacity:1"
   offset="0.68940002" />
	<stop
   id="stop31"
   style="stop-color:#7ed406;stop-opacity:1"
   offset="0.92220002" />
</linearGradient>
<polygon
   points="26,35 26,30 21,30 21,29 66,29 66,30 76,30 76,35 86,35 86,40 96,40 96,45 106,45 106,50 91,50 91,45 76,45 76,40 66,40 66,45 56,45 56,50 51,50 51,60 41,60 41,55 46,55 46,50 41,50 41,45 36,45 36,40 31,40 31,35 "
   transform="translate(0,-4)"
   id="polygon33"
   style="fill:url(#XMLID_5_)" />
<polygon
   points="42,59 50,59 50,49 55,49 55,44 65,44 65,39 77,39 76,40 66,40 66,45 56,45 56,50 51,50 51,60 41,60 "
   transform="translate(0,-4)"
   id="polygon35"
   style="opacity:0.37000002;fill:#666666;enable-background:new" />
<polygon
   points="12,19 11,20 11,25 12,24 "
   transform="translate(0,-4)"
   id="polygon37"
   style="opacity:0.72000002;fill:#ffffff;enable-background:new" />
<polygon
   points="22,24 21,25 21,30 22,29 "
   transform="translate(0,-4)"
   id="polygon39"
   style="opacity:0.72000002;fill:#ffffff;enable-background:new" />
<polygon
   points="27,29 26,30 26,35 27,34 "
   transform="translate(0,-4)"
   id="polygon41"
   style="opacity:0.72000002;fill:#ffffff;enable-background:new" />
<polygon
   points="32,34 31,35 31,40 32,39 "
   transform="translate(0,-4)"
   id="polygon43"
   style="opacity:0.72000002;fill:#ffffff;enable-background:new" />
<linearGradient
   x1="116"
   y1="60"
   x2="116"
   y2="29.000488"
   id="XMLID_6_"
   gradientUnits="userSpaceOnUse"
   gradientTransform="translate(0,-4)">
	<stop
   id="stop46"
   style="stop-color:#75cd10;stop-opacity:1"
   offset="0" />
	<stop
   id="stop48"
   style="stop-color:#75cd10;stop-opacity:1"
   offset="0.2568" />
	<stop
   id="stop50"
   style="stop-color:#74d110;stop-opacity:1"
   offset="0.2938" />
	<stop
   id="stop52"
   style="stop-color:#6ed908;stop-opacity:1"
   offset="0.4145" />
	<stop
   id="stop54"
   style="stop-color:#7bda00;stop-opacity:1"
   offset="0.537" />
	<stop
   id="stop56"
   style="stop-color:#7dd504;stop-opacity:1"
   offset="0.68940002" />
	<stop
   id="stop58"
   style="stop-color:#7ed406;stop-opacity:1"
   offset="0.92220002" />
</linearGradient>
<rect
   width="4"
   height="31"
   x="114"
   y="25"
   id="rect60"
   style="fill:url(#XMLID_6_)" />
<polygon
   points="46,15 45,16 45,21 46,20 "
   transform="translate(0,-4)"
   id="polygon62"
   style="opacity:0.37000002;fill:#666666;enable-background:new" />
<polygon
   points="26,5 25,6 25,11 26,10 "
   transform="translate(0,-4)"
   id="polygon64"
   style="opacity:0.37000002;fill:#666666;enable-background:new" />
<polygon
   points="35,11 25,11 26,10 36,10 "
   transform="translate(0,-4)"
   id="polygon66"
   style="opacity:0.72000002;fill:#ffffff;enable-background:new" />
<polygon
   points="11,5 26,5 25,6 12,6 12,9 11,10 "
   transform="translate(0,-4)"
   id="polygon68"
   style="opacity:0.72000002;fill:#ffffff;enable-background:new" />
<polygon
   points="11,10 12,9 17,9 16,10 "
   transform="translate(0,-4)"
   id="polygon70"
   style="opacity:0.37000002;fill:#666666;enable-background:new" />
<rect
   width="5"
   height="5"
   x="11"
   y="6"
   id="rect72"
   style="fill:none" />
<polygon
   points="2,19 1,20 1,15 6,15 6,10 11,10 10,11 7,11 7,16 2,16 "
   transform="translate(0,-4)"
   id="polygon74"
   style="opacity:0.72000002;fill:#ffffff;enable-background:new" />
<polygon
   points="17,16 10,16 11,15 16,15 "
   transform="translate(0,-4)"
   id="polygon76"
   style="opacity:0.72000002;fill:#ffffff;enable-background:new" />
<polygon
   points="11,10 11,15 10,16 10,11 "
   transform="translate(0,-4)"
   id="polygon78"
   style="opacity:0.37000002;fill:#666666;enable-background:new" />
<polygon
   points="17,9 17,16 16,15 16,10 "
   transform="translate(0,-4)"
   id="polygon80"
   style="opacity:0.72000002;fill:#ffffff;enable-background:new" />
<polygon
   points="45,16 35,16 36,15 46,15 "
   transform="translate(0,-4)"
   id="polygon82"
   style="opacity:0.72000002;fill:#ffffff;enable-background:new" />
<polygon
   points="55,21 45,21 46,20 56,20 "
   transform="translate(0,-4)"
   id="polygon84"
   style="opacity:0.72000002;fill:#ffffff;enable-background:new" />
<polygon
   points="65,26 55,26 56,25 66,25 "
   transform="translate(0,-4)"
   id="polygon86"
   style="opacity:0.72000002;fill:#ffffff;enable-background:new" />
<polygon
   points="75,31 65,31 66,30 76,30 "
   transform="translate(0,-4)"
   id="polygon88"
   style="opacity:0.72000002;fill:#ffffff;enable-background:new" />
<polygon
   points="85,36 75,36 76,35 86,35 "
   transform="translate(0,-4)"
   id="polygon90"
   style="opacity:0.72000002;fill:#ffffff;enable-background:new" />
<polygon
   points="95,41 85,41 86,40 96,40 "
   transform="translate(0,-4)"
   id="polygon92"
   style="opacity:0.72000002;fill:#ffffff;enable-background:new" />
<polygon
   points="105,46 95,46 96,45 106,45 "
   transform="translate(0,-4)"
   id="polygon94"
   style="opacity:0.72000002;fill:#ffffff;enable-background:new" />
<polygon
   points="36,10 35,11 35,16 36,15 "
   transform="translate(0,-4)"
   id="polygon96"
   style="opacity:0.37000002;fill:#666666;enable-background:new" />
<polygon
   points="56,20 55,21 55,26 56,25 "
   transform="translate(0,-4)"
   id="polygon98"
   style="opacity:0.37000002;fill:#666666;enable-background:new" />
<polygon
   points="66,25 65,26 65,31 66,30 "
   transform="translate(0,-4)"
   id="polygon100"
   style="opacity:0.37000002;fill:#666666;enable-background:new" />
<polygon
   points="76,30 75,31 75,36 76,35 "
   transform="translate(0,-4)"
   id="polygon102"
   style="opacity:0.37000002;fill:#666666;enable-background:new" />
<polygon
   points="86,35 85,36 85,41 86,40 "
   transform="translate(0,-4)"
   id="polygon104"
   style="opacity:0.37000002;fill:#666666;enable-background:new" />
<polygon
   points="96,40 95,41 95,46 96,45 "
   transform="translate(0,-4)"
   id="polygon106"
   style="opacity:0.37000002;fill:#666666;enable-background:new" />
<polygon
   points="12,24 22,24 21,25 11,25 "
   transform="translate(0,-4)"
   id="polygon108"
   style="opacity:0.37000002;fill:#666666;enable-background:new" />
<polygon
   points="106,50 91,50 92,49 105,49 105,46 106,45 "
   transform="translate(0,-4)"
   id="polygon110"
   style="opacity:0.37000002;fill:#666666;enable-background:new" />
<polygon
   points="22,29 27,29 26,30 21,30 "
   transform="translate(0,-4)"
   id="polygon112"
   style="opacity:0.37000002;fill:#666666;enable-background:new" />
<polygon
   points="27,34 32,34 31,35 26,35 "
   transform="translate(0,-4)"
   id="polygon114"
   style="opacity:0.37000002;fill:#666666;enable-background:new" />
<polygon
   points="2,19 12,19 11,20 1,20 "
   transform="translate(0,-4)"
   id="polygon116"
   style="opacity:0.37000002;fill:#666666;enable-background:new" />
<polygon
   points="32,39 37,39 36,40 31,40 "
   transform="translate(0,-4)"
   id="polygon118"
   style="opacity:0.37000002;fill:#666666;enable-background:new" />
<polygon
   points="37,44 42,44 41,45 36,45 "
   transform="translate(0,-4)"
   id="polygon120"
   style="opacity:0.37000002;fill:#666666;enable-background:new" />
<polygon
   points="42,49 47,49 46,50 41,50 "
   transform="translate(0,-4)"
   id="polygon122"
   style="opacity:0.37000002;fill:#666666;enable-background:new" />
<polygon
   points="37,39 36,40 36,45 37,44 "
   transform="translate(0,-4)"
   id="polygon124"
   style="opacity:0.72000002;fill:#ffffff;enable-background:new" />
<polygon
   points="42,44 41,45 41,50 42,49 "
   transform="translate(0,-4)"
   id="polygon126"
   style="opacity:0.72000002;fill:#ffffff;enable-background:new" />
<polygon
   points="41,60 42,59 42,56 47,56 47,49 46,50 46,55 41,55 "
   transform="translate(0,-4)"
   id="polygon128"
   style="opacity:0.72000002;fill:#ffffff;enable-background:new" />
<polygon
   points="92,44 91,45 91,50 92,49 "
   transform="translate(0,-4)"
   id="polygon130"
   style="opacity:0.72000002;fill:#ffffff;enable-background:new" />
<polygon
   points="77,39 76,40 76,45 77,44 "
   transform="translate(0,-4)"
   id="polygon132"
   style="opacity:0.72000002;fill:#ffffff;enable-background:new" />
<polygon
   points="77,44 92,44 91,45 76,45 "
   transform="translate(0,-4)"
   id="polygon134"
   style="opacity:0.37000002;fill:#666666;enable-background:new" />
</svg>