<?xml version="1.0" encoding="utf-8"?>
<!-- Generator: Adobe Illustrator 12.0.1, SVG Export Plug-In  -->
<!DOCTYPE svg PUBLIC "-//W3C//DTD SVG 1.1//EN" "http://www.w3.org/Graphics/SVG/1.1/DTD/svg11.dtd" [
	<!ENTITY ns_flows "http://ns.adobe.com/Flows/1.0/">
	<!ENTITY ns_svg "http://www.w3.org/2000/svg">
	<!ENTITY ns_xlink "http://www.w3.org/1999/xlink">
]>
<svg  version="1.1" xmlns="&ns_svg;" xmlns:xlink="&ns_xlink;" xmlns:a="http://ns.adobe.com/AdobeSVGViewerExtensions/3.0/"
	 width="412" height="62" viewBox="0 0 412 62" enable-background="new 0 0 412 62" xml:space="preserve">
<defs>
</defs>
<path stroke="#333333" stroke-width="2" d="M31,6v5h-5v5H11v5H6v5H1v10h5l0,5h20v5h5v5h-5v5H16v-5h-5v-5H1v10h5l0,5h25l0-5h5v-5h5
	V41h-5v-5h-5v-5h5V21h-5v-5h10V6H31z M26,31h-5v5h-5v-5h-5v-5h5v-5h5v5h5V31z M56,16H41v5h5v25h10V31h5v-5h-5V16z M61,16v10h10V16
	H61z M86,36h-5V26h5v-5h5v-5H81v5h-5v5h-5v15h5v5h15v-5h-5V36z M106,16H96v5h-5v5h5v10h-5v5h5v5h15v-5h-5V16z M141,16h-15v5h5v5h5
	v10h-5v5h-5V21h-5v-5h-10v5h5v40h10V46h10v-5h5v-5h5V21h-5V16z M181,21h-5v-5h-15v-5h5V6h5V1h-15v5h-5v40h10V26h5v-5h5v25h15v-5h-5
	V21z M201,16h-15v5h5v25h15v-5h-5V16z M206,1h-10v10h10V1z M231,21v-5h-15v5h-5v5h-5v15h5v5h20V36h-5v5h-5v-5h-5V26h5v-5h5v5h10v-5
	H231z M266,16h-20v5h-5v5h-5v15h5v5h20v-5h5v-5h5V21h-5V16z M261,36h-5v5h-5v-5h-5V26h5v-5h5v5h5V36z M286,16h-15v5h5v25h10V31h5v-5
	h-5V16z M291,16v10h10V16H291z M326,16h-15v5h-5v5h-5v15h5v5h20V36h-5v5h-10V31h15v-5h5v-5h-5V16z M321,26h-5v-5h5V26z M331,46h10
	V36h-10V46z M376,11h5V6h5V1h-15v5h-5v10h-10v5h-5v5h-5v15h5v5h15v-5h-5v-5h-5V26h5v-5h5v20h5v5h10v-5h-5V11z M406,21v-5h-15v5h-5v5
	h-5v15h5v5h20V36h-5v5h-10V31h15v-5h5v-5H406z M401,26h-5v-5h5V26z"/>
<linearGradient id="XMLID_1_" gradientUnits="userSpaceOnUse" x1="205.9897" y1="30" x2="205.9897" y2="1.0005">
	<stop  offset="5.447471e-002" style="stop-color:#76E500"/>
	<stop  offset="0.1105" style="stop-color:#78E100"/>
	<stop  offset="0.24" style="stop-color:#7BDA00"/>
	<stop  offset="0.4138" style="stop-color:#7DD504"/>
	<stop  offset="0.8132" style="stop-color:#7ED406"/>
</linearGradient>
<path fill="url(#XMLID_1_)" d="M81,16v5h-5v5h-5v4h10v-4h5v-5h5v-5H81z M31,11h-5v5H11v5H6v5H1v4h10v-4h5v-5h5v5h5v4h10v-9h-5v-5h10
	V6H31V11z M61,16v10h10V16H61z M56,16H41v5h5v9h15v-4h-5V16z M96,21h-5v5h5v4h10V16H96V21z M176,16h-15v-5h5V6h5V1h-15v5h-5v24h10
	v-4h5v-5h5v9h10v-9h-5V16z M141,16h-15v5h5v5h5v4h10v-9h-5V16z M121,16h-10v5h5v9h10v-9h-5V16z M206,1h-10v10h10V1z M326,16h-15v5
	h-5v5h-5v4h25v-4h5v-5h-5V16z M321,26h-5v-5h5V26z M381,6h5V1h-15v5h-5v10h-10v5h-5v5h-5v4h10v-4h5v-5h5v9h10V11h5V6z M186,21h5v9
	h10V16h-15V21z M291,16v10h10V16H291z M406,21v-5h-15v5h-5v5h-5v4h25v-4h5v-5H406z M401,26h-5v-5h5V26z M231,21v-5h-15v5h-5v5h-5v4
	h10v-4h5v-5h5v5h10v-5H231z M266,16h-20v5h-5v5h-5v4h10v-4h5v-5h5v5h5v4h10v-9h-5V16z M286,16h-15v5h5v9h15v-4h-5V16z"/>
<linearGradient id="XMLID_2_" gradientUnits="userSpaceOnUse" x1="203.4897" y1="61" x2="203.4897" y2="30">
	<stop  offset="0" style="stop-color:#75CD10"/>
	<stop  offset="0.2568" style="stop-color:#75CD10"/>
	<stop  offset="0.2938" style="stop-color:#74D110"/>
	<stop  offset="0.4145" style="stop-color:#6ED908"/>
	<stop  offset="0.537" style="stop-color:#7BDA00"/>
	<stop  offset="0.6894" style="stop-color:#7DD504"/>
	<stop  offset="0.9222" style="stop-color:#7ED406"/>
</linearGradient>
<path fill="url(#XMLID_2_)" d="M301,41h5v5h20V36h-5v5h-10V31h15v-1h-25V41z M86,36h-5v-6H71v11h5v5h15v-5h-5V36z M106,30H96v6h-5v5
	h5v5h15v-5h-5V30z M331,46h10V36h-10V46z M46,46h10V31h5v-1H46V46z M181,30h-10v16h15v-5h-5V30z M36,36h-5v-5h5v-1H26v1h-5v5h-5v-5
	h-5v-1H1v6h5l0,5h20v5h5v5h-5v5H16v-5h-5v-5H1v10h5l0,5h25l0-5h5v-5h5V41h-5V36z M151,46h10V30h-10V46z M276,46h10V31h5v-1h-15V46z
	 M406,31v-1h-25v11h5v5h20V36h-5v5h-10V31H406z M376,30h-10v11h5v5h10v-5h-5V30z M361,36h-5v-6h-10v11h5v5h15v-5h-5V36z M136,36h-5
	v5h-5V30h-10v31h10V46h10v-5h5v-5h5v-6h-10V36z M201,30h-10v16h15v-5h-5V30z M261,36h-5v5h-5v-5h-5v-6h-10v11h5v5h20v-5h5v-5h5v-6
	h-10V36z M226,41h-5v-5h-5v-6h-10v11h5v5h20V36h-5V41z"/>
<path opacity="0.72" fill="#FFFFFF" d="M55,27h5l1-1h-5L55,27z M56,16H41v5l1-1v-3h13L56,16z M46,46l1-1V20l-1,1V46z M61,16v10l1-1
	v-8h8l1-1H61z M291,16v10l1-1v-8h8l1-1H291z M286,16h-15v5l1-1v-3h13L286,16z M276,46l1-1V20l-1,1V46z M285,27h5l1-1h-5L285,27z
	 M27,25l-1,1v5h-5v5h-5l-1,1h7v-5h5V25z M27,45v-5l-1,1v5L27,45z M21,21v5l1-1v-5L21,21z M30,37h5l1-1h-5L30,37z M31,21l-1,1h5l1-1
	H31z M7,40v-5l-1,1v5L7,40z M2,27h5v-5h5v-5h15v-5h5V7h8l1-1H31v5h-5v5H11v5H6v5H1v10l1-1V27z M11,31l-1,1h5l1-1H11z M31,51h-5v5H16
	l-1,1h12v-5h5v-7l-1,1V51z M6,61l1-1v-5l-1,1V61z M11,46H1v10l1-1v-8h8L11,46z M35,42h5l1-1h-5L35,42z M16,51h-5l-1,1h5L16,51z
	 M82,17h8l1-1H81v5h-5v5h-5v15l1-1V27h5v-5h5V17z M76,46l1-1v-5l-1,1V46z M85,42h5l1-1h-5L85,42z M105,42h5l1-1h-5L105,42z M86,36
	h-5l-1,1h5L86,36z M96,36h-5l0,5l1-1v-3h5V25l-1,1V36z M106,16H96v5h-5l0,5l1-1v-3h5v-5h8L106,16z M96,46l1-1v-5l-1,1V46z M121,16
	h-10v5l1-1v-3h8L121,16z M116,61l1-1V20l-1,1V61z M126,21h-5l-1,1h5L126,21z M127,17h13l1-1h-15v5l1-1V17z M140,22h5l1-1h-5L140,22z
	 M181,21h-5l-1,1h5L181,21z M180,42h5l1-1h-5L180,42z M136,36h-5v5h-5l-1,1h7v-5h5V25l-1,1V36z M171,1h-15v5h-5v40l1-1V7h5V2h13
	L171,1z M176,16h-15l-1,1h15L176,16z M171,46l1-1V20l-1,1V46z M197,2h8l1-1h-10v10l1-1V2z M331,46l1-1v-8h8l1-1h-10V46z M201,16h-15
	v5l1-1v-3h13L201,16z M191,46l1-1V20l-1,1V46z M200,42h5l1-1h-5L200,42z M217,17h13l1-1h-15v5h-5v5h-5v15l1-1V27h5v-5h5V17z M312,17
	h13l1-1h-15v5h-5v5h-5v15l1-1V27h5v-5h5V17z M227,25v-5l-1,1v5L227,25z M211,46l1-1v-5l-1,1V46z M247,17h18l1-1h-20v5h-5v5h-5v15
	l1-1V27h5v-5h5V17z M241,46l1-1v-5l-1,1V46z M230,22h5l1-1h-5L230,22z M221,36h-5l-1,1h5L221,36z M257,25v-5l-1,1v5L257,25z M251,36
	h-5l-1,1h5L251,36z M226,41h-5l-1,1h7v-5h3l1-1h-5V41z M261,36h-5v5h-5l-1,1h7v-5h5V25l-1,1V36z M265,22h5l1-1h-5L265,22z M306,46
	l1-1v-5l-1,1V46z M321,41h-10l-1,1h12v-5h3l1-1h-5V41z M316,26l-1,1h7v-7l-1,1v5H316z M326,21l-1,1h5l1-1H326z M392,17h13l1-1h-15v5
	h-5v5h-5v15l1-1V27h5v-5h5V17z M386,46l1-1v-5l-1,1V46z M371,46l1-1v-5l-1,1V46z M366,41l1-1V20l-1,1V41z M351,46l1-1v-5l-1,1V46z
	 M401,41h-10l-1,1h12v-5h3l1-1h-5V41z M396,26l-1,1h7v-7l-1,1v5H396z M406,21l-1,1h5l1-1H406z M361,36h-5l-1,1h5L361,36z M360,42h5
	l1-1h-5L360,42z M375,42h5l1-1h-5L375,42z M386,1h-15v5h-5v10h-10v5h-5v5h-5v15l1-1V27h5v-5h5v-5h10V7h5V2h13L386,1z"/>
<path opacity="0.37" fill="#666666" d="M71,16l-1,1v8h-8l-1,1h10V16z M56,16l-1,1v10l1-1V16z M47,20h-5l-1,1h5L47,20z M60,30h-5v15
	h-8l-1,1h10V31h5v-5l-1,1V30z M301,16l-1,1v8h-8l-1,1h10V16z M277,20h-5l0,0h-3v1h2h5L277,20z M286,16l-1,1v10l1-1V16z M290,30h-5
	v15h-8l-1,1h10V31h5v-5l-1,1V30z M31,16h10V6l-1,1v8H30v7l1-1V16z M11,26h5v-5h5l1-1h-7v5h-5v7l1-1V26z M15,32v5l1-1v-5L15,32z
	 M36,41v-5l-1,1v5L36,41z M11,51v-5l-1,1v5L11,51z M16,56v-5l-1,1v5L16,56z M21,26h5l1-1h-5L21,26z M7,35H2l-1,1h5L7,35z M32,45h-5
	l-1,1h5L32,45z M7,55H2l-1,1h5L7,55z M27,40H7l-1,1h20L27,40z M31,31h5V21l-1,1v8h-5v7l1-1V31z M40,50h-5v5h-5v5H7l-1,1h25v-5h5v-5
	h5V41l-1,1V50z M97,25h-5l-1,1h5L97,25z M97,40h-5l-1,1h5L97,40z M77,40h-5l-1,1h5L77,40z M110,45H97l-1,1h15v-5l-1,1L110,45z
	 M106,16l-1,1v25l1-1L106,16z M90,45H77l-1,1h15v-5l-1,1V45z M85,37l0,5l1-1v-5L85,37z M90,20h-5v5h-5l0,12l1-1l0-10h5v-5h5v-5l-1,1
	V20z M141,16l-1,1v5l1-1L141,16z M131,26h5l1-1h-5v-5h-5l-1,1h5V26z M145,35h-5v5h-5v5h-10v15h-8l-1,1h10V46h10v-5h5v-5h5V21l-1,1
	V35z M126,21l-1,1v20l1-1V21z M121,16l-1,1v5l1-1V16z M117,20h-5l-1,1h5L117,20z M161,11h5V6h5V1l-1,1v3h-5v5h-5v7l1-1V11z M172,20
	h-7v5h-5v20h-8l-1,1h10V26h5v-5h5L172,20z M176,16l-1,1v5l1-1V16z M181,21l-1,1v20l1-1V21z M185,45h-13l-1,1h15v-5l-1,1V45z M206,1
	l-1,1v8h-8l-1,1h10V1z M340,45h-8l-1,1h10V36l-1,1V45z M192,20h-5l-1,1h5L192,20z M201,41V16l-1,1v25L201,41z M205,45h-13l-1,1h15
	v-5l-1,1V45z M230,45h-18l-1,1h20V36l-1,1V45z M221,41v-5l-1,1v5L221,41z M212,40h-5l-1,1h5L212,40z M325,45h-18l-1,1h20V36l-1,1V45
	z M307,40h-5l-1,1h5L307,40z M216,26h5v-5h5l1-1h-7v5h-5v12l1-1V26z M231,16l-1,1v5l1-1V16z M226,26h10v-5l-1,1v3h-8L226,26z
	 M242,40h-5l-1,1h5L242,40z M251,41v-5l-1,1v5L251,41z M256,26h5l1-1h-5L256,26z M246,26h5v-5h5l1-1h-7v5h-5v12l1-1V26z M270,35h-5
	v5h-5v5h-18l-1,1h20v-5h5v-5h5V21l-1,1V35z M266,16l-1,1v5l1-1V16z M331,21l-1,1v3h-5v5h-15v12l1-1V31h15v-5h5V21z M326,16l-1,1v5
	l1-1V16z M316,21h5l1-1h-7v7l1-1V21z M405,45h-18l-1,1h20V36l-1,1V45z M387,40h-5l-1,1h5L387,40z M372,40h-5l-1,1h5L372,40z M410,22
	v3h-5v5h-15v12l1-1V31h15v-5h5v-5L410,22z M406,16l-1,1v5l1-1V16z M396,21h5l1-1h-7v7l1-1V21z M365,45h-13l-1,1h15v-5l-1,1V45z
	 M352,40h-5l-1,1h5L352,40z M361,41v-5l-1,1v5L361,41z M356,26h5v-5h5l1-1h-7v5h-5v12l1-1V26z M376,11h5V6h5V1l-1,1v3h-5v5h-5v32
	l1-1V11z M380,45h-8l-1,1h10v-5l-1,1V45z"/>
</svg>
