<?xml version="1.0" encoding="UTF-8" standalone="no"?>
<!-- Created with Inkscape (http://www.inkscape.org/) -->

<svg
   xmlns:dc="http://purl.org/dc/elements/1.1/"
   xmlns:cc="http://creativecommons.org/ns#"
   xmlns:rdf="http://www.w3.org/1999/02/22-rdf-syntax-ns#"
   xmlns:svg="http://www.w3.org/2000/svg"
   xmlns="http://www.w3.org/2000/svg"
   version="1.1"
   width="131.2075"
   height="66.736961"
   preserveAspectRatio="xMinYMin meet"
   id="svg2">
  <defs
     id="defs4" />
  <metadata
     id="metadata7">
    <rdf:RDF>
      <cc:Work
         rdf:about="">
        <dc:format>image/svg+xml</dc:format>
        <dc:type
           rdf:resource="http://purl.org/dc/dcmitype/StillImage" />
        <dc:title></dc:title>
      </cc:Work>
    </rdf:RDF>
  </metadata>
  <g
     transform="translate(-332.16,-699.94522)"
     id="layer1">
    <path
       d="m 387.49375,699.94522 31.90896,0 -1.48923,5.99777 -31.90896,0 z"
       id="rect3066"
       style="color:#000000;fill:#003670;fill-opacity:1;fill-rule:nonzero;stroke:none;stroke-width:2;marker:none;visibility:visible;display:inline;overflow:visible;enable-background:accumulate" />
    <path
       d="m 380.6875,702.875 -5.53125,22.625 0,0.0625 -0.0625,0.0625 31.3125,0.125 0.625,-2.59375 -28.625,-0.125 4.96875,-20.15625 -2.6875,0 z"
       id="rect3069-2"
       style="color:#000000;fill:#a98c4a;fill-opacity:1;fill-rule:nonzero;stroke:none;stroke-width:2;marker:none;visibility:visible;display:inline;overflow:visible;enable-background:accumulate" />
    <path
       d="m 385.68299,707.10962 31.90896,0 -1.48923,5.99777 -31.90896,0 z"
       id="rect3066-8"
       style="color:#000000;fill:#003670;fill-opacity:1;fill-rule:nonzero;stroke:none;stroke-width:2;marker:none;visibility:visible;display:inline;overflow:visible;enable-background:accumulate" />
    <path
       d="m 383.89727,714.27402 31.90896,0 -1.48923,5.99777 -31.90896,0 z"
       id="rect3066-88"
       style="color:#000000;fill:#003670;fill-opacity:1;fill-rule:nonzero;stroke:none;stroke-width:2;marker:none;visibility:visible;display:inline;overflow:visible;enable-background:accumulate" />
    <g
       id="text3927"
       style="font-size:40px;font-style:normal;font-variant:normal;font-weight:normal;font-stretch:normal;text-align:start;line-height:125%;letter-spacing:0px;word-spacing:0px;writing-mode:lr-tb;text-anchor:start;fill:#000000;fill-opacity:1;stroke:none;font-family:Perpetua;-inkscape-font-specification:Perpetua">
      <path
         d="m 344.24,741.12218 -0.64,0 c -0.16,0.56 -0.24,0.64 -0.6,0.64 -0.88,0 -2.04,-0.88 -4.48,-0.88 -3.72,0 -6.24,2.40001 -6.24,5.92 0,1.8 0.56,3.4 1.96,4.8 2.56,2.56 8.72,4.40001 8.72,8.36 0,2.48 -1.84,4.08 -4.6,4.08 -2,0 -5.48,-1.4 -5.52,-5.64 l -0.68,0 0,6.2 0.68,0 c 0.2,-0.6 0.48,-0.88 0.88,-0.88 0.76,0 2.8,1.2 5.24,1.2 3.6,0 6.52,-2.92 6.52,-6.52 0,-1.52 -0.4,-2.96 -2,-4.56 -3.28,-3.27999 -9.12,-4.4 -9.12,-8.64 0,-2.12 1.72,-3.44 4.12,-3.44 2.32,0 4.72,1.32001 5.08,4.72 l 0.68,0 0,-5.36"
         id="path3011"
         style="letter-spacing:1.14999998px;fill:#000000" />
      <path
         d="m 367.38875,764.36218 5.64,0 0,-0.68 c -1.76,0 -2.6,-0.64 -2.6,-3.64 l 0,-14.28 c 0,-2.75999 0.68,-3.64 2.6,-3.64 l 0,-0.68 -8.08,0 0,0.68 c 1.84,0.08 2.44,1.00001 2.44,3.64 l 0,13.8 c -1.6,2.48 -3.92,3.8 -6.56,3.8 -3.88,0 -5.84,-2.52 -5.84,-6.04 l 0,-11.6 c 0,-2.91999 0.76,-3.6 2.64,-3.6 l 0,-0.68 -8.28,0 0,0.68 c 1.8,0 2.6,0.60001 2.6,3.64 l 0,11.28 c 0,3.96 2.24001,7.88 7.8,7.88 3.04,0 5.44,-1.2 7.64,-3.76 l 0,3.2"
         id="path3013"
         style="letter-spacing:1.14999998px;fill:#000000" />
      <path
         d="m 379.7375,760.04218 c 0,2.8 -0.68,3.64 -2.6,3.64 l 0,0.68 10.56,0 c 4.31999,0 7.36,-2.16 7.36,-5.6 0,-3.07999 -2.4,-5.72 -5.92,-6.44 l 0,-0.08 c 3.16,-1.04 4.6,-2.68 4.6,-5.2 0,-2.91999 -2.44001,-5.6 -7.96,-5.6 l -8.64,0 0,0.68 c 1.92,0 2.6,0.72001 2.6,3.64 l 0,14.28 m 3.04,-8 0,-9.72 2.28,0 c 3.72,0 5.48,2.04001 5.48,4.92 0,2.88 -2.04,4.8 -5.4,4.8 l -2.36,0 m 0,0.88 2.16,0 c 4.04,0 6.6,2.28001 6.6,5.64 0,3.36 -2.2,4.92 -4.52,4.92 l -1.88,0 c -1.8,0 -2.36,-0.76 -2.36,-3.84 l 0,-6.72"
         id="path3015"
         style="letter-spacing:1.14999998px;fill:#000000" />
      <path
         d="m 411.51812,741.12218 -0.64,0 c -0.16,0.56 -0.24,0.64 -0.6,0.64 -0.88,0 -2.04,-0.88 -4.48,-0.88 -3.71999,0 -6.24,2.40001 -6.24,5.92 0,1.8 0.56,3.4 1.96,4.8 2.56,2.56 8.72,4.40001 8.72,8.36 0,2.48 -1.84,4.08 -4.6,4.08 -2,0 -5.48,-1.4 -5.52,-5.64 l -0.68,0 0,6.2 0.68,0 c 0.2,-0.6 0.48,-0.88 0.88,-0.88 0.76,0 2.8,1.2 5.24,1.2 3.6,0 6.52,-2.92 6.52,-6.52 0,-1.52 -0.4,-2.96 -2,-4.56 -3.27999,-3.27999 -9.12,-4.4 -9.12,-8.64 0,-2.12 1.72,-3.44 4.12,-3.44 2.32,0 4.72,1.32001 5.08,4.72 l 0.68,0 0,-5.36"
         id="path3017"
         style="letter-spacing:1.14999998px;fill:#000000" />
      <path
         d="m 431.70687,750.12218 -0.68,0 c -0.32,1.96 -0.92,2.24 -2.48,2.24 l -6.4,0 0,-9.8 6.6,0 c 2.52,0 3.32,0.20001 3.84,2.72 l 0.44,0 0,-3.84 -16.52,0 0,0.68 c 1.96,0 2.6,0.80001 2.6,3.64 l 0,14.32 c 0,3.04 -0.8,3.6 -2.6,3.6 l 0,0.68 16.52,0 1.04,-4.28 -0.68,0 c -1.36,3 -2.2,3.16 -5.56,3.16 l -4,0 c -1.28,0 -1.68,-0.44 -1.68,-1.56 l 0,-8.2 5.68,0 c 2.36,0 2.72,0.24 3.2,2.2 l 0.68,0 0,-5.56"
         id="path3019"
         style="letter-spacing:-0.08999914px;fill:#000000" />
      <path
         d="m 446.4875,766.68218 15.72,0 1.16,-2.16 -15.72,0 -1.16,2.16 m -9.08,-13.88 c 0,6.8 5.36001,12.12 12.2,12.12 6.84,0 12.24,-5.32 12.24,-12.12 0,-6.67999 -5.36,-11.92 -12.16,-11.92 -6.99999,0 -12.28,5.12001 -12.28,11.92 m 3.52,0.04 c 0,-6.63999 3.44001,-11.08 8.84,-11.08 4.72,0 8.56,4.04001 8.56,11.24 0,5.56 -3,11.04 -8.76,11.04 -5.15999,0 -8.64,-4.52 -8.64,-11.2"
         id="path3021"
         style="letter-spacing:-0.08999914px;fill:#000000" />
    </g>
  </g>
</svg>
