<?xml version="1.0" standalone="no"?>
<!DOCTYPE svg PUBLIC "-//W3C//DTD SVG 1.1//EN" "http://www.w3.org/Graphics/SVG/1.1/DTD/svg11.dtd" >
<svg xmlns="http://www.w3.org/2000/svg">
<metadata>
This is a custom SVG webfont generated by Font Squirrel.
Copyright   : with Reserved Font Name graphicore Bitmap Font 01234infinitoThis Font Software is licensed under the SIL Open Font License Version 11You should have received a copy of the license along with this Font Softwareeither in standalone text files humanreadable headers or in the appropriatemachinereadable metadata fields within text or binary filesIf this is not the case go to httpscriptssilorgOFL for allthe details including a FAQThis program is distributed in the hope that it will be useful but WITHOUT ANYWARRANTY without even the implied warranty of MERCHANTABILITY or FITNESS FOR APARTICULAR PURPOSE See the SIL Open Font License for more details
Designer    : Lasse Fister graphicoretm
Foundry     : Lasse Fister graphicoretm
Foundry URL : httpgraphicorede
</metadata>
<defs>
<font id="webfont7Qjt7mdp" horiz-adv-x="875" >
<font-face units-per-em="1000" ascent="800" descent="-200" />
<missing-glyph horiz-adv-x="500" />
<glyph unicode="Th" horiz-adv-x="1875" d="M0 631v238q0 6 6 6h119v119q0 6 6 6h994v119q0 6 6 6h363q6 0 6 -6v-113q0 -6 -6 -6h-119v-119q0 -6 -6 -6h-119v-125h369q6 0 6 -6v-119h119q6 0 6 -6v-494h119q6 0 6 -6v-113q0 -6 -6 -6h-363q-6 0 -6 6v619h-125v-119q0 -6 -6 -6h-119v-494q0 -6 -6 -6h-238q-6 0 -6 6 v869h-250v-750h119q6 0 6 -6v-113q0 -6 -6 -6h-488q-6 0 -6 6v113q0 6 6 6h119v750h-125v-119q0 -6 -6 -6h-119v-119q0 -6 -6 -6h-238q-6 0 -6 6z" />
<glyph unicode="fj" horiz-adv-x="1125" d="M-125 -256q0 6 6 6h119v119q0 6 6 6h119v750h-119q-6 0 -6 6v113q0 6 6 6h119v244q0 6 6 6h119v119q0 6 6 6h863q6 0 6 -6v-238q0 -6 -6 -6h-238q-6 0 -6 6v119h-375v-119q0 -6 -6 -6h-119v-125h619q6 0 6 -6v-988q0 -6 -6 -6h-119v-119q0 -6 -6 -6h-363q-6 0 -6 6v113 q0 6 6 6h119v119q0 6 6 6h119v750h-375v-869q0 -6 -6 -6h-119v-119q0 -6 -6 -6h-363q-6 0 -6 6v113z" />
<glyph unicode="ffj" horiz-adv-x="1750" d="M-125 -256q0 6 6 6h119v119q0 6 6 6h119v750h-119q-6 0 -6 6v113q0 6 6 6h119v244q0 6 6 6h119v119q0 6 6 6h488q6 0 6 -6v-113q0 -6 -6 -6h-244v-119q0 -6 -6 -6h-119v-125h375v244q0 6 6 6h119v119q0 6 6 6h863q6 0 6 -6v-238q0 -6 -6 -6h-238q-6 0 -6 6v119h-375v-119 q0 -6 -6 -6h-119v-125h619q6 0 6 -6v-988q0 -6 -6 -6h-119v-119q0 -6 -6 -6h-363q-6 0 -6 6v113q0 6 6 6h119v119q0 6 6 6h119v750h-375v-744q0 -6 -6 -6h-119v-119q0 -6 -6 -6h-363q-6 0 -6 6v113q0 6 6 6h119v119q0 6 6 6h119v625h-375v-869q0 -6 -6 -6h-119v-119 q0 -6 -6 -6h-363q-6 0 -6 6v113z" />
<glyph unicode="ll" d="M0 6v863q0 6 6 6h119v119q0 6 6 6h494v119q0 6 6 6h363q6 0 6 -6v-113q0 -6 -6 -6h-119v-119q0 -6 -6 -6h-119v-750h119q6 0 6 -6v-113q0 -6 -6 -6h-363q-6 0 -6 6v869h-125v-119q0 -6 -6 -6h-119v-625h119q6 0 6 -6v-113q0 -6 -6 -6h-363q-6 0 -6 6z" />
<glyph unicode="&#xfb00;" horiz-adv-x="1250" d="M-125 -256q0 6 6 6h119v119q0 6 6 6h119v750h-119q-6 0 -6 6v113q0 6 6 6h119v244q0 6 6 6h119v119q0 6 6 6h488q6 0 6 -6v-113q0 -6 -6 -6h-244v-119q0 -6 -6 -6h-119v-125h375v244q0 6 6 6h119v119q0 6 6 6h488q6 0 6 -6v-113q0 -6 -6 -6h-244v-119q0 -6 -6 -6h-119 v-125h244q6 0 6 -6v-113q0 -6 -6 -6h-244v-744q0 -6 -6 -6h-119v-119q0 -6 -6 -6h-363q-6 0 -6 6v113q0 6 6 6h119v119q0 6 6 6h119v625h-375v-869q0 -6 -6 -6h-119v-119q0 -6 -6 -6h-363q-6 0 -6 6v113z" />
<glyph unicode="&#xfb01;" horiz-adv-x="1000" d="M-125 -256q0 6 6 6h119v119q0 6 6 6h119v750h-119q-6 0 -6 6v113q0 6 6 6h119v244q0 6 6 6h119v119q0 6 6 6h738q6 0 6 -6v-238q0 -6 -6 -6h-238q-6 0 -6 6v119h-250v-119q0 -6 -6 -6h-119v-125h494q6 0 6 -6v-619h119q6 0 6 -6v-113q0 -6 -6 -6h-363q-6 0 -6 6v619h-250 v-869q0 -6 -6 -6h-119v-119q0 -6 -6 -6h-363q-6 0 -6 6v113z" />
<glyph unicode="&#xfb03;" horiz-adv-x="1625" d="M-125 -256q0 6 6 6h119v119q0 6 6 6h119v750h-119q-6 0 -6 6v113q0 6 6 6h119v244q0 6 6 6h119v119q0 6 6 6h488q6 0 6 -6v-113q0 -6 -6 -6h-244v-119q0 -6 -6 -6h-119v-125h375v244q0 6 6 6h119v119q0 6 6 6h738q6 0 6 -6v-238q0 -6 -6 -6h-238q-6 0 -6 6v119h-250v-119 q0 -6 -6 -6h-119v-125h494q6 0 6 -6v-619h119q6 0 6 -6v-113q0 -6 -6 -6h-363q-6 0 -6 6v619h-250v-744q0 -6 -6 -6h-119v-119q0 -6 -6 -6h-363q-6 0 -6 6v113q0 6 6 6h119v119q0 6 6 6h119v625h-375v-869q0 -6 -6 -6h-119v-119q0 -6 -6 -6h-363q-6 0 -6 6v113z" />
<glyph unicode=" "  horiz-adv-x="500" />
<glyph unicode="&#x09;" horiz-adv-x="500" />
<glyph unicode="&#xa0;" horiz-adv-x="500" />
<glyph unicode="!" horiz-adv-x="500" d="M125 6v238q0 6 6 6h238q6 0 6 -6v-238q0 -6 -6 -6h-238q-6 0 -6 6zM125 381v738q0 6 6 6h238q6 0 6 -6v-738q0 -6 -6 -6h-238q-6 0 -6 6z" />
<glyph unicode="&#x22;" horiz-adv-x="625" d="M0 631v113q0 6 6 6h113q6 0 6 -6v-113q0 -6 -6 -6h-113q-6 0 -6 6zM0 881v238q0 6 6 6h238q6 0 6 -6v-363q0 -6 -6 -6h-113q-6 0 -6 6v119h-119q-6 0 -6 6zM375 631v113q0 6 6 6h113q6 0 6 -6v-113q0 -6 -6 -6h-113q-6 0 -6 6zM375 881v238q0 6 6 6h238q6 0 6 -6v-363 q0 -6 -6 -6h-113q-6 0 -6 6v119h-119q-6 0 -6 6z" />
<glyph unicode="#" horiz-adv-x="1250" d="M0 256v113q0 6 6 6h244v250h-119q-6 0 -6 6v113q0 6 6 6h244v244q0 6 6 6h238q6 0 6 -6v-244h250v244q0 6 6 6h238q6 0 6 -6v-244h119q6 0 6 -6v-113q0 -6 -6 -6h-244v-250h119q6 0 6 -6v-113q0 -6 -6 -6h-244v-244q0 -6 -6 -6h-238q-6 0 -6 6v244h-250v-244q0 -6 -6 -6 h-238q-6 0 -6 6v244h-119q-6 0 -6 6zM500 375h250v250h-250v-250z" />
<glyph unicode="$" horiz-adv-x="1250" d="M0 131v238q0 6 6 6h238q6 0 6 -6v-119h119q6 0 6 -6v-119h125v375h-244q-6 0 -6 6v119h-119q-6 0 -6 6v238q0 6 6 6h119v119q0 6 6 6h369v119q0 6 6 6h238q6 0 6 -6v-119h244q6 0 6 -6v-119h119q6 0 6 -6v-238q0 -6 -6 -6h-238q-6 0 -6 6v119h-119q-6 0 -6 6v119h-125 v-375h244q6 0 6 -6v-119h119q6 0 6 -6v-238q0 -6 -6 -6h-119v-119q0 -6 -6 -6h-369v-119q0 -6 -6 -6h-238q-6 0 -6 6v119h-244q-6 0 -6 6v119h-119q-6 0 -6 6zM375 750h119q6 0 6 -6v-119h125v250h-250v-125zM625 125h250v125h-119q-6 0 -6 6v119h-125v-250z" />
<glyph unicode="%" horiz-adv-x="1250" d="M0 -6q0 6 6 6h119v119q0 6 6 6h119v119q0 6 6 6h119v119q0 6 6 6h119v119q0 6 6 6h119v119q0 6 6 6h119v119q0 6 6 6h119v119q0 6 6 6h119v119q0 6 6 6h238q6 0 6 -6v-113q0 -6 -6 -6h-119v-119q0 -6 -6 -6h-119v-119q0 -6 -6 -6h-119v-119q0 -6 -6 -6h-119v-119 q0 -6 -6 -6h-119v-119q0 -6 -6 -6h-119v-119q0 -6 -6 -6h-119v-119q0 -6 -6 -6h-119v-119q0 -6 -6 -6h-238q-6 0 -6 6v113zM125 756v238q0 6 6 6h119v119q0 6 6 6h238q6 0 6 -6v-113q0 -6 -6 -6h-119v-250h119q6 0 6 -6v-113q0 -6 -6 -6h-238q-6 0 -6 6v119h-119q-6 0 -6 6z M500 756v238q0 6 6 6h113q6 0 6 -6v-238q0 -6 -6 -6h-113q-6 0 -6 6zM625 -119v238q0 6 6 6h119v119q0 6 6 6h238q6 0 6 -6v-113q0 -6 -6 -6h-119v-250h119q6 0 6 -6v-113q0 -6 -6 -6h-238q-6 0 -6 6v119h-119q-6 0 -6 6zM1000 -119v238q0 6 6 6h113q6 0 6 -6v-238 q0 -6 -6 -6h-113q-6 0 -6 6z" />
<glyph unicode="&#x26;" horiz-adv-x="1500" d="M0 131v238q0 6 6 6h119v125h-119q-6 0 -6 6v238q0 6 6 6h119v119q0 6 6 6h119v119q0 6 6 6h488q6 0 6 -6v-119h119q6 0 6 -6v-238q0 -6 -6 -6h-238q-6 0 -6 6v119h-119q-6 0 -6 6v119h-125v-119q0 -6 -6 -6h-119v-125h244q6 0 6 -6v-113q0 -6 -6 -6h-119v-119q0 -6 -6 -6 h-119v-125h119q6 0 6 -6v-119h375v119q0 6 6 6h119v125h-125v-119q0 -6 -6 -6h-238q-6 0 -6 6v238q0 6 6 6h619v119q0 6 6 6h119v119q0 6 6 6h238q6 0 6 -6v-238q0 -6 -6 -6h-119v-119q0 -6 -6 -6h-244v-119q0 -6 -6 -6h-119v-119q0 -6 -6 -6h-119v-119q0 -6 -6 -6h-738 q-6 0 -6 6v119h-119q-6 0 -6 6z" />
<glyph unicode="'" horiz-adv-x="125" d="M0 756v363q0 6 6 6h113q6 0 6 -6v-363q0 -6 -6 -6h-113q-6 0 -6 6z" />
<glyph unicode="(" horiz-adv-x="625" d="M125 6v738q0 6 6 6h119v119q0 6 6 6h119v119q0 6 6 6h238q6 0 6 -6v-113q0 -6 -6 -6h-119v-119q0 -6 -6 -6h-119v-625h119q6 0 6 -6v-119h119q6 0 6 -6v-113q0 -6 -6 -6h-363q-6 0 -6 6v119h-119q-6 0 -6 6z" />
<glyph unicode=")" horiz-adv-x="625" d="M0 -6q0 6 6 6h119v119q0 6 6 6h119v625h-119q-6 0 -6 6v119h-119q-6 0 -6 6v113q0 6 6 6h363q6 0 6 -6v-119h119q6 0 6 -6v-738q0 -6 -6 -6h-119v-119q0 -6 -6 -6h-119v-119q0 -6 -6 -6h-238q-6 0 -6 6v113z" />
<glyph unicode="*" horiz-adv-x="1125" d="M0 631v113q0 6 6 6h369v119q0 6 6 6h119v244q0 6 6 6h113q6 0 6 -6v-244h119q6 0 6 -6v-119h369q6 0 6 -6v-113q0 -6 -6 -6h-369v-119q0 -6 -6 -6h-119v-244q0 -6 -6 -6h-113q-6 0 -6 6v244h-119q-6 0 -6 6v119h-369q-6 0 -6 6zM125 256v113q0 6 6 6h113q6 0 6 -6v-113 q0 -6 -6 -6h-113q-6 0 -6 6zM125 1006v113q0 6 6 6h113q6 0 6 -6v-113q0 -6 -6 -6h-113q-6 0 -6 6zM250 381v113q0 6 6 6h113q6 0 6 -6v-113q0 -6 -6 -6h-113q-6 0 -6 6zM250 881v113q0 6 6 6h113q6 0 6 -6v-113q0 -6 -6 -6h-113q-6 0 -6 6zM750 381v113q0 6 6 6h113 q6 0 6 -6v-113q0 -6 -6 -6h-113q-6 0 -6 6zM750 881v113q0 6 6 6h113q6 0 6 -6v-113q0 -6 -6 -6h-113q-6 0 -6 6zM875 256v113q0 6 6 6h113q6 0 6 -6v-113q0 -6 -6 -6h-113q-6 0 -6 6zM875 1006v113q0 6 6 6h113q6 0 6 -6v-113q0 -6 -6 -6h-113q-6 0 -6 6z" />
<glyph unicode="+" horiz-adv-x="1000" d="M125 256v238q0 6 6 6h244v244q0 6 6 6h238q6 0 6 -6v-244h244q6 0 6 -6v-238q0 -6 -6 -6h-244v-244q0 -6 -6 -6h-238q-6 0 -6 6v244h-244q-6 0 -6 6z" />
<glyph unicode="," horiz-adv-x="500" d="M125 6v238q0 6 6 6h238q6 0 6 -6v-363q0 -6 -6 -6h-113q-6 0 -6 6v119h-119q-6 0 -6 6zM125 -131q0 6 6 6h113q6 0 6 -6v-113q0 -6 -6 -6h-113q-6 0 -6 6v113z" />
<glyph unicode="-" horiz-adv-x="750" d="M125 256v238q0 6 6 6h488q6 0 6 -6v-238q0 -6 -6 -6h-488q-6 0 -6 6z" />
<glyph unicode="." horiz-adv-x="500" d="M125 6v238q0 6 6 6h238q6 0 6 -6v-238q0 -6 -6 -6h-238q-6 0 -6 6z" />
<glyph unicode="/" horiz-adv-x="750" d="M0 -6q0 6 6 6h119v244q0 6 6 6h119v244q0 6 6 6h119v244q0 6 6 6h119v244q0 6 6 6h238q6 0 6 -6v-238q0 -6 -6 -6h-119v-244q0 -6 -6 -6h-119v-244q0 -6 -6 -6h-119v-244q0 -6 -6 -6h-119v-244q0 -6 -6 -6h-238q-6 0 -6 6v238z" />
<glyph unicode="0" d="M0 131v363q0 6 6 6h119v119q0 6 6 6h119v119q0 6 6 6h488q6 0 6 -6v-119h119q6 0 6 -6v-363q0 -6 -6 -6h-119v-119q0 -6 -6 -6h-119v-119q0 -6 -6 -6h-488q-6 0 -6 6v119h-119q-6 0 -6 6zM250 250h119q6 0 6 -6v-119h125v119q0 6 6 6h119v250h-119q-6 0 -6 6v119h-125 v-119q0 -6 -6 -6h-119v-250z" />
<glyph unicode="1" horiz-adv-x="625" d="M0 506v113q0 6 6 6h244v119q0 6 6 6h238q6 0 6 -6v-619h119q6 0 6 -6v-113q0 -6 -6 -6h-488q-6 0 -6 6v113q0 6 6 6h119v375h-244q-6 0 -6 6z" />
<glyph unicode="2" horiz-adv-x="625" d="M0 6v113q0 6 6 6h119v119q0 6 6 6h119v119q0 6 6 6h119v250h-125v-119q0 -6 -6 -6h-238q-6 0 -6 6v113q0 6 6 6h119v119q0 6 6 6h363q6 0 6 -6v-119h119q6 0 6 -6v-238q0 -6 -6 -6h-119v-119q0 -6 -6 -6h-119v-125h244q6 0 6 -6v-113q0 -6 -6 -6h-613q-6 0 -6 6z" />
<glyph unicode="3" d="M0 -6q0 6 6 6h238q6 0 6 -6v-119h250v119q0 6 6 6h119v250h-244q-6 0 -6 6v113q0 6 6 6h244v125h-119q-6 0 -6 6v119h-125v-119q0 -6 -6 -6h-238q-6 0 -6 6v113q0 6 6 6h119v119q0 6 6 6h488q6 0 6 -6v-119h119q6 0 6 -6v-238q0 -6 -6 -6h-119v-125h119q6 0 6 -6v-238 q0 -6 -6 -6h-119v-119q0 -6 -6 -6h-119v-119q0 -6 -6 -6h-488q-6 0 -6 6v119h-119q-6 0 -6 6v113z" />
<glyph unicode="4" horiz-adv-x="1000" d="M125 6v238q0 6 6 6h119v119q0 6 6 6h119v119q0 6 6 6h119v119q0 6 6 6h119v119q0 6 6 6h363q6 0 6 -6v-113q0 -6 -6 -6h-119v-500h119q6 0 6 -6v-113q0 -6 -6 -6h-119v-244q0 -6 -6 -6h-238q-6 0 -6 6v244h-494q-6 0 -6 6zM375 125h250v250h-125v-119q0 -6 -6 -6h-119 v-125z" />
<glyph unicode="5" horiz-adv-x="1000" d="M0 -119v238q0 6 6 6h238q6 0 6 -6v-119h119q6 0 6 -6v-119h125v119q0 6 6 6h119v125h-119q-6 0 -6 6v119h-244q-6 0 -6 6v119h-119q-6 0 -6 6v363q0 6 6 6h738q6 0 6 -6v-238q0 -6 -6 -6h-238q-6 0 -6 6v119h-250v-250h369q6 0 6 -6v-119h119q6 0 6 -6v-238q0 -6 -6 -6 h-119v-119q0 -6 -6 -6h-119v-119q0 -6 -6 -6h-488q-6 0 -6 6v119h-119q-6 0 -6 6z" />
<glyph unicode="6" d="M0 131v613q0 6 6 6h119v119q0 6 6 6h119v119q0 6 6 6h488q6 0 6 -6v-119h119q6 0 6 -6v-113q0 -6 -6 -6h-363q-6 0 -6 6v119h-125v-119q0 -6 -6 -6h-119v-250h119q6 0 6 -6v-113q0 -6 -6 -6h-119v-125h119q6 0 6 -6v-119h125v119q0 6 6 6h119v125h-119q-6 0 -6 6v119 h-119q-6 0 -6 6v113q0 6 6 6h363q6 0 6 -6v-119h119q6 0 6 -6v-238q0 -6 -6 -6h-119v-119q0 -6 -6 -6h-119v-119q0 -6 -6 -6h-488q-6 0 -6 6v119h-119q-6 0 -6 6z" />
<glyph unicode="7" horiz-adv-x="1000" d="M0 -131q0 6 6 6h119v119q0 6 6 6h119v119q0 6 6 6h119v244q0 6 6 6h244v119q0 6 6 6h119v125h-375v-119q0 -6 -6 -6h-119v-119q0 -6 -6 -6h-238q-6 0 -6 6v238q0 6 6 6h119v119q0 6 6 6h863q6 0 6 -6v-238q0 -6 -6 -6h-119v-125h119q6 0 6 -6v-113q0 -6 -6 -6h-369v-119 q0 -6 -6 -6h-119v-119q0 -6 -6 -6h-119v-119q0 -6 -6 -6h-119v-119q0 -6 -6 -6h-238q-6 0 -6 6v113z" />
<glyph unicode="8" d="M0 131v238q0 6 6 6h119v125h-119q-6 0 -6 6v238q0 6 6 6h119v119q0 6 6 6h119v119q0 6 6 6h488q6 0 6 -6v-119h119q6 0 6 -6v-238q0 -6 -6 -6h-119v-125h119q6 0 6 -6v-238q0 -6 -6 -6h-119v-119q0 -6 -6 -6h-119v-119q0 -6 -6 -6h-488q-6 0 -6 6v119h-119q-6 0 -6 6z M250 250h119q6 0 6 -6v-119h125v119q0 6 6 6h119v125h-375v-125zM250 625h119q6 0 6 -6v-119h125v119q0 6 6 6h119v125h-119q-6 0 -6 6v119h-125v-119q0 -6 -6 -6h-119v-125z" />
<glyph unicode="9" d="M0 -6q0 6 6 6h238q6 0 6 -6v-119h250v119q0 6 6 6h119v250h-119q-6 0 -6 6v113q0 6 6 6h119v125h-119q-6 0 -6 6v119h-125v-119q0 -6 -6 -6h-119v-125h119q6 0 6 -6v-119h119q6 0 6 -6v-113q0 -6 -6 -6h-363q-6 0 -6 6v119h-119q-6 0 -6 6v238q0 6 6 6h119v119q0 6 6 6 h119v119q0 6 6 6h488q6 0 6 -6v-119h119q6 0 6 -6v-613q0 -6 -6 -6h-119v-119q0 -6 -6 -6h-119v-119q0 -6 -6 -6h-488q-6 0 -6 6v119h-119q-6 0 -6 6v113z" />
<glyph unicode=":" horiz-adv-x="500" d="M125 6v238q0 6 6 6h238q6 0 6 -6v-238q0 -6 -6 -6h-238q-6 0 -6 6zM125 506v238q0 6 6 6h238q6 0 6 -6v-238q0 -6 -6 -6h-238q-6 0 -6 6z" />
<glyph unicode=";" horiz-adv-x="500" d="M125 6v238q0 6 6 6h238q6 0 6 -6v-363q0 -6 -6 -6h-113q-6 0 -6 6v119h-119q-6 0 -6 6zM125 -131q0 6 6 6h113q6 0 6 -6v-113q0 -6 -6 -6h-113q-6 0 -6 6v113zM125 506v238q0 6 6 6h238q6 0 6 -6v-238q0 -6 -6 -6h-238q-6 0 -6 6z" />
<glyph unicode="&#x3c;" d="M125 256v238q0 6 6 6h119v119q0 6 6 6h119v119q0 6 6 6h119v119q0 6 6 6h119v119q0 6 6 6h238q6 0 6 -6v-113q0 -6 -6 -6h-119v-119q0 -6 -6 -6h-119v-119q0 -6 -6 -6h-119v-119q0 -6 -6 -6h-119v-250h119q6 0 6 -6v-119h119q6 0 6 -6v-119h119q6 0 6 -6v-119h119 q6 0 6 -6v-113q0 -6 -6 -6h-238q-6 0 -6 6v119h-119q-6 0 -6 6v119h-119q-6 0 -6 6v119h-119q-6 0 -6 6v119h-119q-6 0 -6 6z" />
<glyph unicode="=" horiz-adv-x="750" d="M0 6v238q0 6 6 6h738q6 0 6 -6v-238q0 -6 -6 -6h-738q-6 0 -6 6zM0 381v238q0 6 6 6h738q6 0 6 -6v-238q0 -6 -6 -6h-738q-6 0 -6 6z" />
<glyph unicode="&#x3e;" d="M0 -131q0 6 6 6h119v119q0 6 6 6h119v119q0 6 6 6h119v119q0 6 6 6h119v250h-119q-6 0 -6 6v119h-119q-6 0 -6 6v119h-119q-6 0 -6 6v119h-119q-6 0 -6 6v113q0 6 6 6h238q6 0 6 -6v-119h119q6 0 6 -6v-119h119q6 0 6 -6v-119h119q6 0 6 -6v-119h119q6 0 6 -6v-238 q0 -6 -6 -6h-119v-119q0 -6 -6 -6h-119v-119q0 -6 -6 -6h-119v-119q0 -6 -6 -6h-119v-119q0 -6 -6 -6h-238q-6 0 -6 6v113z" />
<glyph unicode="?" d="M125 756v238q0 6 6 6h119v119q0 6 6 6h488q6 0 6 -6v-119h119q6 0 6 -6v-238q0 -6 -6 -6h-119v-119q0 -6 -6 -6h-119v-119q0 -6 -6 -6h-119v-119q0 -6 -6 -6h-238q-6 0 -6 6v113q0 6 6 6h119v119q0 6 6 6h119v119q0 6 6 6h119v125h-119q-6 0 -6 6v119h-125v-244 q0 -6 -6 -6h-238q-6 0 -6 6zM250 6v238q0 6 6 6h238q6 0 6 -6v-238q0 -6 -6 -6h-238q-6 0 -6 6z" />
<glyph unicode="@" horiz-adv-x="1875" d="M0 -119v738q0 6 6 6h119v119q0 6 6 6h119v119q0 6 6 6h119v119q0 6 6 6h244v119q0 6 6 6h863q6 0 6 -6v-119h244q6 0 6 -6v-119h119q6 0 6 -6v-613q0 -6 -6 -6h-119v-119q0 -6 -6 -6h-119v-119q0 -6 -6 -6h-488q-6 0 -6 6v119h-119q-6 0 -6 6v113q0 6 6 6h119v250h-119 q-6 0 -6 6v113q0 6 6 6h119v119q0 6 6 6h238q6 0 6 -6v-619h125v119q0 6 6 6h119v500h-119q-6 0 -6 6v119h-119q-6 0 -6 6v119h-625v-119q0 -6 -6 -6h-244v-119q0 -6 -6 -6h-119v-119q0 -6 -6 -6h-119v-625h119q6 0 6 -6v-119h119q6 0 6 -6v-119h500v119q0 6 6 6h238 q6 0 6 -6v-238q0 -6 -6 -6h-863q-6 0 -6 6v119h-244q-6 0 -6 6v119h-119q-6 0 -6 6zM500 131v363q0 6 6 6h119v119q0 6 6 6h119v119q0 6 6 6h238q6 0 6 -6v-113q0 -6 -6 -6h-119v-119q0 -6 -6 -6h-119v-250h119q6 0 6 -6v-119h119q6 0 6 -6v-113q0 -6 -6 -6h-363q-6 0 -6 6 v119h-119q-6 0 -6 6z" />
<glyph unicode="A" horiz-adv-x="1375" d="M0 -6q0 6 6 6h119v119q0 6 6 6h119v119q0 6 6 6h119v119q0 6 6 6h119v119q0 6 6 6h119v119q0 6 6 6h119v119q0 6 6 6h119v119q0 6 6 6h119v119q0 6 6 6h363q6 0 6 -6v-113q0 -6 -6 -6h-119v-750h119q6 0 6 -6v-113q0 -6 -6 -6h-363q-6 0 -6 6v244h-500v-119q0 -6 -6 -6 h-119v-119q0 -6 -6 -6h-119v-119q0 -6 -6 -6h-238q-6 0 -6 6v113zM750 375h250v250h-125v-119q0 -6 -6 -6h-119v-125z" />
<glyph unicode="B" horiz-adv-x="1250" d="M0 631v238q0 6 6 6h119v119q0 6 6 6h988q6 0 6 -6v-119h119q6 0 6 -6v-238q0 -6 -6 -6h-119v-125h119q6 0 6 -6v-238q0 -6 -6 -6h-119v-119q0 -6 -6 -6h-119v-119q0 -6 -6 -6h-613q-6 0 -6 6v113q0 6 6 6h119v750h-125v-119q0 -6 -6 -6h-119v-119q0 -6 -6 -6h-238 q-6 0 -6 6zM750 125h125v119q0 6 6 6h119v250h-250v-375zM750 625h250v125h-119q-6 0 -6 6v119h-125v-250z" />
<glyph unicode="C" d="M0 131v613q0 6 6 6h119v119q0 6 6 6h119v119q0 6 6 6h488q6 0 6 -6v-119h119q6 0 6 -6v-238q0 -6 -6 -6h-238q-6 0 -6 6v119h-119q-6 0 -6 6v119h-125v-119q0 -6 -6 -6h-119v-500h119q6 0 6 -6v-119h250v119q0 6 6 6h238q6 0 6 -6v-113q0 -6 -6 -6h-119v-119q0 -6 -6 -6 h-613q-6 0 -6 6v119h-119q-6 0 -6 6z" />
<glyph unicode="D" horiz-adv-x="1250" d="M0 631v238q0 6 6 6h119v119q0 6 6 6h988q6 0 6 -6v-119h119q6 0 6 -6v-613q0 -6 -6 -6h-119v-119q0 -6 -6 -6h-119v-119q0 -6 -6 -6h-613q-6 0 -6 6v113q0 6 6 6h119v750h-125v-119q0 -6 -6 -6h-119v-119q0 -6 -6 -6h-238q-6 0 -6 6zM750 125h125v119q0 6 6 6h119v500 h-119q-6 0 -6 6v119h-125v-750z" />
<glyph unicode="E" d="M0 131v238q0 6 6 6h119v125h-119q-6 0 -6 6v238q0 6 6 6h119v119q0 6 6 6h119v119q0 6 6 6h488q6 0 6 -6v-119h119q6 0 6 -6v-238q0 -6 -6 -6h-238q-6 0 -6 6v119h-119q-6 0 -6 6v119h-125v-119q0 -6 -6 -6h-119v-125h244q6 0 6 -6v-113q0 -6 -6 -6h-119v-119q0 -6 -6 -6 h-119v-125h119q6 0 6 -6v-119h250v119q0 6 6 6h238q6 0 6 -6v-113q0 -6 -6 -6h-119v-119q0 -6 -6 -6h-613q-6 0 -6 6v119h-119q-6 0 -6 6z" />
<glyph unicode="F" horiz-adv-x="1250" d="M0 631v238q0 6 6 6h119v119q0 6 6 6h1113q6 0 6 -6v-238q0 -6 -6 -6h-238q-6 0 -6 6v119h-250v-250h369q6 0 6 -6v-113q0 -6 -6 -6h-369v-375h119q6 0 6 -6v-113q0 -6 -6 -6h-488q-6 0 -6 6v113q0 6 6 6h119v750h-125v-119q0 -6 -6 -6h-119v-119q0 -6 -6 -6h-238 q-6 0 -6 6z" />
<glyph unicode="G" d="M0 131v613q0 6 6 6h119v119q0 6 6 6h119v119q0 6 6 6h488q6 0 6 -6v-119h119q6 0 6 -6v-238q0 -6 -6 -6h-238q-6 0 -6 6v119h-119q-6 0 -6 6v119h-125v-119q0 -6 -6 -6h-119v-500h119q6 0 6 -6v-119h250v250h-244q-6 0 -6 6v113q0 6 6 6h488q6 0 6 -6v-738q0 -6 -6 -6 h-119v-119q0 -6 -6 -6h-363q-6 0 -6 6v113q0 6 6 6h119v119q0 6 6 6h119v125h-494q-6 0 -6 6v119h-119q-6 0 -6 6z" />
<glyph unicode="H" horiz-adv-x="1375" d="M0 631v238q0 6 6 6h119v119q0 6 6 6h613q6 0 6 -6v-369h250v369q0 6 6 6h119v119q0 6 6 6h238q6 0 6 -6v-238q0 -6 -6 -6h-119v-750h119q6 0 6 -6v-113q0 -6 -6 -6h-363q-6 0 -6 6v494h-250v-494q0 -6 -6 -6h-119v-119q0 -6 -6 -6h-363q-6 0 -6 6v113q0 6 6 6h119v119 q0 6 6 6h119v750h-125v-119q0 -6 -6 -6h-119v-119q0 -6 -6 -6h-238q-6 0 -6 6z" />
<glyph unicode="I" d="M0 631v238q0 6 6 6h119v119q0 6 6 6h738q6 0 6 -6v-113q0 -6 -6 -6h-119v-750h119q6 0 6 -6v-113q0 -6 -6 -6h-488q-6 0 -6 6v113q0 6 6 6h119v750h-125v-119q0 -6 -6 -6h-119v-119q0 -6 -6 -6h-238q-6 0 -6 6z" />
<glyph unicode="J" horiz-adv-x="1000" d="M0 -119v238q0 6 6 6h238q6 0 6 -6v-119h119q6 0 6 -6v-119h125v119q0 6 6 6h119v875h-125v-119q0 -6 -6 -6h-119v-119q0 -6 -6 -6h-238q-6 0 -6 6v238q0 6 6 6h119v119q0 6 6 6h738q6 0 6 -6v-113q0 -6 -6 -6h-119v-869q0 -6 -6 -6h-119v-119q0 -6 -6 -6h-119v-119 q0 -6 -6 -6h-488q-6 0 -6 6v119h-119q-6 0 -6 6z" />
<glyph unicode="K" horiz-adv-x="1625" d="M0 631v238q0 6 6 6h119v119q0 6 6 6h613q6 0 6 -6v-369h125v119q0 6 6 6h119v119q0 6 6 6h119v244q0 6 6 6h238q6 0 6 -6v-238q0 -6 -6 -6h-119v-119q0 -6 -6 -6h-119v-250h119q6 0 6 -6v-119h119q6 0 6 -6v-119h119q6 0 6 -6v-238q0 -6 -6 -6h-238q-6 0 -6 6v119h-119 q-6 0 -6 6v119h-119q-6 0 -6 6v119h-119q-6 0 -6 6v119h-125v-494q0 -6 -6 -6h-119v-119q0 -6 -6 -6h-363q-6 0 -6 6v113q0 6 6 6h119v119q0 6 6 6h119v750h-125v-119q0 -6 -6 -6h-119v-119q0 -6 -6 -6h-238q-6 0 -6 6z" />
<glyph unicode="L" horiz-adv-x="1375" d="M0 631v238q0 6 6 6h119v119q0 6 6 6h738q6 0 6 -6v-113q0 -6 -6 -6h-119v-750h250v119q0 6 6 6h119v119q0 6 6 6h238q6 0 6 -6v-238q0 -6 -6 -6h-119v-119q0 -6 -6 -6h-863q-6 0 -6 6v113q0 6 6 6h119v750h-125v-119q0 -6 -6 -6h-119v-119q0 -6 -6 -6h-238q-6 0 -6 6z " />
<glyph unicode="M" horiz-adv-x="1750" d="M0 631v238q0 6 6 6h119v119q0 6 6 6h613q6 0 6 -6v-119h119q6 0 6 -6v-119h119q6 0 6 -6v-119h125v119q0 6 6 6h119v119q0 6 6 6h119v119q0 6 6 6h119v119q0 6 6 6h238q6 0 6 -6v-238q0 -6 -6 -6h-119v-750h119q6 0 6 -6v-113q0 -6 -6 -6h-363q-6 0 -6 6v619h-125v-119 q0 -6 -6 -6h-119v-119q0 -6 -6 -6h-113q-6 0 -6 6v119h-119q-6 0 -6 6v119h-125v-619q0 -6 -6 -6h-119v-119q0 -6 -6 -6h-363q-6 0 -6 6v113q0 6 6 6h119v119q0 6 6 6h119v750h-125v-119q0 -6 -6 -6h-119v-119q0 -6 -6 -6h-238q-6 0 -6 6z" />
<glyph unicode="N" horiz-adv-x="1500" d="M0 631v238q0 6 6 6h119v119q0 6 6 6h488q6 0 6 -6v-119h119q6 0 6 -6v-119h119q6 0 6 -6v-119h119q6 0 6 -6v-119h125v494q0 6 6 6h119v119q0 6 6 6h238q6 0 6 -6v-238q0 -6 -6 -6h-119v-869q0 -6 -6 -6h-113q-6 0 -6 6v119h-119q-6 0 -6 6v119h-119q-6 0 -6 6v119h-119 q-6 0 -6 6v119h-125v-494q0 -6 -6 -6h-119v-119q0 -6 -6 -6h-363q-6 0 -6 6v113q0 6 6 6h119v119q0 6 6 6h119v750h-125v-119q0 -6 -6 -6h-119v-119q0 -6 -6 -6h-238q-6 0 -6 6z" />
<glyph unicode="O" d="M0 131v613q0 6 6 6h119v119q0 6 6 6h119v119q0 6 6 6h488q6 0 6 -6v-119h119q6 0 6 -6v-613q0 -6 -6 -6h-119v-119q0 -6 -6 -6h-119v-119q0 -6 -6 -6h-488q-6 0 -6 6v119h-119q-6 0 -6 6zM250 250h119q6 0 6 -6v-119h125v119q0 6 6 6h119v500h-119q-6 0 -6 6v119h-125 v-119q0 -6 -6 -6h-119v-500z" />
<glyph unicode="P" horiz-adv-x="1250" d="M0 631v238q0 6 6 6h119v119q0 6 6 6h988q6 0 6 -6v-119h119q6 0 6 -6v-363q0 -6 -6 -6h-119v-119q0 -6 -6 -6h-119v-119q0 -6 -6 -6h-244v-369q0 -6 -6 -6h-119v-119q0 -6 -6 -6h-363q-6 0 -6 6v113q0 6 6 6h119v119q0 6 6 6h119v875h-125v-119q0 -6 -6 -6h-119v-119 q0 -6 -6 -6h-238q-6 0 -6 6zM750 375h125v119q0 6 6 6h119v250h-119q-6 0 -6 6v119h-125v-500z" />
<glyph unicode="Q" d="M0 131v613q0 6 6 6h119v119q0 6 6 6h119v119q0 6 6 6h488q6 0 6 -6v-119h119q6 0 6 -6v-613q0 -6 -6 -6h-119v-119q0 -6 -6 -6h-119v-119q0 -6 -6 -6h-119v-125h369q6 0 6 -6v-238q0 -6 -6 -6h-363q-6 0 -6 6v119h-119q-6 0 -6 6v119h-119q-6 0 -6 6v119h-119q-6 0 -6 6 v119h-119q-6 0 -6 6zM250 250h119q6 0 6 -6v-119h125v119q0 6 6 6h119v500h-119q-6 0 -6 6v119h-125v-119q0 -6 -6 -6h-119v-500z" />
<glyph unicode="R" horiz-adv-x="1375" d="M0 631v238q0 6 6 6h119v119q0 6 6 6h988q6 0 6 -6v-119h119q6 0 6 -6v-363q0 -6 -6 -6h-119v-250h119q6 0 6 -6v-119h119q6 0 6 -6v-238q0 -6 -6 -6h-238q-6 0 -6 6v119h-119q-6 0 -6 6v119h-119q-6 0 -6 6v119h-125v-369q0 -6 -6 -6h-119v-119q0 -6 -6 -6h-363 q-6 0 -6 6v113q0 6 6 6h119v119q0 6 6 6h119v875h-125v-119q0 -6 -6 -6h-119v-119q0 -6 -6 -6h-238q-6 0 -6 6zM750 375h125v119q0 6 6 6h119v250h-119q-6 0 -6 6v119h-125v-500z" />
<glyph unicode="S" horiz-adv-x="1000" d="M0 131v238q0 6 6 6h238q6 0 6 -6v-119h119q6 0 6 -6v-119h250v125h-119q-6 0 -6 6v119h-119q-6 0 -6 6v119h-119q-6 0 -6 6v119h-119q-6 0 -6 6v238q0 6 6 6h119v119q0 6 6 6h613q6 0 6 -6v-119h119q6 0 6 -6v-238q0 -6 -6 -6h-238q-6 0 -6 6v119h-119q-6 0 -6 6v119 h-250v-125h119q6 0 6 -6v-119h119q6 0 6 -6v-119h119q6 0 6 -6v-119h119q6 0 6 -6v-238q0 -6 -6 -6h-119v-119q0 -6 -6 -6h-613q-6 0 -6 6v119h-119q-6 0 -6 6z" />
<glyph unicode="T" horiz-adv-x="1125" d="M0 631v238q0 6 6 6h119v119q0 6 6 6h988q6 0 6 -6v-238q0 -6 -6 -6h-238q-6 0 -6 6v119h-125v-750h119q6 0 6 -6v-113q0 -6 -6 -6h-488q-6 0 -6 6v113q0 6 6 6h119v750h-125v-119q0 -6 -6 -6h-119v-119q0 -6 -6 -6h-238q-6 0 -6 6z" />
<glyph unicode="U" horiz-adv-x="1375" d="M0 631v238q0 6 6 6h119v119q0 6 6 6h613q6 0 6 -6v-744h119q6 0 6 -6v-119h125v119q0 6 6 6h119v744q0 6 6 6h238q6 0 6 -6v-738q0 -6 -6 -6h-119v-119q0 -6 -6 -6h-119v-119q0 -6 -6 -6h-488q-6 0 -6 6v119h-119q-6 0 -6 6v744h-125v-119q0 -6 -6 -6h-119v-119 q0 -6 -6 -6h-238q-6 0 -6 6z" />
<glyph unicode="V" horiz-adv-x="1375" d="M0 631v238q0 6 6 6h119v119q0 6 6 6h738q6 0 6 -6v-113q0 -6 -6 -6h-119v-244q0 -6 -6 -6h-119v-375h119q6 0 6 -6v-119h125v119q0 6 6 6h119v244q0 6 6 6h119v494q0 6 6 6h238q6 0 6 -6v-488q0 -6 -6 -6h-119v-244q0 -6 -6 -6h-119v-119q0 -6 -6 -6h-119v-119 q0 -6 -6 -6h-488q-6 0 -6 6v119h-119q-6 0 -6 6v488q0 6 6 6h119v250h-125v-119q0 -6 -6 -6h-119v-119q0 -6 -6 -6h-238q-6 0 -6 6z" />
<glyph unicode="W" horiz-adv-x="1875" d="M0 631v238q0 6 6 6h119v119q0 6 6 6h613q6 0 6 -6v-363q0 -6 -6 -6h-119v-375h119q6 0 6 -6v-119h125v119q0 6 6 6h119v619q0 6 6 6h119v119q0 6 6 6h113q6 0 6 -6v-744h119q6 0 6 -6v-119h125v119q0 6 6 6h119v500h-119q-6 0 -6 6v238q0 6 6 6h238q6 0 6 -6v-244h119 q6 0 6 -6v-488q0 -6 -6 -6h-119v-119q0 -6 -6 -6h-119v-119q0 -6 -6 -6h-488q-6 0 -6 6v119h-125v-119q0 -6 -6 -6h-488q-6 0 -6 6v119h-119q-6 0 -6 6v488q0 6 6 6h119v250h-125v-119q0 -6 -6 -6h-119v-119q0 -6 -6 -6h-238q-6 0 -6 6z" />
<glyph unicode="X" horiz-adv-x="1500" d="M0 6v238q0 6 6 6h238q6 0 6 -6v-119h125v119q0 6 6 6h119v119q0 6 6 6h119v250h-119q-6 0 -6 6v119h-250v-119q0 -6 -6 -6h-238q-6 0 -6 6v238q0 6 6 6h119v119q0 6 6 6h488q6 0 6 -6v-119h119q6 0 6 -6v-119h119q6 0 6 -6v-119h125v119q0 6 6 6h119v119q0 6 6 6h119v244 q0 6 6 6h238q6 0 6 -6v-238q0 -6 -6 -6h-119v-119q0 -6 -6 -6h-119v-119q0 -6 -6 -6h-119v-250h119q6 0 6 -6v-119h244q6 0 6 -6v-238q0 -6 -6 -6h-363q-6 0 -6 6v119h-119q-6 0 -6 6v119h-119q-6 0 -6 6v119h-125v-119q0 -6 -6 -6h-119v-119q0 -6 -6 -6h-119v-119 q0 -6 -6 -6h-119v-119q0 -6 -6 -6h-238q-6 0 -6 6v119h-119q-6 0 -6 6z" />
<glyph unicode="Y" horiz-adv-x="1375" d="M0 -6q0 6 6 6h238q6 0 6 -6v-119h119q6 0 6 -6v-119h250v119q0 6 6 6h119v125h-119q-6 0 -6 6v119h-119q-6 0 -6 6v744h-125v-119q0 -6 -6 -6h-119v-119q0 -6 -6 -6h-238q-6 0 -6 6v238q0 6 6 6h119v119q0 6 6 6h613q6 0 6 -6v-869h125v119q0 6 6 6h119v244q0 6 6 6h119 v494q0 6 6 6h238q6 0 6 -6v-488q0 -6 -6 -6h-119v-244q0 -6 -6 -6h-119v-244q0 -6 -6 -6h-119v-119q0 -6 -6 -6h-119v-119q0 -6 -6 -6h-119v-119q0 -6 -6 -6h-613q-6 0 -6 6v119h-119q-6 0 -6 6v238z" />
<glyph unicode="Z" horiz-adv-x="1125" d="M0 6v113q0 6 6 6h119v119q0 6 6 6h119v119q0 6 6 6h119v244q0 6 6 6h244v119q0 6 6 6h119v125h-375v-119q0 -6 -6 -6h-119v-119q0 -6 -6 -6h-238q-6 0 -6 6v238q0 6 6 6h119v119q0 6 6 6h988q6 0 6 -6v-113q0 -6 -6 -6h-119v-119q0 -6 -6 -6h-119v-125h119q6 0 6 -6v-113 q0 -6 -6 -6h-369v-119q0 -6 -6 -6h-119v-119q0 -6 -6 -6h-119v-125h119q6 0 6 -6v-119h250v119q0 6 6 6h119v119q0 6 6 6h238q6 0 6 -6v-238q0 -6 -6 -6h-119v-119q0 -6 -6 -6h-613q-6 0 -6 6v119h-369q-6 0 -6 6z" />
<glyph unicode="[" horiz-adv-x="500" d="M0 -119v1113q0 6 6 6h488q6 0 6 -6v-113q0 -6 -6 -6h-244v-875h244q6 0 6 -6v-113q0 -6 -6 -6h-488q-6 0 -6 6z" />
<glyph unicode="\" d="M125 756v238q0 6 6 6h238q6 0 6 -6v-244h119q6 0 6 -6v-244h119q6 0 6 -6v-244h119q6 0 6 -6v-244h119q6 0 6 -6v-238q0 -6 -6 -6h-238q-6 0 -6 6v244h-119q-6 0 -6 6v244h-119q-6 0 -6 6v244h-119q-6 0 -6 6v244h-119q-6 0 -6 6z" />
<glyph unicode="]" horiz-adv-x="500" d="M0 -6q0 6 6 6h244v875h-244q-6 0 -6 6v113q0 6 6 6h488q6 0 6 -6v-1113q0 -6 -6 -6h-488q-6 0 -6 6v113z" />
<glyph unicode="^" horiz-adv-x="750" d="M0 756v113q0 6 6 6h119v119q0 6 6 6h119v119q0 6 6 6h238q6 0 6 -6v-119h119q6 0 6 -6v-119h119q6 0 6 -6v-113q0 -6 -6 -6h-238q-6 0 -6 6v119h-250v-119q0 -6 -6 -6h-238q-6 0 -6 6z" />
<glyph unicode="_" d="M0 -131q0 6 6 6h863q6 0 6 -6v-238q0 -6 -6 -6h-863q-6 0 -6 6v238z" />
<glyph unicode="`" horiz-adv-x="375" d="M0 1006v113q0 6 6 6h238q6 0 6 -6v-119h119q6 0 6 -6v-238q0 -6 -6 -6h-113q-6 0 -6 6v119h-119q-6 0 -6 6v119h-119q-6 0 -6 6z" />
<glyph unicode="a" horiz-adv-x="1000" d="M0 131v363q0 6 6 6h119v119q0 6 6 6h119v119q0 6 6 6h238q6 0 6 -6v-113q0 -6 -6 -6h-119v-119q0 -6 -6 -6h-119v-250h119q6 0 6 -6v-119h119q6 0 6 -6v-113q0 -6 -6 -6h-363q-6 0 -6 6v119h-119q-6 0 -6 6zM500 131v113q0 6 6 6h119v250h-119q-6 0 -6 6v113q0 6 6 6h119 v119q0 6 6 6h238q6 0 6 -6v-619h119q6 0 6 -6v-113q0 -6 -6 -6h-363q-6 0 -6 6v119h-119q-6 0 -6 6z" />
<glyph unicode="b" d="M125 131v863q0 6 6 6h119v119q0 6 6 6h363q6 0 6 -6v-113q0 -6 -6 -6h-119v-119q0 -6 -6 -6h-119v-125h369q6 0 6 -6v-119h119q6 0 6 -6v-363q0 -6 -6 -6h-119v-119q0 -6 -6 -6h-119v-119q0 -6 -6 -6h-363q-6 0 -6 6v119h-119q-6 0 -6 6zM375 125h125v119q0 6 6 6h119 v250h-119q-6 0 -6 6v119h-125v-500z" />
<glyph unicode="c" horiz-adv-x="750" d="M0 131v363q0 6 6 6h119v119q0 6 6 6h119v119q0 6 6 6h363q6 0 6 -6v-119h119q6 0 6 -6v-113q0 -6 -6 -6h-238q-6 0 -6 6v119h-125v-119q0 -6 -6 -6h-119v-250h119q6 0 6 -6v-119h125v119q0 6 6 6h113q6 0 6 -6v-238q0 -6 -6 -6h-488q-6 0 -6 6v119h-119q-6 0 -6 6z" />
<glyph unicode="d" d="M0 131v363q0 6 6 6h119v119q0 6 6 6h119v119q0 6 6 6h244v244q0 6 6 6h119v119q0 6 6 6h363q6 0 6 -6v-113q0 -6 -6 -6h-119v-119q0 -6 -6 -6h-119v-750h119q6 0 6 -6v-113q0 -6 -6 -6h-238q-6 0 -6 6v119h-119q-6 0 -6 6v494h-125v-119q0 -6 -6 -6h-119v-250h119 q6 0 6 -6v-119h119q6 0 6 -6v-113q0 -6 -6 -6h-363q-6 0 -6 6v119h-119q-6 0 -6 6z" />
<glyph unicode="e" horiz-adv-x="750" d="M0 131v363q0 6 6 6h119v119q0 6 6 6h119v119q0 6 6 6h363q6 0 6 -6v-119h119q6 0 6 -6v-113q0 -6 -6 -6h-119v-119q0 -6 -6 -6h-369v-250h250v119q0 6 6 6h113q6 0 6 -6v-238q0 -6 -6 -6h-488q-6 0 -6 6v119h-119q-6 0 -6 6zM375 500h125v125h-125v-125z" />
<glyph unicode="f" horiz-adv-x="625" d="M-125 -256q0 6 6 6h119v119q0 6 6 6h119v750h-119q-6 0 -6 6v113q0 6 6 6h119v244q0 6 6 6h119v119q0 6 6 6h488q6 0 6 -6v-113q0 -6 -6 -6h-244v-119q0 -6 -6 -6h-119v-125h244q6 0 6 -6v-113q0 -6 -6 -6h-244v-869q0 -6 -6 -6h-119v-119q0 -6 -6 -6h-363q-6 0 -6 6v113 z" />
<glyph unicode="g" horiz-adv-x="1000" d="M0 -6q0 6 6 6h238q6 0 6 -6v-119h119q6 0 6 -6v-119h250v119q0 6 6 6h119v125h-119q-6 0 -6 6v119h-494q-6 0 -6 6v119h-119q-6 0 -6 6v238q0 6 6 6h119v119q0 6 6 6h119v119q0 6 6 6h369v119q0 6 6 6h119v119q0 6 6 6h238q6 0 6 -6v-238q0 -6 -6 -6h-244v-125h119 q6 0 6 -6v-238q0 -6 -6 -6h-119v-125h119q6 0 6 -6v-119h119q6 0 6 -6v-238q0 -6 -6 -6h-119v-119q0 -6 -6 -6h-119v-119q0 -6 -6 -6h-613q-6 0 -6 6v119h-119q-6 0 -6 6v238zM250 375h119q6 0 6 -6v-119h125v119q0 6 6 6h119v125h-119q-6 0 -6 6v119h-125v-119q0 -6 -6 -6 h-119v-125z" />
<glyph unicode="h" horiz-adv-x="1000" d="M125 6v988q0 6 6 6h119v119q0 6 6 6h363q6 0 6 -6v-113q0 -6 -6 -6h-119v-119q0 -6 -6 -6h-119v-125h369q6 0 6 -6v-119h119q6 0 6 -6v-494h119q6 0 6 -6v-113q0 -6 -6 -6h-363q-6 0 -6 6v619h-125v-119q0 -6 -6 -6h-119v-494q0 -6 -6 -6h-238q-6 0 -6 6z" />
<glyph unicode="i" horiz-adv-x="500" d="M0 631v113q0 6 6 6h363q6 0 6 -6v-619h119q6 0 6 -6v-113q0 -6 -6 -6h-363q-6 0 -6 6v619h-119q-6 0 -6 6zM250 881v238q0 6 6 6h238q6 0 6 -6v-238q0 -6 -6 -6h-238q-6 0 -6 6z" />
<glyph unicode="j" horiz-adv-x="500" d="M-125 -256q0 6 6 6h119v119q0 6 6 6h119v750h-119q-6 0 -6 6v113q0 6 6 6h363q6 0 6 -6v-988q0 -6 -6 -6h-119v-119q0 -6 -6 -6h-363q-6 0 -6 6v113zM250 881v238q0 6 6 6h238q6 0 6 -6v-238q0 -6 -6 -6h-238q-6 0 -6 6z" />
<glyph unicode="k" horiz-adv-x="1000" d="M125 6v988q0 6 6 6h119v119q0 6 6 6h363q6 0 6 -6v-113q0 -6 -6 -6h-119v-119q0 -6 -6 -6h-119v-250h119q6 0 6 -6v-113q0 -6 -6 -6h-119v-125h250v250h-119q-6 0 -6 6v113q0 6 6 6h238q6 0 6 -6v-119h119q6 0 6 -6v-238q0 -6 -6 -6h-119v-125h119q6 0 6 -6v-119h119 q6 0 6 -6v-113q0 -6 -6 -6h-363q-6 0 -6 6v119h-119q-6 0 -6 6v119h-125v-244q0 -6 -6 -6h-238q-6 0 -6 6z" />
<glyph unicode="l" horiz-adv-x="500" d="M125 6v988q0 6 6 6h119v119q0 6 6 6h363q6 0 6 -6v-113q0 -6 -6 -6h-119v-119q0 -6 -6 -6h-119v-750h119q6 0 6 -6v-113q0 -6 -6 -6h-363q-6 0 -6 6z" />
<glyph unicode="m" horiz-adv-x="1500" d="M0 631v113q0 6 6 6h363q6 0 6 -6v-119h119q6 0 6 -6v-113q0 -6 -6 -6h-119v-494q0 -6 -6 -6h-238q-6 0 -6 6v619h-119q-6 0 -6 6zM500 631v113q0 6 6 6h238q6 0 6 -6v-119h244q6 0 6 -6v-113q0 -6 -6 -6h-119v-494q0 -6 -6 -6h-238q-6 0 -6 6v619h-119q-6 0 -6 6z M1000 631v113q0 6 6 6h238q6 0 6 -6v-119h119q6 0 6 -6v-494h119q6 0 6 -6v-113q0 -6 -6 -6h-363q-6 0 -6 6v619h-119q-6 0 -6 6z" />
<glyph unicode="n" horiz-adv-x="1000" d="M0 631v113q0 6 6 6h363q6 0 6 -6v-119h119q6 0 6 -6v-113q0 -6 -6 -6h-119v-494q0 -6 -6 -6h-238q-6 0 -6 6v619h-119q-6 0 -6 6zM500 631v113q0 6 6 6h238q6 0 6 -6v-119h119q6 0 6 -6v-494h119q6 0 6 -6v-113q0 -6 -6 -6h-363q-6 0 -6 6v619h-119q-6 0 -6 6z" />
<glyph unicode="o" d="M0 131v363q0 6 6 6h119v119q0 6 6 6h119v119q0 6 6 6h488q6 0 6 -6v-119h119q6 0 6 -6v-363q0 -6 -6 -6h-119v-119q0 -6 -6 -6h-119v-119q0 -6 -6 -6h-488q-6 0 -6 6v119h-119q-6 0 -6 6zM250 250h119q6 0 6 -6v-119h125v119q0 6 6 6h119v250h-119q-6 0 -6 6v119h-125 v-119q0 -6 -6 -6h-119v-250z" />
<glyph unicode="p" d="M0 631v113q0 6 6 6h238q6 0 6 -6v-119h119q6 0 6 -6v-494h125v119q0 6 6 6h119v250h-119q-6 0 -6 6v119h-119q-6 0 -6 6v113q0 6 6 6h363q6 0 6 -6v-119h119q6 0 6 -6v-363q0 -6 -6 -6h-119v-119q0 -6 -6 -6h-119v-119q0 -6 -6 -6h-244v-369q0 -6 -6 -6h-238q-6 0 -6 6 v994h-119q-6 0 -6 6z" />
<glyph unicode="q" d="M0 131v363q0 6 6 6h119v119q0 6 6 6h119v119q0 6 6 6h613q6 0 6 -6v-113q0 -6 -6 -6h-119v-994q0 -6 -6 -6h-238q-6 0 -6 6v369h-369q-6 0 -6 6v119h-119q-6 0 -6 6zM250 250h119q6 0 6 -6v-119h125v500h-125v-119q0 -6 -6 -6h-119v-250z" />
<glyph unicode="r" horiz-adv-x="750" d="M0 631v113q0 6 6 6h363q6 0 6 -6v-244h119q6 0 6 -6v-113q0 -6 -6 -6h-119v-369q0 -6 -6 -6h-238q-6 0 -6 6v619h-119q-6 0 -6 6zM500 506v238q0 6 6 6h238q6 0 6 -6v-238q0 -6 -6 -6h-238q-6 0 -6 6z" />
<glyph unicode="s" d="M0 256v113q0 6 6 6h119v119q0 6 6 6h119v119q0 6 6 6h119v119q0 6 6 6h238q6 0 6 -6v-119h119q6 0 6 -6v-488q0 -6 -6 -6h-119v-119q0 -6 -6 -6h-363q-6 0 -6 6v113q0 6 6 6h244v375h-125v-119q0 -6 -6 -6h-119v-119q0 -6 -6 -6h-238q-6 0 -6 6z" />
<glyph unicode="t" horiz-adv-x="625" d="M0 631v113q0 6 6 6h119v119q0 6 6 6h119v119q0 6 6 6h238q6 0 6 -6v-113q0 -6 -6 -6h-119v-125h244q6 0 6 -6v-113q0 -6 -6 -6h-244v-500h125v119q0 6 6 6h113q6 0 6 -6v-238q0 -6 -6 -6h-488q-6 0 -6 6v619h-119q-6 0 -6 6z" />
<glyph unicode="u" horiz-adv-x="1000" d="M0 631v113q0 6 6 6h363q6 0 6 -6v-619h119q6 0 6 -6v-113q0 -6 -6 -6h-238q-6 0 -6 6v119h-119q-6 0 -6 6v494h-119q-6 0 -6 6zM500 131v113q0 6 6 6h119v494q0 6 6 6h238q6 0 6 -6v-619h119q6 0 6 -6v-113q0 -6 -6 -6h-363q-6 0 -6 6v119h-119q-6 0 -6 6z" />
<glyph unicode="v" d="M0 631v113q0 6 6 6h363q6 0 6 -6v-619h125v244q0 6 6 6h119v369q0 6 6 6h238q6 0 6 -6v-363q0 -6 -6 -6h-119v-244q0 -6 -6 -6h-119v-119q0 -6 -6 -6h-488q-6 0 -6 6v619h-119q-6 0 -6 6z" />
<glyph unicode="w" horiz-adv-x="1375" d="M0 631v113q0 6 6 6h363q6 0 6 -6v-619h119q6 0 6 -6v-113q0 -6 -6 -6h-363q-6 0 -6 6v619h-119q-6 0 -6 6zM500 131v238q0 6 6 6h119v369q0 6 6 6h238q6 0 6 -6v-619h119q6 0 6 -6v-113q0 -6 -6 -6h-363q-6 0 -6 6v119h-119q-6 0 -6 6zM1000 131v238q0 6 6 6h119v369 q0 6 6 6h238q6 0 6 -6v-363q0 -6 -6 -6h-119v-244q0 -6 -6 -6h-238q-6 0 -6 6z" />
<glyph unicode="x" d="M0 6v113q0 6 6 6h119v119q0 6 6 6h119v250h-119q-6 0 -6 6v119h-119q-6 0 -6 6v113q0 6 6 6h363q6 0 6 -6v-244h125v119q0 6 6 6h119v119q0 6 6 6h238q6 0 6 -6v-113q0 -6 -6 -6h-119v-119q0 -6 -6 -6h-119v-250h119q6 0 6 -6v-119h119q6 0 6 -6v-113q0 -6 -6 -6h-363 q-6 0 -6 6v244h-125v-119q0 -6 -6 -6h-119v-119q0 -6 -6 -6h-238q-6 0 -6 6z" />
<glyph unicode="y" d="M-125 -256q0 6 6 6h119v119q0 6 6 6h369v125h-244q-6 0 -6 6v619h-119q-6 0 -6 6v113q0 6 6 6h363q6 0 6 -6v-619h125v244q0 6 6 6h119v369q0 6 6 6h238q6 0 6 -6v-363q0 -6 -6 -6h-119v-244q0 -6 -6 -6h-119v-244q0 -6 -6 -6h-119v-119q0 -6 -6 -6h-119v-119q0 -6 -6 -6 h-488q-6 0 -6 6v113z" />
<glyph unicode="z" horiz-adv-x="750" d="M0 6v113q0 6 6 6h119v119q0 6 6 6h119v119q0 6 6 6h119v119q0 6 6 6h119v125h-250v-119q0 -6 -6 -6h-238q-6 0 -6 6v238q0 6 6 6h738q6 0 6 -6v-238q0 -6 -6 -6h-119v-119q0 -6 -6 -6h-119v-119q0 -6 -6 -6h-119v-125h369q6 0 6 -6v-113q0 -6 -6 -6h-738q-6 0 -6 6z" />
<glyph unicode="{" horiz-adv-x="625" d="M0 381v113q0 6 6 6h119v369q0 6 6 6h119v119q0 6 6 6h363q6 0 6 -6v-113q0 -6 -6 -6h-244v-369q0 -6 -6 -6h-119v-125h119q6 0 6 -6v-369h244q6 0 6 -6v-113q0 -6 -6 -6h-363q-6 0 -6 6v119h-119q-6 0 -6 6v369h-119q-6 0 -6 6z" />
<glyph unicode="|" horiz-adv-x="250" d="M0 -244v1238q0 6 6 6h238q6 0 6 -6v-1238q0 -6 -6 -6h-238q-6 0 -6 6z" />
<glyph unicode="}" horiz-adv-x="625" d="M0 -6q0 6 6 6h244v369q0 6 6 6h119v125h-119q-6 0 -6 6v369h-244q-6 0 -6 6v113q0 6 6 6h363q6 0 6 -6v-119h119q6 0 6 -6v-369h119q6 0 6 -6v-113q0 -6 -6 -6h-119v-369q0 -6 -6 -6h-119v-119q0 -6 -6 -6h-363q-6 0 -6 6v113z" />
<glyph unicode="~" horiz-adv-x="1000" d="M125 256v238q0 6 6 6h119v119q0 6 6 6h363q6 0 6 -6v-119h250v119q0 6 6 6h113q6 0 6 -6v-238q0 -6 -6 -6h-119v-119q0 -6 -6 -6h-363q-6 0 -6 6v119h-250v-119q0 -6 -6 -6h-113q-6 0 -6 6z" />
<glyph unicode="&#xa1;" horiz-adv-x="250" d="M0 -369v738q0 6 6 6h238q6 0 6 -6v-738q0 -6 -6 -6h-238q-6 0 -6 6zM0 506v238q0 6 6 6h238q6 0 6 -6v-238q0 -6 -6 -6h-238q-6 0 -6 6z" />
<glyph unicode="&#xa2;" horiz-adv-x="750" d="M0 131v363q0 6 6 6h119v119q0 6 6 6h119v119q0 6 6 6h119v244q0 6 6 6h238q6 0 6 -6v-369h119q6 0 6 -6v-113q0 -6 -6 -6h-238q-6 0 -6 6v119h-125v-119q0 -6 -6 -6h-119v-250h119q6 0 6 -6v-119h125v119q0 6 6 6h113q6 0 6 -6v-238q0 -6 -6 -6h-119v-244q0 -6 -6 -6 h-238q-6 0 -6 6v244h-119q-6 0 -6 6v119h-119q-6 0 -6 6z" />
<glyph unicode="&#xa3;" horiz-adv-x="1125" d="M0 381v113q0 6 6 6h244v369q0 6 6 6h119v119q0 6 6 6h488q6 0 6 -6v-113q0 -6 -6 -6h-119v-119q0 -6 -6 -6h-244v-250h244q6 0 6 -6v-113q0 -6 -6 -6h-244v-250h250v119q0 6 6 6h119v119q0 6 6 6h238q6 0 6 -6v-238q0 -6 -6 -6h-119v-119q0 -6 -6 -6h-863q-6 0 -6 6v113 q0 6 6 6h119v250h-244q-6 0 -6 6z" />
<glyph unicode="&#xa4;" horiz-adv-x="1000" d="M0 -119v238q0 6 6 6h113q6 0 6 -6v-119h119q6 0 6 -6v-113q0 -6 -6 -6h-238q-6 0 -6 6zM0 506v238q0 6 6 6h238q6 0 6 -6v-113q0 -6 -6 -6h-119v-119q0 -6 -6 -6h-113q-6 0 -6 6zM125 131v363q0 6 6 6h119v119q0 6 6 6h488q6 0 6 -6v-119h119q6 0 6 -6v-363q0 -6 -6 -6 h-119v-119q0 -6 -6 -6h-488q-6 0 -6 6v119h-119q-6 0 -6 6zM375 125h250v375h-250v-375zM750 -6q0 6 6 6h119v119q0 6 6 6h113q6 0 6 -6v-238q0 -6 -6 -6h-238q-6 0 -6 6v113zM750 631v113q0 6 6 6h238q6 0 6 -6v-238q0 -6 -6 -6h-113q-6 0 -6 6v119h-119q-6 0 -6 6z" />
<glyph unicode="&#xa5;" horiz-adv-x="1250" d="M0 381v113q0 6 6 6h244v125h-244q-6 0 -6 6v113q0 6 6 6h244v244q0 6 6 6h238q6 0 6 -6v-244h250v244q0 6 6 6h238q6 0 6 -6v-244h244q6 0 6 -6v-113q0 -6 -6 -6h-244v-125h244q6 0 6 -6v-113q0 -6 -6 -6h-369v-119q0 -6 -6 -6h-119v-244q0 -6 -6 -6h-238q-6 0 -6 6v244 h-119q-6 0 -6 6v119h-369q-6 0 -6 6zM500 375h250v250h-250v-250z" />
<glyph unicode="&#xa6;" horiz-adv-x="250" d="M0 -244v488q0 6 6 6h238q6 0 6 -6v-488q0 -6 -6 -6h-238q-6 0 -6 6zM0 506v488q0 6 6 6h238q6 0 6 -6v-488q0 -6 -6 -6h-238q-6 0 -6 6z" />
<glyph unicode="&#xa7;" horiz-adv-x="1125" d="M0 -6q0 6 6 6h238q6 0 6 -6v-119h119q6 0 6 -6v-119h250v125h-119q-6 0 -6 6v119h-119q-6 0 -6 6v119h-119q-6 0 -6 6v119h-119q-6 0 -6 6v238q0 6 6 6h238q6 0 6 -6v-119h119q6 0 6 -6v-119h119q6 0 6 -6v-119h119q6 0 6 -6v-119h119q6 0 6 -6v-238q0 -6 -6 -6h-119 v-119q0 -6 -6 -6h-613q-6 0 -6 6v119h-119q-6 0 -6 6v238zM250 631v238q0 6 6 6h119v119q0 6 6 6h613q6 0 6 -6v-119h119q6 0 6 -6v-238q0 -6 -6 -6h-238q-6 0 -6 6v119h-119q-6 0 -6 6v119h-250v-125h119q6 0 6 -6v-119h119q6 0 6 -6v-119h119q6 0 6 -6v-119h119q6 0 6 -6 v-238q0 -6 -6 -6h-238q-6 0 -6 6v119h-119q-6 0 -6 6v119h-119q-6 0 -6 6v119h-119q-6 0 -6 6v119h-119q-6 0 -6 6z" />
<glyph unicode="&#xa8;" horiz-adv-x="750" d="M0 881v238q0 6 6 6h238q6 0 6 -6v-238q0 -6 -6 -6h-238q-6 0 -6 6zM500 881v238q0 6 6 6h238q6 0 6 -6v-238q0 -6 -6 -6h-238q-6 0 -6 6z" />
<glyph unicode="&#xa9;" horiz-adv-x="2000" d="M0 6v613q0 6 6 6h119v119q0 6 6 6h119v119q0 6 6 6h119v119q0 6 6 6h244v119q0 6 6 6h988q6 0 6 -6v-119h244q6 0 6 -6v-119h119q6 0 6 -6v-613q0 -6 -6 -6h-119v-119q0 -6 -6 -6h-119v-119q0 -6 -6 -6h-119v-119q0 -6 -6 -6h-244v-119q0 -6 -6 -6h-988q-6 0 -6 6v119 h-244q-6 0 -6 6v119h-119q-6 0 -6 6zM250 125h119q6 0 6 -6v-119h119q6 0 6 -6v-119h750v119q0 6 6 6h244v119q0 6 6 6h119v119q0 6 6 6h119v500h-119q-6 0 -6 6v119h-119q-6 0 -6 6v119h-750v-119q0 -6 -6 -6h-244v-119q0 -6 -6 -6h-119v-119q0 -6 -6 -6h-119v-500z M500 131v488q0 6 6 6h119v119q0 6 6 6h119v119q0 6 6 6h488q6 0 6 -6v-119h119q6 0 6 -6v-113q0 -6 -6 -6h-363q-6 0 -6 6v119h-125v-119q0 -6 -6 -6h-119v-375h119q6 0 6 -6v-119h250v119q0 6 6 6h238q6 0 6 -6v-113q0 -6 -6 -6h-119v-119q0 -6 -6 -6h-613q-6 0 -6 6v119 h-119q-6 0 -6 6z" />
<glyph unicode="&#xaa;" horiz-adv-x="1000" d="M0 256v113q0 6 6 6h988q6 0 6 -6v-113q0 -6 -6 -6h-988q-6 0 -6 6zM0 631v238q0 6 6 6h119v119q0 6 6 6h119v119q0 6 6 6h238q6 0 6 -6v-113q0 -6 -6 -6h-119v-119q0 -6 -6 -6h-119v-125h119q6 0 6 -6v-119h119q6 0 6 -6v-113q0 -6 -6 -6h-363q-6 0 -6 6v119h-119 q-6 0 -6 6zM500 631v113q0 6 6 6h119v125h-119q-6 0 -6 6v113q0 6 6 6h119v119q0 6 6 6h238q6 0 6 -6v-494h119q6 0 6 -6v-113q0 -6 -6 -6h-363q-6 0 -6 6v119h-119q-6 0 -6 6z" />
<glyph unicode="&#xab;" horiz-adv-x="1125" d="M125 256v238q0 6 6 6h119v119q0 6 6 6h119v119q0 6 6 6h238q6 0 6 -6v-113q0 -6 -6 -6h-119v-119q0 -6 -6 -6h-119v-250h119q6 0 6 -6v-119h119q6 0 6 -6v-113q0 -6 -6 -6h-238q-6 0 -6 6v119h-119q-6 0 -6 6v119h-119q-6 0 -6 6zM625 256v238q0 6 6 6h119v119q0 6 6 6 h119v119q0 6 6 6h238q6 0 6 -6v-113q0 -6 -6 -6h-119v-119q0 -6 -6 -6h-119v-250h119q6 0 6 -6v-119h119q6 0 6 -6v-113q0 -6 -6 -6h-238q-6 0 -6 6v119h-119q-6 0 -6 6v119h-119q-6 0 -6 6z" />
<glyph unicode="&#xac;" d="M125 256v238q0 6 6 6h738q6 0 6 -6v-488q0 -6 -6 -6h-238q-6 0 -6 6v244h-494q-6 0 -6 6z" />
<glyph unicode="&#xad;" horiz-adv-x="750" d="M125 256v238q0 6 6 6h488q6 0 6 -6v-238q0 -6 -6 -6h-488q-6 0 -6 6z" />
<glyph unicode="&#xae;" horiz-adv-x="2000" d="M0 6v613q0 6 6 6h119v119q0 6 6 6h119v119q0 6 6 6h119v119q0 6 6 6h244v119q0 6 6 6h988q6 0 6 -6v-119h244q6 0 6 -6v-119h119q6 0 6 -6v-613q0 -6 -6 -6h-119v-119q0 -6 -6 -6h-119v-119q0 -6 -6 -6h-119v-119q0 -6 -6 -6h-244v-119q0 -6 -6 -6h-988q-6 0 -6 6v119 h-244q-6 0 -6 6v119h-119q-6 0 -6 6zM250 125h119q6 0 6 -6v-119h119q6 0 6 -6v-119h750v125h-119q-6 0 -6 6v119h-119q-6 0 -6 6v119h-125v-244q0 -6 -6 -6h-238q-6 0 -6 6v738q0 6 6 6h119v119q0 6 6 6h488q6 0 6 -6v-119h119q6 0 6 -6v-238q0 -6 -6 -6h-119v-119 q0 -6 -6 -6h-119v-125h119q6 0 6 -6v-119h119q6 0 6 -6v-119h125v119q0 6 6 6h119v119q0 6 6 6h119v500h-119q-6 0 -6 6v119h-119q-6 0 -6 6v119h-750v-119q0 -6 -6 -6h-244v-119q0 -6 -6 -6h-119v-119q0 -6 -6 -6h-119v-500zM875 375h125v119q0 6 6 6h119v250h-250v-375z " />
<glyph unicode="&#xaf;" horiz-adv-x="500" d="M0 881v238q0 6 6 6h488q6 0 6 -6v-238q0 -6 -6 -6h-488q-6 0 -6 6z" />
<glyph unicode="&#xb0;" d="M125 756v238q0 6 6 6h119v119q0 6 6 6h488q6 0 6 -6v-119h119q6 0 6 -6v-238q0 -6 -6 -6h-119v-119q0 -6 -6 -6h-488q-6 0 -6 6v119h-119q-6 0 -6 6zM375 750h250v250h-250v-250z" />
<glyph unicode="&#xb1;" horiz-adv-x="1000" d="M125 6v238q0 6 6 6h244v250h-244q-6 0 -6 6v238q0 6 6 6h244v244q0 6 6 6h238q6 0 6 -6v-244h244q6 0 6 -6v-238q0 -6 -6 -6h-244v-250h244q6 0 6 -6v-238q0 -6 -6 -6h-738q-6 0 -6 6z" />
<glyph unicode="&#xb2;" horiz-adv-x="500" d="M0 631v238q0 6 6 6h238q6 0 6 -6v-119h244q6 0 6 -6v-113q0 -6 -6 -6h-488q-6 0 -6 6zM125 1006v113q0 6 6 6h363q6 0 6 -6v-238q0 -6 -6 -6h-238q-6 0 -6 6v119h-119q-6 0 -6 6z" />
<glyph unicode="&#xb3;" horiz-adv-x="500" d="M0 631v113q0 6 6 6h363q6 0 6 -6v-113q0 -6 -6 -6h-363q-6 0 -6 6zM0 1006v113q0 6 6 6h488q6 0 6 -6v-363q0 -6 -6 -6h-113q-6 0 -6 6v119h-244q-6 0 -6 6v119h-119q-6 0 -6 6z" />
<glyph unicode="&#xb4;" horiz-adv-x="375" d="M125 756v238q0 6 6 6h119v119q0 6 6 6h238q6 0 6 -6v-113q0 -6 -6 -6h-119v-119q0 -6 -6 -6h-119v-119q0 -6 -6 -6h-113q-6 0 -6 6z" />
<glyph unicode="&#xb5;" horiz-adv-x="1000" d="M0 631v113q0 6 6 6h363q6 0 6 -6v-619h119q6 0 6 -6v-113q0 -6 -6 -6h-119v-369q0 -6 -6 -6h-238q-6 0 -6 6v994h-119q-6 0 -6 6zM500 131v113q0 6 6 6h119v494q0 6 6 6h238q6 0 6 -6v-619h119q6 0 6 -6v-113q0 -6 -6 -6h-363q-6 0 -6 6v119h-119q-6 0 -6 6z" />
<glyph unicode="&#xb6;" horiz-adv-x="1000" d="M0 381v363q0 6 6 6h119v119q0 6 6 6h119v119q0 6 6 6h363q6 0 6 -6v-113q0 -6 -6 -6h-119v-994q0 -6 -6 -6h-119v-119q0 -6 -6 -6h-238q-6 0 -6 6v113q0 6 6 6h119v375h-119q-6 0 -6 6v119h-119q-6 0 -6 6zM625 -244v1113q0 6 6 6h119v119q0 6 6 6h238q6 0 6 -6v-113 q0 -6 -6 -6h-119v-1119q0 -6 -6 -6h-238q-6 0 -6 6z" />
<glyph unicode="&#xb7;" horiz-adv-x="500" d="M125 256v238q0 6 6 6h238q6 0 6 -6v-238q0 -6 -6 -6h-238q-6 0 -6 6z" />
<glyph unicode="&#xb8;" horiz-adv-x="250" d="M0 -131q0 6 6 6h119v119q0 6 6 6h113q6 0 6 -6v-238q0 -6 -6 -6h-238q-6 0 -6 6v113z" />
<glyph unicode="&#xb9;" horiz-adv-x="250" d="M0 631v488q0 6 6 6h238q6 0 6 -6v-488q0 -6 -6 -6h-238q-6 0 -6 6z" />
<glyph unicode="&#xba;" d="M0 256v113q0 6 6 6h863q6 0 6 -6v-113q0 -6 -6 -6h-863q-6 0 -6 6zM0 631v238q0 6 6 6h119v119q0 6 6 6h119v119q0 6 6 6h488q6 0 6 -6v-119h119q6 0 6 -6v-238q0 -6 -6 -6h-119v-119q0 -6 -6 -6h-119v-119q0 -6 -6 -6h-488q-6 0 -6 6v119h-119q-6 0 -6 6zM250 750h119 q6 0 6 -6v-119h125v119q0 6 6 6h119v125h-119q-6 0 -6 6v119h-125v-119q0 -6 -6 -6h-119v-125z" />
<glyph unicode="&#xbb;" horiz-adv-x="1125" d="M0 6v113q0 6 6 6h119v119q0 6 6 6h119v250h-119q-6 0 -6 6v119h-119q-6 0 -6 6v113q0 6 6 6h238q6 0 6 -6v-119h119q6 0 6 -6v-119h119q6 0 6 -6v-238q0 -6 -6 -6h-119v-119q0 -6 -6 -6h-119v-119q0 -6 -6 -6h-238q-6 0 -6 6zM500 6v113q0 6 6 6h119v119q0 6 6 6h119v250 h-119q-6 0 -6 6v119h-119q-6 0 -6 6v113q0 6 6 6h238q6 0 6 -6v-119h119q6 0 6 -6v-119h119q6 0 6 -6v-238q0 -6 -6 -6h-119v-119q0 -6 -6 -6h-119v-119q0 -6 -6 -6h-238q-6 0 -6 6z" />
<glyph unicode="&#xbc;" horiz-adv-x="1250" d="M0 -6q0 6 6 6h119v119q0 6 6 6h119v119q0 6 6 6h119v119q0 6 6 6h119v119q0 6 6 6h119v119q0 6 6 6h119v119q0 6 6 6h119v119q0 6 6 6h119v119q0 6 6 6h238q6 0 6 -6v-113q0 -6 -6 -6h-119v-119q0 -6 -6 -6h-119v-119q0 -6 -6 -6h-119v-119q0 -6 -6 -6h-119v-119 q0 -6 -6 -6h-119v-119q0 -6 -6 -6h-119v-119q0 -6 -6 -6h-119v-119q0 -6 -6 -6h-119v-119q0 -6 -6 -6h-238q-6 0 -6 6v113zM250 631v488q0 6 6 6h238q6 0 6 -6v-488q0 -6 -6 -6h-238q-6 0 -6 6zM625 -6q0 6 6 6h119v119q0 6 6 6h113q6 0 6 -6v-119h125v125h-119q-6 0 -6 6 v113q0 6 6 6h238q6 0 6 -6v-488q0 -6 -6 -6h-238q-6 0 -6 6v119h-244q-6 0 -6 6v113z" />
<glyph unicode="&#xbd;" horiz-adv-x="1250" d="M0 -6q0 6 6 6h119v119q0 6 6 6h119v119q0 6 6 6h119v119q0 6 6 6h119v119q0 6 6 6h119v119q0 6 6 6h119v119q0 6 6 6h119v119q0 6 6 6h119v119q0 6 6 6h238q6 0 6 -6v-113q0 -6 -6 -6h-119v-119q0 -6 -6 -6h-119v-119q0 -6 -6 -6h-119v-119q0 -6 -6 -6h-119v-119 q0 -6 -6 -6h-119v-119q0 -6 -6 -6h-119v-119q0 -6 -6 -6h-119v-119q0 -6 -6 -6h-119v-119q0 -6 -6 -6h-238q-6 0 -6 6v113zM250 631v488q0 6 6 6h238q6 0 6 -6v-488q0 -6 -6 -6h-238q-6 0 -6 6zM625 -6q0 6 6 6h238q6 0 6 -6v-119h244q6 0 6 -6v-113q0 -6 -6 -6h-488 q-6 0 -6 6v238zM750 131v113q0 6 6 6h363q6 0 6 -6v-238q0 -6 -6 -6h-238q-6 0 -6 6v119h-119q-6 0 -6 6z" />
<glyph unicode="&#xbe;" horiz-adv-x="1250" d="M0 -6q0 6 6 6h119v119q0 6 6 6h119v119q0 6 6 6h119v119q0 6 6 6h119v119q0 6 6 6h119v119q0 6 6 6h119v119q0 6 6 6h119v119q0 6 6 6h119v119q0 6 6 6h238q6 0 6 -6v-113q0 -6 -6 -6h-119v-119q0 -6 -6 -6h-119v-119q0 -6 -6 -6h-119v-119q0 -6 -6 -6h-119v-119 q0 -6 -6 -6h-119v-119q0 -6 -6 -6h-119v-119q0 -6 -6 -6h-119v-119q0 -6 -6 -6h-119v-119q0 -6 -6 -6h-238q-6 0 -6 6v113zM125 631v113q0 6 6 6h363q6 0 6 -6v-113q0 -6 -6 -6h-363q-6 0 -6 6zM125 1006v113q0 6 6 6h488q6 0 6 -6v-363q0 -6 -6 -6h-113q-6 0 -6 6v119h-244 q-6 0 -6 6v119h-119q-6 0 -6 6zM625 -6q0 6 6 6h119v119q0 6 6 6h113q6 0 6 -6v-119h125v125h-119q-6 0 -6 6v113q0 6 6 6h238q6 0 6 -6v-488q0 -6 -6 -6h-238q-6 0 -6 6v119h-244q-6 0 -6 6v113z" />
<glyph unicode="&#xbf;" horiz-adv-x="750" d="M0 -6q0 6 6 6h119v119q0 6 6 6h119v119q0 6 6 6h119v119q0 6 6 6h238q6 0 6 -6v-113q0 -6 -6 -6h-119v-119q0 -6 -6 -6h-119v-119q0 -6 -6 -6h-119v-125h119q6 0 6 -6v-119h125v244q0 6 6 6h238q6 0 6 -6v-238q0 -6 -6 -6h-119v-119q0 -6 -6 -6h-488q-6 0 -6 6v119h-119 q-6 0 -6 6v238zM375 506v238q0 6 6 6h238q6 0 6 -6v-238q0 -6 -6 -6h-238q-6 0 -6 6z" />
<glyph unicode="&#xc0;" horiz-adv-x="1375" d="M0 -6q0 6 6 6h119v119q0 6 6 6h119v119q0 6 6 6h119v119q0 6 6 6h119v119q0 6 6 6h119v119q0 6 6 6h119v119q0 6 6 6h244v125h-119q-6 0 -6 6v119h-119q-6 0 -6 6v113q0 6 6 6h238q6 0 6 -6v-119h119q6 0 6 -6v-244h244q6 0 6 -6v-113q0 -6 -6 -6h-119v-500h119q6 0 6 -6 v-113q0 -6 -6 -6h-363q-6 0 -6 6v244h-500v-119q0 -6 -6 -6h-119v-119q0 -6 -6 -6h-119v-119q0 -6 -6 -6h-238q-6 0 -6 6v113zM750 375h250v250h-125v-119q0 -6 -6 -6h-119v-125z" />
<glyph unicode="&#xc1;" horiz-adv-x="1375" d="M0 -6q0 6 6 6h119v119q0 6 6 6h119v119q0 6 6 6h119v119q0 6 6 6h119v119q0 6 6 6h119v119q0 6 6 6h119v119q0 6 6 6h244v244q0 6 6 6h119v119q0 6 6 6h238q6 0 6 -6v-113q0 -6 -6 -6h-119v-119q0 -6 -6 -6h-119v-125h244q6 0 6 -6v-113q0 -6 -6 -6h-119v-500h119 q6 0 6 -6v-113q0 -6 -6 -6h-363q-6 0 -6 6v244h-500v-119q0 -6 -6 -6h-119v-119q0 -6 -6 -6h-119v-119q0 -6 -6 -6h-238q-6 0 -6 6v113zM750 375h250v250h-125v-119q0 -6 -6 -6h-119v-125z" />
<glyph unicode="&#xc2;" horiz-adv-x="1375" d="M0 -6q0 6 6 6h119v119q0 6 6 6h119v119q0 6 6 6h119v119q0 6 6 6h119v119q0 6 6 6h119v119q0 6 6 6h119v119q0 6 6 6h613q6 0 6 -6v-113q0 -6 -6 -6h-119v-500h119q6 0 6 -6v-113q0 -6 -6 -6h-363q-6 0 -6 6v244h-500v-119q0 -6 -6 -6h-119v-119q0 -6 -6 -6h-119v-119 q0 -6 -6 -6h-238q-6 0 -6 6v113zM750 375h250v250h-125v-119q0 -6 -6 -6h-119v-125zM750 881v113q0 6 6 6h119v119q0 6 6 6h363q6 0 6 -6v-119h119q6 0 6 -6v-113q0 -6 -6 -6h-238q-6 0 -6 6v119h-125v-119q0 -6 -6 -6h-238q-6 0 -6 6z" />
<glyph unicode="&#xc3;" horiz-adv-x="1375" d="M0 -6q0 6 6 6h119v119q0 6 6 6h119v119q0 6 6 6h119v119q0 6 6 6h119v119q0 6 6 6h119v119q0 6 6 6h119v119q0 6 6 6h613q6 0 6 -6v-113q0 -6 -6 -6h-119v-500h119q6 0 6 -6v-113q0 -6 -6 -6h-363q-6 0 -6 6v244h-500v-119q0 -6 -6 -6h-119v-119q0 -6 -6 -6h-119v-119 q0 -6 -6 -6h-238q-6 0 -6 6v113zM750 375h250v250h-125v-119q0 -6 -6 -6h-119v-125zM750 881v238q0 6 6 6h363q6 0 6 -6v-119h125v119q0 6 6 6h113q6 0 6 -6v-238q0 -6 -6 -6h-363q-6 0 -6 6v119h-125v-119q0 -6 -6 -6h-113q-6 0 -6 6z" />
<glyph unicode="&#xc4;" horiz-adv-x="1375" d="M0 -6q0 6 6 6h119v119q0 6 6 6h119v119q0 6 6 6h119v119q0 6 6 6h119v119q0 6 6 6h119v119q0 6 6 6h119v119q0 6 6 6h613q6 0 6 -6v-113q0 -6 -6 -6h-119v-500h119q6 0 6 -6v-113q0 -6 -6 -6h-363q-6 0 -6 6v244h-500v-119q0 -6 -6 -6h-119v-119q0 -6 -6 -6h-119v-119 q0 -6 -6 -6h-238q-6 0 -6 6v113zM750 375h250v250h-125v-119q0 -6 -6 -6h-119v-125zM750 881v238q0 6 6 6h238q6 0 6 -6v-238q0 -6 -6 -6h-238q-6 0 -6 6zM1125 881v238q0 6 6 6h238q6 0 6 -6v-238q0 -6 -6 -6h-238q-6 0 -6 6z" />
<glyph unicode="&#xc5;" horiz-adv-x="1375" d="M0 -6q0 6 6 6h119v119q0 6 6 6h119v119q0 6 6 6h119v119q0 6 6 6h119v119q0 6 6 6h119v119q0 6 6 6h119v125h-119q-6 0 -6 6v238q0 6 6 6h119v119q0 6 6 6h488q6 0 6 -6v-119h119q6 0 6 -6v-238q0 -6 -6 -6h-119v-625h119q6 0 6 -6v-113q0 -6 -6 -6h-363q-6 0 -6 6v244 h-500v-119q0 -6 -6 -6h-119v-119q0 -6 -6 -6h-119v-119q0 -6 -6 -6h-238q-6 0 -6 6v113zM750 375h250v250h-125v-119q0 -6 -6 -6h-119v-125zM875 750h250v250h-250v-250z" />
<glyph unicode="&#xc6;" horiz-adv-x="1750" d="M0 -6q0 6 6 6h119v119q0 6 6 6h119v119q0 6 6 6h119v119q0 6 6 6h119v119q0 6 6 6h119v119q0 6 6 6h119v119q0 6 6 6h119v119q0 6 6 6h119v119q0 6 6 6h613q6 0 6 -6v-119h119q6 0 6 -6v-238q0 -6 -6 -6h-238q-6 0 -6 6v119h-119q-6 0 -6 6v119h-125v-119q0 -6 -6 -6 h-119v-125h244q6 0 6 -6v-113q0 -6 -6 -6h-119v-119q0 -6 -6 -6h-119v-125h119q6 0 6 -6v-119h250v119q0 6 6 6h238q6 0 6 -6v-113q0 -6 -6 -6h-119v-119q0 -6 -6 -6h-613q-6 0 -6 6v244h-500v-119q0 -6 -6 -6h-119v-119q0 -6 -6 -6h-119v-119q0 -6 -6 -6h-238q-6 0 -6 6 v113zM750 375h250v250h-125v-119q0 -6 -6 -6h-119v-125z" />
<glyph unicode="&#xc7;" d="M0 131v613q0 6 6 6h119v119q0 6 6 6h119v119q0 6 6 6h488q6 0 6 -6v-119h119q6 0 6 -6v-238q0 -6 -6 -6h-238q-6 0 -6 6v119h-119q-6 0 -6 6v119h-125v-119q0 -6 -6 -6h-119v-500h119q6 0 6 -6v-119h250v119q0 6 6 6h238q6 0 6 -6v-113q0 -6 -6 -6h-119v-119q0 -6 -6 -6 h-119v-244q0 -6 -6 -6h-238q-6 0 -6 6v113q0 6 6 6h119v125h-369q-6 0 -6 6v119h-119q-6 0 -6 6z" />
<glyph unicode="&#xc8;" d="M0 131v113q0 6 6 6h119v125h-119q-6 0 -6 6v238q0 6 6 6h244v119q0 6 6 6h119v125h-119q-6 0 -6 6v119h-119q-6 0 -6 6v113q0 6 6 6h238q6 0 6 -6v-119h119q6 0 6 -6v-244h244q6 0 6 -6v-119h119q6 0 6 -6v-113q0 -6 -6 -6h-238q-6 0 -6 6v119h-250v-125h119q6 0 6 -6 v-113q0 -6 -6 -6h-119v-250h250v119q0 6 6 6h238q6 0 6 -6v-113q0 -6 -6 -6h-119v-119q0 -6 -6 -6h-613q-6 0 -6 6v119h-119q-6 0 -6 6z" />
<glyph unicode="&#xc9;" d="M0 131v113q0 6 6 6h119v125h-119q-6 0 -6 6v238q0 6 6 6h244v119q0 6 6 6h244v244q0 6 6 6h119v119q0 6 6 6h238q6 0 6 -6v-113q0 -6 -6 -6h-119v-119q0 -6 -6 -6h-119v-125h119q6 0 6 -6v-119h119q6 0 6 -6v-113q0 -6 -6 -6h-238q-6 0 -6 6v119h-250v-125h119q6 0 6 -6 v-113q0 -6 -6 -6h-119v-250h250v119q0 6 6 6h238q6 0 6 -6v-113q0 -6 -6 -6h-119v-119q0 -6 -6 -6h-613q-6 0 -6 6v119h-119q-6 0 -6 6z" />
<glyph unicode="&#xca;" d="M0 131v113q0 6 6 6h119v125h-119q-6 0 -6 6v238q0 6 6 6h244v119q0 6 6 6h488q6 0 6 -6v-119h119q6 0 6 -6v-113q0 -6 -6 -6h-238q-6 0 -6 6v119h-250v-125h119q6 0 6 -6v-113q0 -6 -6 -6h-119v-250h250v119q0 6 6 6h238q6 0 6 -6v-113q0 -6 -6 -6h-119v-119q0 -6 -6 -6 h-613q-6 0 -6 6v119h-119q-6 0 -6 6zM125 881v113q0 6 6 6h119v119q0 6 6 6h363q6 0 6 -6v-119h119q6 0 6 -6v-113q0 -6 -6 -6h-238q-6 0 -6 6v119h-125v-119q0 -6 -6 -6h-238q-6 0 -6 6z" />
<glyph unicode="&#xcb;" d="M0 131v113q0 6 6 6h119v125h-119q-6 0 -6 6v238q0 6 6 6h244v119q0 6 6 6h488q6 0 6 -6v-119h119q6 0 6 -6v-113q0 -6 -6 -6h-238q-6 0 -6 6v119h-250v-125h119q6 0 6 -6v-113q0 -6 -6 -6h-119v-250h250v119q0 6 6 6h238q6 0 6 -6v-113q0 -6 -6 -6h-119v-119q0 -6 -6 -6 h-613q-6 0 -6 6v119h-119q-6 0 -6 6zM250 881v238q0 6 6 6h238q6 0 6 -6v-238q0 -6 -6 -6h-238q-6 0 -6 6zM625 881v238q0 6 6 6h238q6 0 6 -6v-238q0 -6 -6 -6h-238q-6 0 -6 6z" />
<glyph unicode="&#xcc;" d="M0 381v238q0 6 6 6h119v119q0 6 6 6h369v125h-119q-6 0 -6 6v119h-119q-6 0 -6 6v113q0 6 6 6h238q6 0 6 -6v-119h119q6 0 6 -6v-244h244q6 0 6 -6v-113q0 -6 -6 -6h-119v-500h119q6 0 6 -6v-113q0 -6 -6 -6h-488q-6 0 -6 6v113q0 6 6 6h119v500h-125v-119q0 -6 -6 -6 h-119v-119q0 -6 -6 -6h-238q-6 0 -6 6z" />
<glyph unicode="&#xcd;" d="M0 381v238q0 6 6 6h119v119q0 6 6 6h369v244q0 6 6 6h119v119q0 6 6 6h238q6 0 6 -6v-113q0 -6 -6 -6h-119v-119q0 -6 -6 -6h-119v-125h244q6 0 6 -6v-113q0 -6 -6 -6h-119v-500h119q6 0 6 -6v-113q0 -6 -6 -6h-488q-6 0 -6 6v113q0 6 6 6h119v500h-125v-119q0 -6 -6 -6 h-119v-119q0 -6 -6 -6h-238q-6 0 -6 6z" />
<glyph unicode="&#xce;" d="M0 381v238q0 6 6 6h119v119q0 6 6 6h738q6 0 6 -6v-113q0 -6 -6 -6h-119v-500h119q6 0 6 -6v-113q0 -6 -6 -6h-488q-6 0 -6 6v113q0 6 6 6h119v500h-125v-119q0 -6 -6 -6h-119v-119q0 -6 -6 -6h-238q-6 0 -6 6zM250 881v113q0 6 6 6h119v119q0 6 6 6h363q6 0 6 -6v-119 h119q6 0 6 -6v-113q0 -6 -6 -6h-238q-6 0 -6 6v119h-125v-119q0 -6 -6 -6h-238q-6 0 -6 6z" />
<glyph unicode="&#xcf;" d="M0 381v238q0 6 6 6h119v119q0 6 6 6h738q6 0 6 -6v-113q0 -6 -6 -6h-119v-500h119q6 0 6 -6v-113q0 -6 -6 -6h-488q-6 0 -6 6v113q0 6 6 6h119v500h-125v-119q0 -6 -6 -6h-119v-119q0 -6 -6 -6h-238q-6 0 -6 6zM250 881v238q0 6 6 6h238q6 0 6 -6v-238q0 -6 -6 -6h-238 q-6 0 -6 6zM625 881v238q0 6 6 6h238q6 0 6 -6v-238q0 -6 -6 -6h-238q-6 0 -6 6z" />
<glyph unicode="&#xd0;" horiz-adv-x="1250" d="M0 631v238q0 6 6 6h119v119q0 6 6 6h988q6 0 6 -6v-119h119q6 0 6 -6v-613q0 -6 -6 -6h-119v-119q0 -6 -6 -6h-119v-119q0 -6 -6 -6h-613q-6 0 -6 6v113q0 6 6 6h119v250h-369q-6 0 -6 6v113q0 6 6 6h369v375h-125v-119q0 -6 -6 -6h-119v-119q0 -6 -6 -6h-238q-6 0 -6 6z M750 125h125v119q0 6 6 6h119v500h-119q-6 0 -6 6v119h-125v-375h119q6 0 6 -6v-113q0 -6 -6 -6h-119v-250z" />
<glyph unicode="&#xd1;" horiz-adv-x="1375" d="M0 381v238q0 6 6 6h119v119q0 6 6 6h488q6 0 6 -6v-119h119q6 0 6 -6v-119h119q6 0 6 -6v-119h125v369q0 6 6 6h119v119q0 6 6 6h238q6 0 6 -6v-238q0 -6 -6 -6h-119v-619q0 -6 -6 -6h-238q-6 0 -6 6v119h-119q-6 0 -6 6v119h-125v-244q0 -6 -6 -6h-119v-119q0 -6 -6 -6 h-363q-6 0 -6 6v113q0 6 6 6h119v119q0 6 6 6h119v500h-125v-119q0 -6 -6 -6h-119v-119q0 -6 -6 -6h-238q-6 0 -6 6zM375 881v238q0 6 6 6h363q6 0 6 -6v-119h125v119q0 6 6 6h113q6 0 6 -6v-238q0 -6 -6 -6h-363q-6 0 -6 6v119h-125v-119q0 -6 -6 -6h-113q-6 0 -6 6z" />
<glyph unicode="&#xd2;" d="M0 131v488q0 6 6 6h119v119q0 6 6 6h244v125h-119q-6 0 -6 6v119h-119q-6 0 -6 6v113q0 6 6 6h238q6 0 6 -6v-119h119q6 0 6 -6v-244h369q6 0 6 -6v-488q0 -6 -6 -6h-119v-119q0 -6 -6 -6h-119v-119q0 -6 -6 -6h-488q-6 0 -6 6v119h-119q-6 0 -6 6zM250 250h119q6 0 6 -6 v-119h125v119q0 6 6 6h119v375h-375v-375z" />
<glyph unicode="&#xd3;" d="M0 131v488q0 6 6 6h119v119q0 6 6 6h369v244q0 6 6 6h119v119q0 6 6 6h238q6 0 6 -6v-113q0 -6 -6 -6h-119v-119q0 -6 -6 -6h-119v-125h244q6 0 6 -6v-488q0 -6 -6 -6h-119v-119q0 -6 -6 -6h-119v-119q0 -6 -6 -6h-488q-6 0 -6 6v119h-119q-6 0 -6 6zM250 250h119 q6 0 6 -6v-119h125v119q0 6 6 6h119v375h-375v-375z" />
<glyph unicode="&#xd4;" d="M0 131v488q0 6 6 6h119v119q0 6 6 6h738q6 0 6 -6v-488q0 -6 -6 -6h-119v-119q0 -6 -6 -6h-119v-119q0 -6 -6 -6h-488q-6 0 -6 6v119h-119q-6 0 -6 6zM250 250h119q6 0 6 -6v-119h125v119q0 6 6 6h119v375h-375v-375zM250 881v113q0 6 6 6h119v119q0 6 6 6h363q6 0 6 -6 v-119h119q6 0 6 -6v-113q0 -6 -6 -6h-238q-6 0 -6 6v119h-125v-119q0 -6 -6 -6h-238q-6 0 -6 6z" />
<glyph unicode="&#xd5;" d="M0 131v488q0 6 6 6h119v119q0 6 6 6h738q6 0 6 -6v-488q0 -6 -6 -6h-119v-119q0 -6 -6 -6h-119v-119q0 -6 -6 -6h-488q-6 0 -6 6v119h-119q-6 0 -6 6zM250 250h119q6 0 6 -6v-119h125v119q0 6 6 6h119v375h-375v-375zM250 881v238q0 6 6 6h363q6 0 6 -6v-119h125v119 q0 6 6 6h113q6 0 6 -6v-238q0 -6 -6 -6h-363q-6 0 -6 6v119h-125v-119q0 -6 -6 -6h-113q-6 0 -6 6z" />
<glyph unicode="&#xd6;" d="M0 131v488q0 6 6 6h119v119q0 6 6 6h738q6 0 6 -6v-488q0 -6 -6 -6h-119v-119q0 -6 -6 -6h-119v-119q0 -6 -6 -6h-488q-6 0 -6 6v119h-119q-6 0 -6 6zM250 250h119q6 0 6 -6v-119h125v119q0 6 6 6h119v375h-375v-375zM250 881v238q0 6 6 6h238q6 0 6 -6v-238q0 -6 -6 -6 h-238q-6 0 -6 6zM625 881v238q0 6 6 6h238q6 0 6 -6v-238q0 -6 -6 -6h-238q-6 0 -6 6z" />
<glyph unicode="&#xd7;" horiz-adv-x="1000" d="M125 6v238q0 6 6 6h238q6 0 6 -6v-238q0 -6 -6 -6h-238q-6 0 -6 6zM125 506v238q0 6 6 6h238q6 0 6 -6v-238q0 -6 -6 -6h-238q-6 0 -6 6zM375 256v238q0 6 6 6h238q6 0 6 -6v-238q0 -6 -6 -6h-238q-6 0 -6 6zM625 6v238q0 6 6 6h238q6 0 6 -6v-238q0 -6 -6 -6h-238 q-6 0 -6 6zM625 506v238q0 6 6 6h238q6 0 6 -6v-238q0 -6 -6 -6h-238q-6 0 -6 6z" />
<glyph unicode="&#xd8;" d="M0 131v613q0 6 6 6h119v119q0 6 6 6h119v119q0 6 6 6h244v119q0 6 6 6h238q6 0 6 -6v-244h119q6 0 6 -6v-613q0 -6 -6 -6h-119v-119q0 -6 -6 -6h-119v-119q0 -6 -6 -6h-244v-119q0 -6 -6 -6h-238q-6 0 -6 6v244h-119q-6 0 -6 6zM250 250h119q6 0 6 -6v-119h125v119 q0 6 6 6h119v500h-119q-6 0 -6 6v119h-125v-119q0 -6 -6 -6h-119v-500zM375 256v488q0 6 6 6h113q6 0 6 -6v-488q0 -6 -6 -6h-113q-6 0 -6 6z" />
<glyph unicode="&#xd9;" horiz-adv-x="1375" d="M0 381v238q0 6 6 6h119v119q0 6 6 6h613q6 0 6 -6v-494h119q6 0 6 -6v-119h125v119q0 6 6 6h119v494q0 6 6 6h238q6 0 6 -6v-488q0 -6 -6 -6h-119v-119q0 -6 -6 -6h-119v-119q0 -6 -6 -6h-488q-6 0 -6 6v119h-119q-6 0 -6 6v494h-125v-119q0 -6 -6 -6h-119v-119 q0 -6 -6 -6h-238q-6 0 -6 6zM625 1006v113q0 6 6 6h238q6 0 6 -6v-119h119q6 0 6 -6v-238q0 -6 -6 -6h-113q-6 0 -6 6v119h-119q-6 0 -6 6v119h-119q-6 0 -6 6z" />
<glyph unicode="&#xda;" horiz-adv-x="1375" d="M0 381v238q0 6 6 6h119v119q0 6 6 6h613q6 0 6 -6v-494h119q6 0 6 -6v-119h125v119q0 6 6 6h119v494q0 6 6 6h238q6 0 6 -6v-488q0 -6 -6 -6h-119v-119q0 -6 -6 -6h-119v-119q0 -6 -6 -6h-488q-6 0 -6 6v119h-119q-6 0 -6 6v494h-125v-119q0 -6 -6 -6h-119v-119 q0 -6 -6 -6h-238q-6 0 -6 6zM875 756v238q0 6 6 6h119v119q0 6 6 6h238q6 0 6 -6v-113q0 -6 -6 -6h-119v-119q0 -6 -6 -6h-119v-119q0 -6 -6 -6h-113q-6 0 -6 6z" />
<glyph unicode="&#xdb;" horiz-adv-x="1375" d="M0 381v238q0 6 6 6h119v119q0 6 6 6h613q6 0 6 -6v-494h119q6 0 6 -6v-119h125v119q0 6 6 6h119v494q0 6 6 6h238q6 0 6 -6v-488q0 -6 -6 -6h-119v-119q0 -6 -6 -6h-119v-119q0 -6 -6 -6h-488q-6 0 -6 6v119h-119q-6 0 -6 6v494h-125v-119q0 -6 -6 -6h-119v-119 q0 -6 -6 -6h-238q-6 0 -6 6zM625 881v113q0 6 6 6h119v119q0 6 6 6h363q6 0 6 -6v-119h119q6 0 6 -6v-113q0 -6 -6 -6h-238q-6 0 -6 6v119h-125v-119q0 -6 -6 -6h-238q-6 0 -6 6z" />
<glyph unicode="&#xdc;" horiz-adv-x="1375" d="M0 381v238q0 6 6 6h119v119q0 6 6 6h613q6 0 6 -6v-494h119q6 0 6 -6v-119h125v119q0 6 6 6h119v494q0 6 6 6h238q6 0 6 -6v-488q0 -6 -6 -6h-119v-119q0 -6 -6 -6h-119v-119q0 -6 -6 -6h-488q-6 0 -6 6v119h-119q-6 0 -6 6v494h-125v-119q0 -6 -6 -6h-119v-119 q0 -6 -6 -6h-238q-6 0 -6 6zM750 881v238q0 6 6 6h238q6 0 6 -6v-238q0 -6 -6 -6h-238q-6 0 -6 6zM1125 881v238q0 6 6 6h238q6 0 6 -6v-238q0 -6 -6 -6h-238q-6 0 -6 6z" />
<glyph unicode="&#xdd;" horiz-adv-x="1375" d="M0 -6q0 6 6 6h238q6 0 6 -6v-119h119q6 0 6 -6v-119h250v119q0 6 6 6h119v125h-119q-6 0 -6 6v119h-119q-6 0 -6 6v494h-125v-119q0 -6 -6 -6h-119v-119q0 -6 -6 -6h-238q-6 0 -6 6v238q0 6 6 6h119v119q0 6 6 6h613q6 0 6 -6v-619h125v119q0 6 6 6h119v244q0 6 6 6h119 v244q0 6 6 6h238q6 0 6 -6v-238q0 -6 -6 -6h-119v-244q0 -6 -6 -6h-119v-244q0 -6 -6 -6h-119v-119q0 -6 -6 -6h-119v-119q0 -6 -6 -6h-119v-119q0 -6 -6 -6h-613q-6 0 -6 6v119h-119q-6 0 -6 6v238zM875 756v238q0 6 6 6h119v119q0 6 6 6h238q6 0 6 -6v-113q0 -6 -6 -6 h-119v-119q0 -6 -6 -6h-119v-119q0 -6 -6 -6h-113q-6 0 -6 6z" />
<glyph unicode="&#xde;" horiz-adv-x="1250" d="M0 631v238q0 6 6 6h119v119q0 6 6 6h613q6 0 6 -6v-244h369q6 0 6 -6v-119h119q6 0 6 -6v-363q0 -6 -6 -6h-119v-119q0 -6 -6 -6h-119v-119q0 -6 -6 -6h-244v-119q0 -6 -6 -6h-119v-119q0 -6 -6 -6h-363q-6 0 -6 6v113q0 6 6 6h119v119q0 6 6 6h119v875h-125v-119 q0 -6 -6 -6h-119v-119q0 -6 -6 -6h-238q-6 0 -6 6zM750 125h125v119q0 6 6 6h119v250h-119q-6 0 -6 6v119h-125v-500z" />
<glyph unicode="&#xdf;" horiz-adv-x="1000" d="M-125 -256q0 6 6 6h119v119q0 6 6 6h119v750h-119q-6 0 -6 6v113q0 6 6 6h119v244q0 6 6 6h119v119q0 6 6 6h613q6 0 6 -6v-119h119q6 0 6 -6v-238q0 -6 -6 -6h-119v-125h119q6 0 6 -6v-363q0 -6 -6 -6h-119v-119q0 -6 -6 -6h-119v-119q0 -6 -6 -6h-238q-6 0 -6 6v113 q0 6 6 6h119v119q0 6 6 6h119v375h-244q-6 0 -6 6v113q0 6 6 6h244v125h-119q-6 0 -6 6v119h-125v-119q0 -6 -6 -6h-119v-1119q0 -6 -6 -6h-119v-119q0 -6 -6 -6h-363q-6 0 -6 6v113z" />
<glyph unicode="&#xe0;" horiz-adv-x="1000" d="M0 131v363q0 6 6 6h119v119q0 6 6 6h119v119q0 6 6 6h238q6 0 6 -6v-113q0 -6 -6 -6h-119v-119q0 -6 -6 -6h-119v-250h119q6 0 6 -6v-119h119q6 0 6 -6v-113q0 -6 -6 -6h-363q-6 0 -6 6v119h-119q-6 0 -6 6zM250 1006v113q0 6 6 6h238q6 0 6 -6v-119h119q6 0 6 -6v-238 q0 -6 -6 -6h-113q-6 0 -6 6v119h-119q-6 0 -6 6v119h-119q-6 0 -6 6zM500 131v113q0 6 6 6h119v250h-119q-6 0 -6 6v113q0 6 6 6h119v119q0 6 6 6h238q6 0 6 -6v-619h119q6 0 6 -6v-113q0 -6 -6 -6h-363q-6 0 -6 6v119h-119q-6 0 -6 6z" />
<glyph unicode="&#xe1;" horiz-adv-x="1000" d="M0 131v363q0 6 6 6h119v119q0 6 6 6h119v119q0 6 6 6h238q6 0 6 -6v-113q0 -6 -6 -6h-119v-119q0 -6 -6 -6h-119v-250h119q6 0 6 -6v-119h119q6 0 6 -6v-113q0 -6 -6 -6h-363q-6 0 -6 6v119h-119q-6 0 -6 6zM500 131v113q0 6 6 6h119v250h-119q-6 0 -6 6v113q0 6 6 6h119 v119q0 6 6 6h238q6 0 6 -6v-619h119q6 0 6 -6v-113q0 -6 -6 -6h-363q-6 0 -6 6v119h-119q-6 0 -6 6zM500 756v238q0 6 6 6h119v119q0 6 6 6h238q6 0 6 -6v-113q0 -6 -6 -6h-119v-119q0 -6 -6 -6h-119v-119q0 -6 -6 -6h-113q-6 0 -6 6z" />
<glyph unicode="&#xe2;" horiz-adv-x="1000" d="M0 131v363q0 6 6 6h119v119q0 6 6 6h119v119q0 6 6 6h238q6 0 6 -6v-113q0 -6 -6 -6h-119v-119q0 -6 -6 -6h-119v-250h119q6 0 6 -6v-119h119q6 0 6 -6v-113q0 -6 -6 -6h-363q-6 0 -6 6v119h-119q-6 0 -6 6zM250 881v113q0 6 6 6h119v119q0 6 6 6h363q6 0 6 -6v-119h119 q6 0 6 -6v-113q0 -6 -6 -6h-238q-6 0 -6 6v119h-125v-119q0 -6 -6 -6h-238q-6 0 -6 6zM500 131v113q0 6 6 6h119v250h-119q-6 0 -6 6v113q0 6 6 6h119v119q0 6 6 6h238q6 0 6 -6v-619h119q6 0 6 -6v-113q0 -6 -6 -6h-363q-6 0 -6 6v119h-119q-6 0 -6 6z" />
<glyph unicode="&#xe3;" horiz-adv-x="1000" d="M0 131v363q0 6 6 6h119v119q0 6 6 6h119v119q0 6 6 6h238q6 0 6 -6v-113q0 -6 -6 -6h-119v-119q0 -6 -6 -6h-119v-250h119q6 0 6 -6v-119h119q6 0 6 -6v-113q0 -6 -6 -6h-363q-6 0 -6 6v119h-119q-6 0 -6 6zM250 881v238q0 6 6 6h363q6 0 6 -6v-119h125v119q0 6 6 6h113 q6 0 6 -6v-238q0 -6 -6 -6h-363q-6 0 -6 6v119h-125v-119q0 -6 -6 -6h-113q-6 0 -6 6zM500 131v113q0 6 6 6h119v250h-119q-6 0 -6 6v113q0 6 6 6h119v119q0 6 6 6h238q6 0 6 -6v-619h119q6 0 6 -6v-113q0 -6 -6 -6h-363q-6 0 -6 6v119h-119q-6 0 -6 6z" />
<glyph unicode="&#xe4;" horiz-adv-x="1000" d="M0 131v363q0 6 6 6h119v119q0 6 6 6h119v119q0 6 6 6h238q6 0 6 -6v-113q0 -6 -6 -6h-119v-119q0 -6 -6 -6h-119v-250h119q6 0 6 -6v-119h119q6 0 6 -6v-113q0 -6 -6 -6h-363q-6 0 -6 6v119h-119q-6 0 -6 6zM375 881v238q0 6 6 6h238q6 0 6 -6v-238q0 -6 -6 -6h-238 q-6 0 -6 6zM500 131v113q0 6 6 6h119v250h-119q-6 0 -6 6v113q0 6 6 6h119v119q0 6 6 6h238q6 0 6 -6v-619h119q6 0 6 -6v-113q0 -6 -6 -6h-363q-6 0 -6 6v119h-119q-6 0 -6 6zM750 881v238q0 6 6 6h238q6 0 6 -6v-238q0 -6 -6 -6h-238q-6 0 -6 6z" />
<glyph unicode="&#xe5;" horiz-adv-x="1000" d="M0 131v238q0 6 6 6h119v119q0 6 6 6h119v119q0 6 6 6h238q6 0 6 -6v-113q0 -6 -6 -6h-119v-119q0 -6 -6 -6h-119v-125h119q6 0 6 -6v-119h119q6 0 6 -6v-113q0 -6 -6 -6h-363q-6 0 -6 6v119h-119q-6 0 -6 6zM250 881v113q0 6 6 6h119v119q0 6 6 6h363q6 0 6 -6v-119h119 q6 0 6 -6v-113q0 -6 -6 -6h-119v-119q0 -6 -6 -6h-363q-6 0 -6 6v119h-119q-6 0 -6 6zM500 131v113q0 6 6 6h119v125h-119q-6 0 -6 6v113q0 6 6 6h119v119q0 6 6 6h238q6 0 6 -6v-494h119q6 0 6 -6v-113q0 -6 -6 -6h-363q-6 0 -6 6v119h-119q-6 0 -6 6zM500 875h125v125 h-125v-125z" />
<glyph unicode="&#xe6;" horiz-adv-x="1375" d="M0 131v363q0 6 6 6h119v119q0 6 6 6h119v119q0 6 6 6h238q6 0 6 -6v-113q0 -6 -6 -6h-119v-119q0 -6 -6 -6h-119v-250h119q6 0 6 -6v-119h119q6 0 6 -6v-113q0 -6 -6 -6h-363q-6 0 -6 6v119h-119q-6 0 -6 6zM500 131v113q0 6 6 6h119v250h-119q-6 0 -6 6v113q0 6 6 6h119 v119q0 6 6 6h113q6 0 6 -6v-119h125v119q0 6 6 6h363q6 0 6 -6v-119h119q6 0 6 -6v-113q0 -6 -6 -6h-119v-119q0 -6 -6 -6h-369v-250h250v119q0 6 6 6h113q6 0 6 -6v-238q0 -6 -6 -6h-613q-6 0 -6 6v119h-119q-6 0 -6 6zM1000 500h125v125h-125v-125z" />
<glyph unicode="&#xe7;" horiz-adv-x="750" d="M0 131v363q0 6 6 6h119v119q0 6 6 6h119v119q0 6 6 6h363q6 0 6 -6v-119h119q6 0 6 -6v-113q0 -6 -6 -6h-238q-6 0 -6 6v119h-125v-119q0 -6 -6 -6h-119v-250h119q6 0 6 -6v-119h125v119q0 6 6 6h113q6 0 6 -6v-238q0 -6 -6 -6h-119v-244q0 -6 -6 -6h-238q-6 0 -6 6v113 q0 6 6 6h119v125h-244q-6 0 -6 6v119h-119q-6 0 -6 6z" />
<glyph unicode="&#xe8;" horiz-adv-x="750" d="M0 131v363q0 6 6 6h119v119q0 6 6 6h119v119q0 6 6 6h119v125h-119q-6 0 -6 6v119h-119q-6 0 -6 6v113q0 6 6 6h238q6 0 6 -6v-119h119q6 0 6 -6v-244h119q6 0 6 -6v-119h119q6 0 6 -6v-113q0 -6 -6 -6h-119v-119q0 -6 -6 -6h-369v-250h250v119q0 6 6 6h113q6 0 6 -6 v-238q0 -6 -6 -6h-488q-6 0 -6 6v119h-119q-6 0 -6 6zM375 500h125v125h-125v-125z" />
<glyph unicode="&#xe9;" horiz-adv-x="750" d="M0 131v363q0 6 6 6h119v119q0 6 6 6h119v119q0 6 6 6h119v244q0 6 6 6h119v119q0 6 6 6h238q6 0 6 -6v-113q0 -6 -6 -6h-119v-119q0 -6 -6 -6h-119v-125h119q6 0 6 -6v-119h119q6 0 6 -6v-113q0 -6 -6 -6h-119v-119q0 -6 -6 -6h-369v-250h250v119q0 6 6 6h113q6 0 6 -6 v-238q0 -6 -6 -6h-488q-6 0 -6 6v119h-119q-6 0 -6 6zM375 500h125v125h-125v-125z" />
<glyph unicode="&#xea;" horiz-adv-x="750" d="M0 131v363q0 6 6 6h119v119q0 6 6 6h119v119q0 6 6 6h363q6 0 6 -6v-119h119q6 0 6 -6v-113q0 -6 -6 -6h-119v-119q0 -6 -6 -6h-369v-250h250v119q0 6 6 6h113q6 0 6 -6v-238q0 -6 -6 -6h-488q-6 0 -6 6v119h-119q-6 0 -6 6zM125 881v113q0 6 6 6h119v119q0 6 6 6h363 q6 0 6 -6v-119h119q6 0 6 -6v-113q0 -6 -6 -6h-238q-6 0 -6 6v119h-125v-119q0 -6 -6 -6h-238q-6 0 -6 6zM375 500h125v125h-125v-125z" />
<glyph unicode="&#xeb;" horiz-adv-x="750" d="M0 131v363q0 6 6 6h119v119q0 6 6 6h119v119q0 6 6 6h363q6 0 6 -6v-119h119q6 0 6 -6v-113q0 -6 -6 -6h-119v-119q0 -6 -6 -6h-369v-250h250v119q0 6 6 6h113q6 0 6 -6v-238q0 -6 -6 -6h-488q-6 0 -6 6v119h-119q-6 0 -6 6zM125 881v238q0 6 6 6h238q6 0 6 -6v-238 q0 -6 -6 -6h-238q-6 0 -6 6zM375 500h125v125h-125v-125zM500 881v238q0 6 6 6h238q6 0 6 -6v-238q0 -6 -6 -6h-238q-6 0 -6 6z" />
<glyph unicode="&#xec;" horiz-adv-x="500" d="M0 631v113q0 6 6 6h244v125h-119q-6 0 -6 6v119h-119q-6 0 -6 6v113q0 6 6 6h238q6 0 6 -6v-119h119q6 0 6 -6v-869h119q6 0 6 -6v-113q0 -6 -6 -6h-363q-6 0 -6 6v619h-119q-6 0 -6 6z" />
<glyph unicode="&#xed;" horiz-adv-x="500" d="M0 631v113q0 6 6 6h119v244q0 6 6 6h119v119q0 6 6 6h238q6 0 6 -6v-113q0 -6 -6 -6h-119v-119q0 -6 -6 -6h-119v-125h119q6 0 6 -6v-619h119q6 0 6 -6v-113q0 -6 -6 -6h-363q-6 0 -6 6v619h-119q-6 0 -6 6z" />
<glyph unicode="&#xee;" horiz-adv-x="625" d="M0 881v113q0 6 6 6h119v119q0 6 6 6h363q6 0 6 -6v-119h119q6 0 6 -6v-113q0 -6 -6 -6h-238q-6 0 -6 6v119h-125v-119q0 -6 -6 -6h-238q-6 0 -6 6zM125 631v113q0 6 6 6h363q6 0 6 -6v-619h119q6 0 6 -6v-113q0 -6 -6 -6h-363q-6 0 -6 6v619h-119q-6 0 -6 6z" />
<glyph unicode="&#xef;" horiz-adv-x="625" d="M0 881v238q0 6 6 6h238q6 0 6 -6v-238q0 -6 -6 -6h-238q-6 0 -6 6zM125 631v113q0 6 6 6h363q6 0 6 -6v-619h119q6 0 6 -6v-113q0 -6 -6 -6h-363q-6 0 -6 6v619h-119q-6 0 -6 6zM375 881v238q0 6 6 6h238q6 0 6 -6v-238q0 -6 -6 -6h-238q-6 0 -6 6z" />
<glyph unicode="&#xf0;" d="M0 131v363q0 6 6 6h119v119q0 6 6 6h119v119q0 6 6 6h244v125h-250v-119q0 -6 -6 -6h-238q-6 0 -6 6v113q0 6 6 6h119v125h-119q-6 0 -6 6v113q0 6 6 6h363q6 0 6 -6v-119h125v119q0 6 6 6h238q6 0 6 -6v-113q0 -6 -6 -6h-119v-125h119q6 0 6 -6v-119h119q6 0 6 -6v-488 q0 -6 -6 -6h-119v-119q0 -6 -6 -6h-119v-119q0 -6 -6 -6h-488q-6 0 -6 6v119h-119q-6 0 -6 6zM250 250h119q6 0 6 -6v-119h125v119q0 6 6 6h119v250h-119q-6 0 -6 6v119h-125v-119q0 -6 -6 -6h-119v-250z" />
<glyph unicode="&#xf1;" horiz-adv-x="1000" d="M0 631v113q0 6 6 6h363q6 0 6 -6v-119h119q6 0 6 -6v-113q0 -6 -6 -6h-119v-494q0 -6 -6 -6h-238q-6 0 -6 6v619h-119q-6 0 -6 6zM250 881v238q0 6 6 6h363q6 0 6 -6v-119h125v119q0 6 6 6h113q6 0 6 -6v-238q0 -6 -6 -6h-363q-6 0 -6 6v119h-125v-119q0 -6 -6 -6h-113 q-6 0 -6 6zM500 631v113q0 6 6 6h238q6 0 6 -6v-119h119q6 0 6 -6v-494h119q6 0 6 -6v-113q0 -6 -6 -6h-363q-6 0 -6 6v619h-119q-6 0 -6 6z" />
<glyph unicode="&#xf2;" d="M0 131v363q0 6 6 6h119v119q0 6 6 6h119v119q0 6 6 6h244v125h-119q-6 0 -6 6v119h-119q-6 0 -6 6v113q0 6 6 6h238q6 0 6 -6v-119h119q6 0 6 -6v-244h119q6 0 6 -6v-119h119q6 0 6 -6v-363q0 -6 -6 -6h-119v-119q0 -6 -6 -6h-119v-119q0 -6 -6 -6h-488q-6 0 -6 6v119 h-119q-6 0 -6 6zM250 250h119q6 0 6 -6v-119h125v119q0 6 6 6h119v250h-119q-6 0 -6 6v119h-125v-119q0 -6 -6 -6h-119v-250z" />
<glyph unicode="&#xf3;" d="M0 131v363q0 6 6 6h119v119q0 6 6 6h119v119q0 6 6 6h244v244q0 6 6 6h119v119q0 6 6 6h238q6 0 6 -6v-113q0 -6 -6 -6h-119v-119q0 -6 -6 -6h-119v-125h119q6 0 6 -6v-119h119q6 0 6 -6v-363q0 -6 -6 -6h-119v-119q0 -6 -6 -6h-119v-119q0 -6 -6 -6h-488q-6 0 -6 6v119 h-119q-6 0 -6 6zM250 250h119q6 0 6 -6v-119h125v119q0 6 6 6h119v250h-119q-6 0 -6 6v119h-125v-119q0 -6 -6 -6h-119v-250z" />
<glyph unicode="&#xf4;" d="M0 131v363q0 6 6 6h119v119q0 6 6 6h119v119q0 6 6 6h488q6 0 6 -6v-119h119q6 0 6 -6v-363q0 -6 -6 -6h-119v-119q0 -6 -6 -6h-119v-119q0 -6 -6 -6h-488q-6 0 -6 6v119h-119q-6 0 -6 6zM250 250h119q6 0 6 -6v-119h125v119q0 6 6 6h119v250h-119q-6 0 -6 6v119h-125 v-119q0 -6 -6 -6h-119v-250zM250 881v113q0 6 6 6h119v119q0 6 6 6h363q6 0 6 -6v-119h119q6 0 6 -6v-113q0 -6 -6 -6h-238q-6 0 -6 6v119h-125v-119q0 -6 -6 -6h-238q-6 0 -6 6z" />
<glyph unicode="&#xf5;" horiz-adv-x="1000" d="M0 131v363q0 6 6 6h119v119q0 6 6 6h119v119q0 6 6 6h488q6 0 6 -6v-119h119q6 0 6 -6v-363q0 -6 -6 -6h-119v-119q0 -6 -6 -6h-119v-119q0 -6 -6 -6h-488q-6 0 -6 6v119h-119q-6 0 -6 6zM250 250h119q6 0 6 -6v-119h125v119q0 6 6 6h119v250h-119q-6 0 -6 6v119h-125 v-119q0 -6 -6 -6h-119v-250zM250 881v238q0 6 6 6h363q6 0 6 -6v-119h125v119q0 6 6 6h113q6 0 6 -6v-238q0 -6 -6 -6h-363q-6 0 -6 6v119h-125v-119q0 -6 -6 -6h-113q-6 0 -6 6z" />
<glyph unicode="&#xf6;" d="M0 131v363q0 6 6 6h119v119q0 6 6 6h119v119q0 6 6 6h488q6 0 6 -6v-119h119q6 0 6 -6v-363q0 -6 -6 -6h-119v-119q0 -6 -6 -6h-119v-119q0 -6 -6 -6h-488q-6 0 -6 6v119h-119q-6 0 -6 6zM250 250h119q6 0 6 -6v-119h125v119q0 6 6 6h119v250h-119q-6 0 -6 6v119h-125 v-119q0 -6 -6 -6h-119v-250zM250 881v238q0 6 6 6h238q6 0 6 -6v-238q0 -6 -6 -6h-238q-6 0 -6 6zM625 881v238q0 6 6 6h238q6 0 6 -6v-238q0 -6 -6 -6h-238q-6 0 -6 6z" />
<glyph unicode="&#xf7;" horiz-adv-x="1000" d="M125 256v238q0 6 6 6h738q6 0 6 -6v-238q0 -6 -6 -6h-738q-6 0 -6 6zM375 -119v238q0 6 6 6h238q6 0 6 -6v-238q0 -6 -6 -6h-238q-6 0 -6 6zM375 631v238q0 6 6 6h238q6 0 6 -6v-238q0 -6 -6 -6h-238q-6 0 -6 6z" />
<glyph unicode="&#xf8;" d="M0 131v363q0 6 6 6h119v119q0 6 6 6h119v119q0 6 6 6h369v119q0 6 6 6h113q6 0 6 -6v-244h119q6 0 6 -6v-363q0 -6 -6 -6h-119v-119q0 -6 -6 -6h-119v-119q0 -6 -6 -6h-369v-119q0 -6 -6 -6h-113q-6 0 -6 6v244h-119q-6 0 -6 6zM250 250h119q6 0 6 -6v-119h125v119 q0 6 6 6h119v250h-119q-6 0 -6 6v119h-125v-119q0 -6 -6 -6h-119v-250zM375 256v238q0 6 6 6h113q6 0 6 -6v-238q0 -6 -6 -6h-113q-6 0 -6 6z" />
<glyph unicode="&#xf9;" horiz-adv-x="1000" d="M0 631v113q0 6 6 6h363q6 0 6 -6v-619h119q6 0 6 -6v-113q0 -6 -6 -6h-238q-6 0 -6 6v119h-119q-6 0 -6 6v494h-119q-6 0 -6 6zM250 1006v113q0 6 6 6h238q6 0 6 -6v-119h119q6 0 6 -6v-238q0 -6 -6 -6h-113q-6 0 -6 6v119h-119q-6 0 -6 6v119h-119q-6 0 -6 6zM500 131 v113q0 6 6 6h119v494q0 6 6 6h238q6 0 6 -6v-619h119q6 0 6 -6v-113q0 -6 -6 -6h-363q-6 0 -6 6v119h-119q-6 0 -6 6z" />
<glyph unicode="&#xfa;" horiz-adv-x="1000" d="M0 631v113q0 6 6 6h363q6 0 6 -6v-619h119q6 0 6 -6v-113q0 -6 -6 -6h-238q-6 0 -6 6v119h-119q-6 0 -6 6v494h-119q-6 0 -6 6zM375 756v238q0 6 6 6h119v119q0 6 6 6h238q6 0 6 -6v-113q0 -6 -6 -6h-119v-119q0 -6 -6 -6h-119v-119q0 -6 -6 -6h-113q-6 0 -6 6zM500 131 v113q0 6 6 6h119v494q0 6 6 6h238q6 0 6 -6v-619h119q6 0 6 -6v-113q0 -6 -6 -6h-363q-6 0 -6 6v119h-119q-6 0 -6 6z" />
<glyph unicode="&#xfb;" horiz-adv-x="1000" d="M0 631v113q0 6 6 6h363q6 0 6 -6v-619h119q6 0 6 -6v-113q0 -6 -6 -6h-238q-6 0 -6 6v119h-119q-6 0 -6 6v494h-119q-6 0 -6 6zM250 881v113q0 6 6 6h119v119q0 6 6 6h363q6 0 6 -6v-119h119q6 0 6 -6v-113q0 -6 -6 -6h-238q-6 0 -6 6v119h-125v-119q0 -6 -6 -6h-238 q-6 0 -6 6zM500 131v113q0 6 6 6h119v494q0 6 6 6h238q6 0 6 -6v-619h119q6 0 6 -6v-113q0 -6 -6 -6h-363q-6 0 -6 6v119h-119q-6 0 -6 6z" />
<glyph unicode="&#xfc;" horiz-adv-x="1000" d="M0 631v113q0 6 6 6h363q6 0 6 -6v-619h119q6 0 6 -6v-113q0 -6 -6 -6h-238q-6 0 -6 6v119h-119q-6 0 -6 6v494h-119q-6 0 -6 6zM375 881v238q0 6 6 6h238q6 0 6 -6v-238q0 -6 -6 -6h-238q-6 0 -6 6zM500 131v113q0 6 6 6h119v494q0 6 6 6h238q6 0 6 -6v-619h119q6 0 6 -6 v-113q0 -6 -6 -6h-363q-6 0 -6 6v119h-119q-6 0 -6 6zM750 881v238q0 6 6 6h238q6 0 6 -6v-238q0 -6 -6 -6h-238q-6 0 -6 6z" />
<glyph unicode="&#xfd;" d="M-125 -256q0 6 6 6h119v119q0 6 6 6h369v125h-244q-6 0 -6 6v619h-119q-6 0 -6 6v113q0 6 6 6h363q6 0 6 -6v-619h125v244q0 6 6 6h119v369q0 6 6 6h238q6 0 6 -6v-363q0 -6 -6 -6h-119v-244q0 -6 -6 -6h-119v-244q0 -6 -6 -6h-119v-119q0 -6 -6 -6h-119v-119q0 -6 -6 -6 h-488q-6 0 -6 6v113zM375 756v238q0 6 6 6h119v119q0 6 6 6h238q6 0 6 -6v-113q0 -6 -6 -6h-119v-119q0 -6 -6 -6h-119v-119q0 -6 -6 -6h-113q-6 0 -6 6z" />
<glyph unicode="&#xfe;" horiz-adv-x="750" d="M0 -369v1363q0 6 6 6h119v119q0 6 6 6h363q6 0 6 -6v-113q0 -6 -6 -6h-119v-119q0 -6 -6 -6h-119v-125h369q6 0 6 -6v-119h119q6 0 6 -6v-363q0 -6 -6 -6h-119v-119q0 -6 -6 -6h-119v-119q0 -6 -6 -6h-244v-369q0 -6 -6 -6h-238q-6 0 -6 6zM250 125h125v119q0 6 6 6h119 v250h-119q-6 0 -6 6v119h-125v-500z" />
<glyph unicode="&#xff;" d="M-125 -256q0 6 6 6h119v119q0 6 6 6h369v125h-244q-6 0 -6 6v619h-119q-6 0 -6 6v113q0 6 6 6h363q6 0 6 -6v-619h125v244q0 6 6 6h119v369q0 6 6 6h238q6 0 6 -6v-363q0 -6 -6 -6h-119v-244q0 -6 -6 -6h-119v-244q0 -6 -6 -6h-119v-119q0 -6 -6 -6h-119v-119q0 -6 -6 -6 h-488q-6 0 -6 6v113zM250 881v238q0 6 6 6h238q6 0 6 -6v-238q0 -6 -6 -6h-238q-6 0 -6 6zM625 881v238q0 6 6 6h238q6 0 6 -6v-238q0 -6 -6 -6h-238q-6 0 -6 6z" />
<glyph unicode="&#x131;" horiz-adv-x="500" d="M0 631v113q0 6 6 6h363q6 0 6 -6v-619h119q6 0 6 -6v-113q0 -6 -6 -6h-363q-6 0 -6 6v619h-119q-6 0 -6 6z" />
<glyph unicode="&#x2000;" horiz-adv-x="562" />
<glyph unicode="&#x2001;" horiz-adv-x="1125" />
<glyph unicode="&#x2002;" horiz-adv-x="562" />
<glyph unicode="&#x2003;" horiz-adv-x="1125" />
<glyph unicode="&#x2004;" horiz-adv-x="375" />
<glyph unicode="&#x2005;" horiz-adv-x="281" />
<glyph unicode="&#x2006;" horiz-adv-x="187" />
<glyph unicode="&#x2007;" horiz-adv-x="187" />
<glyph unicode="&#x2008;" horiz-adv-x="140" />
<glyph unicode="&#x2009;" horiz-adv-x="225" />
<glyph unicode="&#x200a;" horiz-adv-x="62" />
<glyph unicode="&#x2010;" horiz-adv-x="750" d="M125 256v238q0 6 6 6h488q6 0 6 -6v-238q0 -6 -6 -6h-488q-6 0 -6 6z" />
<glyph unicode="&#x2011;" horiz-adv-x="750" d="M125 256v238q0 6 6 6h488q6 0 6 -6v-238q0 -6 -6 -6h-488q-6 0 -6 6z" />
<glyph unicode="&#x2012;" horiz-adv-x="750" d="M125 256v238q0 6 6 6h488q6 0 6 -6v-238q0 -6 -6 -6h-488q-6 0 -6 6z" />
<glyph unicode="&#x2013;" horiz-adv-x="1125" d="M125 256v238q0 6 6 6h863q6 0 6 -6v-238q0 -6 -6 -6h-863q-6 0 -6 6z" />
<glyph unicode="&#x2014;" horiz-adv-x="1750" d="M125 256v238q0 6 6 6h1488q6 0 6 -6v-238q0 -6 -6 -6h-1488q-6 0 -6 6z" />
<glyph unicode="&#x2018;" horiz-adv-x="500" d="M125 631v363q0 6 6 6h113q6 0 6 -6v-119h119q6 0 6 -6v-238q0 -6 -6 -6h-238q-6 0 -6 6zM250 1006v113q0 6 6 6h113q6 0 6 -6v-113q0 -6 -6 -6h-113q-6 0 -6 6z" />
<glyph unicode="&#x2019;" horiz-adv-x="500" d="M125 631v113q0 6 6 6h113q6 0 6 -6v-113q0 -6 -6 -6h-113q-6 0 -6 6zM125 881v238q0 6 6 6h238q6 0 6 -6v-363q0 -6 -6 -6h-113q-6 0 -6 6v119h-119q-6 0 -6 6z" />
<glyph unicode="&#x201a;" horiz-adv-x="500" d="M125 6v238q0 6 6 6h238q6 0 6 -6v-363q0 -6 -6 -6h-113q-6 0 -6 6v119h-119q-6 0 -6 6zM125 -131q0 6 6 6h113q6 0 6 -6v-113q0 -6 -6 -6h-113q-6 0 -6 6v113z" />
<glyph unicode="&#x201c;" d="M125 631v363q0 6 6 6h113q6 0 6 -6v-119h119q6 0 6 -6v-238q0 -6 -6 -6h-238q-6 0 -6 6zM250 1006v113q0 6 6 6h113q6 0 6 -6v-113q0 -6 -6 -6h-113q-6 0 -6 6zM500 631v363q0 6 6 6h113q6 0 6 -6v-119h119q6 0 6 -6v-238q0 -6 -6 -6h-238q-6 0 -6 6zM625 1006v113 q0 6 6 6h113q6 0 6 -6v-113q0 -6 -6 -6h-113q-6 0 -6 6z" />
<glyph unicode="&#x201d;" d="M125 631v113q0 6 6 6h113q6 0 6 -6v-113q0 -6 -6 -6h-113q-6 0 -6 6zM125 881v238q0 6 6 6h238q6 0 6 -6v-363q0 -6 -6 -6h-113q-6 0 -6 6v119h-119q-6 0 -6 6zM500 631v113q0 6 6 6h113q6 0 6 -6v-113q0 -6 -6 -6h-113q-6 0 -6 6zM500 881v238q0 6 6 6h238q6 0 6 -6 v-363q0 -6 -6 -6h-113q-6 0 -6 6v119h-119q-6 0 -6 6z" />
<glyph unicode="&#x201e;" d="M125 6v238q0 6 6 6h238q6 0 6 -6v-363q0 -6 -6 -6h-113q-6 0 -6 6v119h-119q-6 0 -6 6zM125 -131q0 6 6 6h113q6 0 6 -6v-113q0 -6 -6 -6h-113q-6 0 -6 6v113zM500 6v238q0 6 6 6h238q6 0 6 -6v-363q0 -6 -6 -6h-113q-6 0 -6 6v119h-119q-6 0 -6 6zM500 -131q0 6 6 6h113 q6 0 6 -6v-113q0 -6 -6 -6h-113q-6 0 -6 6v113z" />
<glyph unicode="&#x2026;" horiz-adv-x="1250" d="M125 6v238q0 6 6 6h238q6 0 6 -6v-238q0 -6 -6 -6h-238q-6 0 -6 6zM500 6v238q0 6 6 6h238q6 0 6 -6v-238q0 -6 -6 -6h-238q-6 0 -6 6zM875 6v238q0 6 6 6h238q6 0 6 -6v-238q0 -6 -6 -6h-238q-6 0 -6 6z" />
<glyph unicode="&#x202f;" horiz-adv-x="225" />
<glyph unicode="&#x2039;" horiz-adv-x="625" d="M125 256v238q0 6 6 6h119v119q0 6 6 6h119v119q0 6 6 6h238q6 0 6 -6v-113q0 -6 -6 -6h-119v-119q0 -6 -6 -6h-119v-250h119q6 0 6 -6v-119h119q6 0 6 -6v-113q0 -6 -6 -6h-238q-6 0 -6 6v119h-119q-6 0 -6 6v119h-119q-6 0 -6 6z" />
<glyph unicode="&#x203a;" horiz-adv-x="625" d="M0 6v113q0 6 6 6h119v119q0 6 6 6h119v250h-119q-6 0 -6 6v119h-119q-6 0 -6 6v113q0 6 6 6h238q6 0 6 -6v-119h119q6 0 6 -6v-119h119q6 0 6 -6v-238q0 -6 -6 -6h-119v-119q0 -6 -6 -6h-119v-119q0 -6 -6 -6h-238q-6 0 -6 6z" />
<glyph unicode="&#x205f;" horiz-adv-x="281" />
<glyph unicode="&#x2070;" horiz-adv-x="500" d="M0 756v238q0 6 6 6h119v119q0 6 6 6h238q6 0 6 -6v-113q0 -6 -6 -6h-119v-250h119q6 0 6 -6v-113q0 -6 -6 -6h-238q-6 0 -6 6v119h-119q-6 0 -6 6zM375 756v238q0 6 6 6h113q6 0 6 -6v-238q0 -6 -6 -6h-113q-6 0 -6 6z" />
<glyph unicode="&#x2074;" horiz-adv-x="500" d="M0 756v113q0 6 6 6h119v119q0 6 6 6h113q6 0 6 -6v-119h125v125h-119q-6 0 -6 6v113q0 6 6 6h238q6 0 6 -6v-488q0 -6 -6 -6h-238q-6 0 -6 6v119h-244q-6 0 -6 6z" />
<glyph unicode="&#x2075;" horiz-adv-x="500" d="M0 631v113q0 6 6 6h244v119q0 6 6 6h238q6 0 6 -6v-238q0 -6 -6 -6h-488q-6 0 -6 6zM0 881v238q0 6 6 6h488q6 0 6 -6v-113q0 -6 -6 -6h-244v-119q0 -6 -6 -6h-238q-6 0 -6 6z" />
<glyph unicode="&#x2076;" horiz-adv-x="500" d="M0 756v363q0 6 6 6h238q6 0 6 -6v-119h119q6 0 6 -6v-113q0 -6 -6 -6h-119v-125h119q6 0 6 -6v-113q0 -6 -6 -6h-238q-6 0 -6 6v119h-119q-6 0 -6 6zM375 756v113q0 6 6 6h113q6 0 6 -6v-113q0 -6 -6 -6h-113q-6 0 -6 6z" />
<glyph unicode="&#x2077;" horiz-adv-x="500" d="M0 631v113q0 6 6 6h119v119q0 6 6 6h119v125h-244q-6 0 -6 6v113q0 6 6 6h488q6 0 6 -6v-238q0 -6 -6 -6h-119v-119q0 -6 -6 -6h-119v-119q0 -6 -6 -6h-238q-6 0 -6 6z" />
<glyph unicode="&#x2078;" horiz-adv-x="500" d="M0 756v238q0 6 6 6h119v119q0 6 6 6h238q6 0 6 -6v-119h119q6 0 6 -6v-238q0 -6 -6 -6h-113q-6 0 -6 6v119h-250v-119q0 -6 -6 -6h-113q-6 0 -6 6zM125 631v113q0 6 6 6h238q6 0 6 -6v-113q0 -6 -6 -6h-238q-6 0 -6 6z" />
<glyph unicode="&#x2079;" horiz-adv-x="500" d="M0 881v113q0 6 6 6h113q6 0 6 -6v-113q0 -6 -6 -6h-113q-6 0 -6 6zM125 756v113q0 6 6 6h119v125h-119q-6 0 -6 6v113q0 6 6 6h238q6 0 6 -6v-119h119q6 0 6 -6v-363q0 -6 -6 -6h-238q-6 0 -6 6v119h-119q-6 0 -6 6z" />
<glyph unicode="&#x20ac;" horiz-adv-x="1125" d="M0 381v113q0 6 6 6h244v125h-244q-6 0 -6 6v113q0 6 6 6h244v119q0 6 6 6h119v119q0 6 6 6h613q6 0 6 -6v-119h119q6 0 6 -6v-238q0 -6 -6 -6h-238q-6 0 -6 6v119h-119q-6 0 -6 6v119h-250v-125h119q6 0 6 -6v-113q0 -6 -6 -6h-119v-125h369q6 0 6 -6v-113q0 -6 -6 -6 h-369v-125h119q6 0 6 -6v-119h250v119q0 6 6 6h238q6 0 6 -6v-113q0 -6 -6 -6h-119v-119q0 -6 -6 -6h-613q-6 0 -6 6v119h-119q-6 0 -6 6v244h-244q-6 0 -6 6z" />
<glyph unicode="&#x2121;" horiz-adv-x="1625" d="M0 381v363q0 6 6 6h113q6 0 6 -6v-363q0 -6 -6 -6h-113q-6 0 -6 6zM125 256v113q0 6 6 6h113q6 0 6 -6v-113q0 -6 -6 -6h-113q-6 0 -6 6zM125 756v113q0 6 6 6h113q6 0 6 -6v-113q0 -6 -6 -6h-113q-6 0 -6 6zM250 131v113q0 6 6 6h119v119q0 6 6 6h119v119q0 6 6 6h119 v119q0 6 6 6h119v244q0 6 6 6h113q6 0 6 -6v-119h250v119q0 6 6 6h113q6 0 6 -6v-244h119q6 0 6 -6v-119h119q6 0 6 -6v-119h119q6 0 6 -6v-363q0 -6 -6 -6h-1238q-6 0 -6 6v119h-119q-6 0 -6 6zM250 881v113q0 6 6 6h119v119q0 6 6 6h1238q6 0 6 -6v-363q0 -6 -6 -6h-238 q-6 0 -6 6v244h-750v-244q0 -6 -6 -6h-238q-6 0 -6 6v119h-119q-6 0 -6 6zM750 250h119q6 0 6 -6v-119h250v119q0 6 6 6h119v250h-119q-6 0 -6 6v119h-250v-119q0 -6 -6 -6h-119v-250z" />
<glyph unicode="&#x2122;" horiz-adv-x="1875" d="M0 881v113q0 6 6 6h119v119q0 6 6 6h863q6 0 6 -6v-119h119q6 0 6 -6v-119h119q6 0 6 -6v-113q0 -6 -6 -6h-119v-244q0 -6 -6 -6h-119v-119q0 -6 -6 -6h-238q-6 0 -6 6v113q0 6 6 6h119v500h-250v-375h119q6 0 6 -6v-113q0 -6 -6 -6h-488q-6 0 -6 6v113q0 6 6 6h119v375 h-125v-119q0 -6 -6 -6h-238q-6 0 -6 6zM1250 631v113q0 6 6 6h113q6 0 6 -6v-113q0 -6 -6 -6h-113q-6 0 -6 6zM1375 756v113q0 6 6 6h119v119q0 6 6 6h119v119q0 6 6 6h238q6 0 6 -6v-113q0 -6 -6 -6h-119v-375h119q6 0 6 -6v-113q0 -6 -6 -6h-363q-6 0 -6 6v244h-119 q-6 0 -6 6z" />
<glyph unicode="&#x2605;" horiz-adv-x="1125" d="M0 631v113q0 6 6 6h369v119q0 6 6 6h119v244q0 6 6 6h113q6 0 6 -6v-244h119q6 0 6 -6v-119h369q6 0 6 -6v-113q0 -6 -6 -6h-119v-119q0 -6 -6 -6h-119v-494q0 -6 -6 -6h-113q-6 0 -6 6v119h-119q-6 0 -6 6v119h-125v-119q0 -6 -6 -6h-119v-119q0 -6 -6 -6h-113 q-6 0 -6 6v494h-119q-6 0 -6 6v119h-119q-6 0 -6 6z" />
<glyph unicode="&#x2709;" horiz-adv-x="1375" d="M0 6v1113q0 6 6 6h1363q6 0 6 -6v-1113q0 -6 -6 -6h-1363q-6 0 -6 6zM125 125h125v119q0 6 6 6h113q6 0 6 -6v-119h625v119q0 6 6 6h113q6 0 6 -6v-119h125v625h-119q-6 0 -6 6v113q0 6 6 6h119v125h-1125v-125h119q6 0 6 -6v-113q0 -6 -6 -6h-119v-625zM250 631v113 q0 6 6 6h113q6 0 6 -6v-113q0 -6 -6 -6h-113q-6 0 -6 6zM375 256v113q0 6 6 6h113q6 0 6 -6v-113q0 -6 -6 -6h-113q-6 0 -6 6zM375 506v113q0 6 6 6h113q6 0 6 -6v-113q0 -6 -6 -6h-113q-6 0 -6 6zM500 381v113q0 6 6 6h113q6 0 6 -6v-113q0 -6 -6 -6h-113q-6 0 -6 6z M625 256v113q0 6 6 6h113q6 0 6 -6v-113q0 -6 -6 -6h-113q-6 0 -6 6zM750 381v113q0 6 6 6h113q6 0 6 -6v-113q0 -6 -6 -6h-113q-6 0 -6 6zM875 256v113q0 6 6 6h113q6 0 6 -6v-113q0 -6 -6 -6h-113q-6 0 -6 6zM875 506v113q0 6 6 6h113q6 0 6 -6v-113q0 -6 -6 -6h-113 q-6 0 -6 6zM1000 631v113q0 6 6 6h113q6 0 6 -6v-113q0 -6 -6 -6h-113q-6 0 -6 6z" />
<glyph unicode="&#xe000;" horiz-adv-x="2625" d="M0 756v113q0 6 6 6h119v119q0 6 6 6h113q6 0 6 -6v-119h125v125h-119q-6 0 -6 6v113q0 6 6 6h363q6 0 6 -6v-119h244q6 0 6 -6v-119h244q6 0 6 -6v-119h244q6 0 6 -6v-119h244q6 0 6 -6v-119h244q6 0 6 -6v-119h244q6 0 6 -6v-119h244q6 0 6 -6v-119h244q6 0 6 -6v-113 q0 -6 -6 -6h-363q-6 0 -6 6v119h-494q-6 0 -6 6v119h-250v-119q0 -6 -6 -6h-244v-119q0 -6 -6 -6h-119v-244q0 -6 -6 -6h-238q-6 0 -6 6v113q0 6 6 6h119v125h-119q-6 0 -6 6v119h-119q-6 0 -6 6v119h-119q-6 0 -6 6v119h-119q-6 0 -6 6v119h-119q-6 0 -6 6v119h-244 q-6 0 -6 6v119h-119q-6 0 -6 6z" />
<glyph unicode="&#xe001;" horiz-adv-x="2625" d="M0 6v113q0 6 6 6h244v119q0 6 6 6h244v119q0 6 6 6h244v119q0 6 6 6h244v119q0 6 6 6h244v119q0 6 6 6h244v119q0 6 6 6h244v119q0 6 6 6h244v119q0 6 6 6h363q6 0 6 -6v-113q0 -6 -6 -6h-119v-125h125v119q0 6 6 6h113q6 0 6 -6v-119h119q6 0 6 -6v-113q0 -6 -6 -6h-119 v-119q0 -6 -6 -6h-244v-119q0 -6 -6 -6h-119v-119q0 -6 -6 -6h-119v-119q0 -6 -6 -6h-119v-119q0 -6 -6 -6h-119v-119q0 -6 -6 -6h-119v-125h119q6 0 6 -6v-113q0 -6 -6 -6h-238q-6 0 -6 6v244h-119q-6 0 -6 6v119h-244q-6 0 -6 6v119h-250v-119q0 -6 -6 -6h-494v-119 q0 -6 -6 -6h-363q-6 0 -6 6z" />
<glyph unicode="&#xe002;" horiz-adv-x="1500" d="M0 6v1113q0 6 6 6h1488q6 0 6 -6v-1113q0 -6 -6 -6h-113q-6 0 -6 6v119h-119q-6 0 -6 6v119h-119q-6 0 -6 6v119h-750v-119q0 -6 -6 -6h-119v-119q0 -6 -6 -6h-119v-119q0 -6 -6 -6h-113q-6 0 -6 6zM125 875h125v125h-125v-125zM250 6v113q0 6 6 6h119v119q0 6 6 6h738 q6 0 6 -6v-119h119q6 0 6 -6v-113q0 -6 -6 -6h-988q-6 0 -6 6zM250 625h119q6 0 6 -6v-119h125v119q0 6 6 6h119v125h-119q-6 0 -6 6v119h-125v-119q0 -6 -6 -6h-119v-125zM875 625h119q6 0 6 -6v-119h125v119q0 6 6 6h119v125h-119q-6 0 -6 6v119h-125v-119q0 -6 -6 -6 h-119v-125zM1250 875h125v125h-125v-125z" />
<glyph unicode="&#xe003;" horiz-adv-x="1125" d="M0 131v238q0 6 6 6h119v125h-119q-6 0 -6 6v238q0 6 6 6h119v119q0 6 6 6h119v119q0 6 6 6h363q6 0 6 -6v-119h119q6 0 6 -6v-238q0 -6 -6 -6h-119v-125h250v119q0 6 6 6h238q6 0 6 -6v-113q0 -6 -6 -6h-119v-119q0 -6 -6 -6h-119v-125h119q6 0 6 -6v-119h119q6 0 6 -6 v-113q0 -6 -6 -6h-238q-6 0 -6 6v119h-250v-119q0 -6 -6 -6h-488q-6 0 -6 6v119h-119q-6 0 -6 6zM250 250h119q6 0 6 -6v-119h125v119q0 6 6 6h119v125h-119q-6 0 -6 6v119h-125v-119q0 -6 -6 -6h-119v-125zM250 625h250v125h-250v-125z" />
<glyph unicode="&#xe004;" horiz-adv-x="1375" d="M0 6v1113q0 6 6 6h1363q6 0 6 -6v-1113q0 -6 -6 -6h-1363q-6 0 -6 6zM125 125h1125v875h-1125v-875zM250 256v113q0 6 6 6h488q6 0 6 -6v-113q0 -6 -6 -6h-488q-6 0 -6 6zM250 506v113q0 6 6 6h363q6 0 6 -6v-113q0 -6 -6 -6h-363q-6 0 -6 6zM875 631v238q0 6 6 6h238 q6 0 6 -6v-238q0 -6 -6 -6h-238q-6 0 -6 6z" />
<glyph unicode="&#xe005;" horiz-adv-x="375" d="M0 756v113q0 6 6 6h244v119q0 6 6 6h113q6 0 6 -6v-238q0 -6 -6 -6h-363q-6 0 -6 6zM125 1006v113q0 6 6 6h113q6 0 6 -6v-113q0 -6 -6 -6h-113q-6 0 -6 6z" />
<glyph unicode="&#xe006;" horiz-adv-x="2000" d="M0 6v613q0 6 6 6h119v119q0 6 6 6h119v119q0 6 6 6h119v119q0 6 6 6h244v119q0 6 6 6h988q6 0 6 -6v-119h244q6 0 6 -6v-119h119q6 0 6 -6v-613q0 -6 -6 -6h-119v-119q0 -6 -6 -6h-119v-119q0 -6 -6 -6h-119v-119q0 -6 -6 -6h-244v-119q0 -6 -6 -6h-988q-6 0 -6 6v119 h-244q-6 0 -6 6v119h-119q-6 0 -6 6zM250 125h119q6 0 6 -6v-119h119q6 0 6 -6v-119h750v119q0 6 6 6h244v119q0 6 6 6h119v119q0 6 6 6h119v500h-119q-6 0 -6 6v119h-119q-6 0 -6 6v119h-750v-119q0 -6 -6 -6h-244v-119q0 -6 -6 -6h-119v-119q0 -6 -6 -6h-119v-500z M625 131v113q0 6 6 6h363q6 0 6 -6v-119h125v119q0 6 6 6h119v375h-119q-6 0 -6 6v119h-250v-119q0 -6 -6 -6h-238q-6 0 -6 6v113q0 6 6 6h119v119q0 6 6 6h613q6 0 6 -6v-119h119q6 0 6 -6v-488q0 -6 -6 -6h-119v-119q0 -6 -6 -6h-119v-119q0 -6 -6 -6h-488q-6 0 -6 6v119 h-119q-6 0 -6 6z" />
<glyph unicode="&#xe007;" horiz-adv-x="1625" d="M125 6v738q0 6 6 6h119v119q0 6 6 6h119v119q0 6 6 6h119v119q0 6 6 6h738q6 0 6 -6v-119h119q6 0 6 -6v-119h119q6 0 6 -6v-119h119q6 0 6 -6v-738q0 -6 -6 -6h-119v-119q0 -6 -6 -6h-119v-119q0 -6 -6 -6h-119v-119q0 -6 -6 -6h-738q-6 0 -6 6v119h-119q-6 0 -6 6v119 h-119q-6 0 -6 6v119h-119q-6 0 -6 6zM500 250h119q6 0 6 -6v-119h119q6 0 6 -6v-119h250v119q0 6 6 6h119v119q0 6 6 6h119v250h-119q-6 0 -6 6v119h-119q-6 0 -6 6v119h-250v-119q0 -6 -6 -6h-119v-119q0 -6 -6 -6h-119v-250zM750 256v238q0 6 6 6h238q6 0 6 -6v-238 q0 -6 -6 -6h-238q-6 0 -6 6z" />
<glyph unicode="&#xe009;" horiz-adv-x="1875" d="M0 631v238q0 6 6 6h119v119q0 6 6 6h988q6 0 6 -6v-238q0 -6 -6 -6h-238q-6 0 -6 6v119h-125v-750h119q6 0 6 -6v-113q0 -6 -6 -6h-488q-6 0 -6 6v113q0 6 6 6h119v750h-125v-119q0 -6 -6 -6h-119v-119q0 -6 -6 -6h-238q-6 0 -6 6zM875 506v113q0 6 6 6h363q6 0 6 -6 v-494h119q6 0 6 -6v-113q0 -6 -6 -6h-363q-6 0 -6 6v494h-119q-6 0 -6 6zM1375 131v113q0 6 6 6h119v494q0 6 6 6h238q6 0 6 -6v-619h119q6 0 6 -6v-113q0 -6 -6 -6h-363q-6 0 -6 6v119h-119q-6 0 -6 6z" />
<glyph unicode="&#xe00a;" horiz-adv-x="1750" d="M0 631v238q0 6 6 6h119v119q0 6 6 6h988q6 0 6 -6v-238q0 -6 -6 -6h-238q-6 0 -6 6v119h-125v-750h119q6 0 6 -6v-113q0 -6 -6 -6h-488q-6 0 -6 6v113q0 6 6 6h119v750h-125v-119q0 -6 -6 -6h-119v-119q0 -6 -6 -6h-238q-6 0 -6 6zM875 -256q0 6 6 6h119v119q0 6 6 6h244 v125h-244q-6 0 -6 6v494h-119q-6 0 -6 6v113q0 6 6 6h363q6 0 6 -6v-494h125v244q0 6 6 6h119v369q0 6 6 6h238q6 0 6 -6v-363q0 -6 -6 -6h-119v-244q0 -6 -6 -6h-119v-244q0 -6 -6 -6h-119v-244q0 -6 -6 -6h-488q-6 0 -6 6v113z" />
<glyph unicode="&#xe00b;" horiz-adv-x="1750" d="M0 131v363q0 6 6 6h119v119q0 6 6 6h119v119q0 6 6 6h119v244q0 6 6 6h119v119q0 6 6 6h363q6 0 6 -6v-113q0 -6 -6 -6h-244v-119q0 -6 -6 -6h-119v-125h119q6 0 6 -6v-119h119q6 0 6 -6v-113q0 -6 -6 -6h-238q-6 0 -6 6v119h-125v-119q0 -6 -6 -6h-119v-250h119 q6 0 6 -6v-119h125v119q0 6 6 6h113q6 0 6 -6v-238q0 -6 -6 -6h-488q-6 0 -6 6v119h-119q-6 0 -6 6zM875 6v988q0 6 6 6h119v119q0 6 6 6h363q6 0 6 -6v-113q0 -6 -6 -6h-119v-119q0 -6 -6 -6h-119v-125h369q6 0 6 -6v-119h119q6 0 6 -6v-494h119q6 0 6 -6v-113q0 -6 -6 -6 h-363q-6 0 -6 6v619h-125v-119q0 -6 -6 -6h-119v-494q0 -6 -6 -6h-238q-6 0 -6 6z" />
<glyph unicode="&#xe00c;" horiz-adv-x="1750" d="M0 131v363q0 6 6 6h119v119q0 6 6 6h119v119q0 6 6 6h119v244q0 6 6 6h119v119q0 6 6 6h363q6 0 6 -6v-113q0 -6 -6 -6h-244v-119q0 -6 -6 -6h-119v-125h119q6 0 6 -6v-119h119q6 0 6 -6v-113q0 -6 -6 -6h-238q-6 0 -6 6v119h-125v-119q0 -6 -6 -6h-119v-250h119 q6 0 6 -6v-119h125v119q0 6 6 6h113q6 0 6 -6v-238q0 -6 -6 -6h-488q-6 0 -6 6v119h-119q-6 0 -6 6zM875 6v988q0 6 6 6h119v119q0 6 6 6h363q6 0 6 -6v-113q0 -6 -6 -6h-119v-119q0 -6 -6 -6h-119v-250h119q6 0 6 -6v-113q0 -6 -6 -6h-119v-125h250v250h-119q-6 0 -6 6v113 q0 6 6 6h238q6 0 6 -6v-119h119q6 0 6 -6v-238q0 -6 -6 -6h-119v-125h119q6 0 6 -6v-119h119q6 0 6 -6v-113q0 -6 -6 -6h-363q-6 0 -6 6v119h-119q-6 0 -6 6v119h-125v-244q0 -6 -6 -6h-238q-6 0 -6 6z" />
<glyph unicode="&#xfb06;" horiz-adv-x="1500" d="M0 256v113q0 6 6 6h119v119q0 6 6 6h119v119q0 6 6 6h119v119q0 6 6 6h119v244q0 6 6 6h119v119q0 6 6 6h488q6 0 6 -6v-119h119q6 0 6 -6v-244h244q6 0 6 -6v-113q0 -6 -6 -6h-244v-500h125v119q0 6 6 6h113q6 0 6 -6v-238q0 -6 -6 -6h-488q-6 0 -6 6v619h-119 q-6 0 -6 6v113q0 6 6 6h119v125h-119q-6 0 -6 6v119h-125v-119q0 -6 -6 -6h-119v-250h119q6 0 6 -6v-488q0 -6 -6 -6h-119v-119q0 -6 -6 -6h-363q-6 0 -6 6v113q0 6 6 6h244v375h-125v-119q0 -6 -6 -6h-119v-119q0 -6 -6 -6h-238q-6 0 -6 6z" />
</font>
</defs>
</svg>
